M48
; DRILL file {KiCad (5.1.9-0-10_14)} date Wednesday, June 30, 2021 at 11:08:12 PM
; FORMAT={-:-/ absolute / metric / decimal}
; #@! TF.CreationDate,2021-06-30T23:08:12+02:00
; #@! TF.GenerationSoftware,Kicad,Pcbnew,(5.1.9-0-10_14)
; #@! TF.FileFunction,Plated,1,2,PTH
FMAT,2
METRIC
T1C0.800
T2C0.900
T3C1.000
T4C1.200
T5C1.300
T6C1.800
T7C4.300
%
G90
G05
T1
X56.0Y-112.5
X58.5Y-112.5
X67.0Y-114.5
X72.5Y-123.5
X74.62Y-114.5
X75.0Y-123.5
X85.0Y-112.563
X87.5Y-112.563
X96.0Y-114.563
X101.5Y-123.563
X103.62Y-114.563
X104.0Y-123.563
X114.0Y-112.525
X116.5Y-112.525
X125.0Y-114.525
X130.5Y-123.525
X132.62Y-114.525
X133.0Y-123.525
X143.0Y-112.5
X145.5Y-112.5
X154.0Y-114.5
X159.5Y-123.5
X161.62Y-114.5
X162.0Y-123.5
X172.0Y-112.537
X174.5Y-112.537
X183.0Y-114.537
X188.5Y-123.537
X190.62Y-114.537
X191.0Y-123.537
T2
X59.96Y-102.5
X62.5Y-102.5
X88.96Y-102.563
X91.5Y-102.563
X117.96Y-102.525
X120.5Y-102.525
X146.96Y-102.5
X149.5Y-102.5
X175.96Y-102.537
X178.5Y-102.537
T3
X178.84Y-90.0
X179.0Y-95.5
X181.38Y-90.0
X181.54Y-95.5
X183.92Y-90.0
X184.08Y-95.5
X186.46Y-90.0
X186.62Y-95.5
X189.0Y-90.0
X189.16Y-95.5
X200.0Y-110.5
X200.0Y-113.04
X200.0Y-115.58
X200.0Y-118.12
X200.0Y-120.66
X200.0Y-127.0
X200.0Y-129.54
X200.0Y-132.08
X200.0Y-134.62
X200.0Y-137.16
T4
X63.5Y-118.34
X63.5Y-128.5
X92.5Y-118.403
X92.5Y-128.563
X121.5Y-118.365
X121.5Y-128.525
X150.5Y-118.34
X150.5Y-128.5
X179.5Y-118.377
X179.5Y-128.537
T5
X45.0Y-121.5
X45.0Y-126.58
X45.5Y-102.5
X45.5Y-107.58
X58.7Y-136.28
X65.4Y-136.28
X65.435Y-132.8
X68.42Y-104.5
X73.4Y-142.6
X73.5Y-104.5
X87.7Y-136.343
X94.4Y-136.343
X94.435Y-132.863
X97.42Y-104.563
X102.4Y-142.663
X102.5Y-104.563
X105.68Y-90.5
X110.76Y-90.5
X115.84Y-90.5
X116.7Y-136.305
X120.92Y-90.5
X123.4Y-136.305
X123.435Y-132.825
X126.0Y-90.5
X126.42Y-104.525
X131.4Y-142.625
X131.5Y-104.525
X145.7Y-136.28
X152.4Y-136.28
X152.435Y-132.8
X155.42Y-104.5
X160.4Y-142.6
X160.5Y-104.5
X174.7Y-136.317
X181.4Y-136.317
X181.435Y-132.838
X184.42Y-104.537
X189.4Y-142.637
X189.5Y-104.537
T6
X61.35Y-132.8
X69.55Y-132.8
X90.35Y-132.863
X98.55Y-132.863
X119.35Y-132.825
X127.55Y-132.825
X148.35Y-132.8
X156.55Y-132.8
X177.35Y-132.838
X185.55Y-132.838
T7
X45.5Y-91.0
X45.5Y-144.55
X199.5Y-90.5
X199.5Y-144.5
T0
M30
