%TF.GenerationSoftware,KiCad,Pcbnew,(5.1.9-0-10_14)*%
%TF.CreationDate,2021-06-30T23:08:08+02:00*%
%TF.ProjectId,generator,67656e65-7261-4746-9f72-2e6b69636164,rev?*%
%TF.SameCoordinates,Original*%
%TF.FileFunction,Soldermask,Top*%
%TF.FilePolarity,Negative*%
%FSLAX46Y46*%
G04 Gerber Fmt 4.6, Leading zero omitted, Abs format (unit mm)*
G04 Created by KiCad (PCBNEW (5.1.9-0-10_14)) date 2021-06-30 23:08:08*
%MOMM*%
%LPD*%
G01*
G04 APERTURE LIST*
%ADD10C,7.500000*%
%ADD11O,1.700000X1.700000*%
%ADD12R,1.700000X1.700000*%
%ADD13C,2.108200*%
%ADD14C,1.701800*%
%ADD15C,2.600000*%
%ADD16R,2.600000X2.600000*%
%ADD17O,1.600000X1.600000*%
%ADD18C,1.600000*%
%ADD19C,1.800000*%
%ADD20R,1.800000X1.800000*%
%ADD21O,2.400000X2.400000*%
%ADD22R,2.400000X2.400000*%
%ADD23R,1.600000X1.600000*%
G04 APERTURE END LIST*
D10*
%TO.C,H104*%
X199500000Y-144500000D03*
%TD*%
%TO.C,H103*%
X199500000Y-90500000D03*
%TD*%
%TO.C,H102*%
X45500000Y-144550000D03*
%TD*%
%TO.C,H101*%
X45500000Y-91000000D03*
%TD*%
D11*
%TO.C,GND5101*%
X200000000Y-120660000D03*
X200000000Y-118120000D03*
X200000000Y-115580000D03*
X200000000Y-113040000D03*
D12*
X200000000Y-110500000D03*
%TD*%
D11*
%TO.C,GND101*%
X178840000Y-90000000D03*
X181380000Y-90000000D03*
X183920000Y-90000000D03*
X186460000Y-90000000D03*
D12*
X189000000Y-90000000D03*
%TD*%
D11*
%TO.C,5V101*%
X200000000Y-137160000D03*
X200000000Y-134620000D03*
X200000000Y-132080000D03*
X200000000Y-129540000D03*
D12*
X200000000Y-127000000D03*
%TD*%
D11*
%TO.C,24V101*%
X189160000Y-95500000D03*
X186620000Y-95500000D03*
X184080000Y-95500000D03*
X181540000Y-95500000D03*
D12*
X179000000Y-95500000D03*
%TD*%
D13*
%TO.C,XLR601*%
X69550001Y-132800000D03*
D14*
X65400001Y-136280000D03*
X65435001Y-132800000D03*
X58700001Y-136280000D03*
D13*
X61350001Y-132800000D03*
D14*
X73400001Y-142600000D03*
D13*
X69400001Y-145970000D03*
X61400001Y-140750000D03*
%TD*%
%TO.C,XLR501*%
X98550000Y-132862501D03*
D14*
X94400000Y-136342501D03*
X94435000Y-132862501D03*
X87700000Y-136342501D03*
D13*
X90350000Y-132862501D03*
D14*
X102400000Y-142662501D03*
D13*
X98400000Y-146032501D03*
X90400000Y-140812501D03*
%TD*%
%TO.C,XLR401*%
X127550000Y-132825000D03*
D14*
X123400000Y-136305000D03*
X123435000Y-132825000D03*
X116700000Y-136305000D03*
D13*
X119350000Y-132825000D03*
D14*
X131400000Y-142625000D03*
D13*
X127400000Y-145995000D03*
X119400000Y-140775000D03*
%TD*%
%TO.C,XLR301*%
X156550000Y-132800000D03*
D14*
X152400000Y-136280000D03*
X152435000Y-132800000D03*
X145700000Y-136280000D03*
D13*
X148350000Y-132800000D03*
D14*
X160400000Y-142600000D03*
D13*
X156400000Y-145970000D03*
X148400000Y-140750000D03*
%TD*%
%TO.C,XLR201*%
X185549999Y-132837500D03*
D14*
X181399999Y-136317500D03*
X181434999Y-132837500D03*
X174699999Y-136317500D03*
D13*
X177349999Y-132837500D03*
D14*
X189399999Y-142637500D03*
D13*
X185399999Y-146007500D03*
X177399999Y-140787500D03*
%TD*%
D15*
%TO.C,TestButton601*%
X68420000Y-104500000D03*
D16*
X73500000Y-104500000D03*
%TD*%
D15*
%TO.C,TestButton501*%
X97419999Y-104562501D03*
D16*
X102499999Y-104562501D03*
%TD*%
D15*
%TO.C,TestButton401*%
X126419999Y-104525000D03*
D16*
X131499999Y-104525000D03*
%TD*%
D15*
%TO.C,TestButton301*%
X155419999Y-104500000D03*
D16*
X160499999Y-104500000D03*
%TD*%
D15*
%TO.C,TestButton201*%
X184419998Y-104537500D03*
D16*
X189499998Y-104537500D03*
%TD*%
D15*
%TO.C,Signals101*%
X105680000Y-90500000D03*
X110760000Y-90500000D03*
X115840000Y-90500000D03*
X120920000Y-90500000D03*
D16*
X126000000Y-90500000D03*
%TD*%
D17*
%TO.C,R601*%
X74620000Y-114500000D03*
D18*
X67000000Y-114500000D03*
%TD*%
D17*
%TO.C,R501*%
X103619999Y-114562501D03*
D18*
X95999999Y-114562501D03*
%TD*%
D17*
%TO.C,R401*%
X132619999Y-114525000D03*
D18*
X124999999Y-114525000D03*
%TD*%
D17*
%TO.C,R301*%
X161619999Y-114500000D03*
D18*
X153999999Y-114500000D03*
%TD*%
D17*
%TO.C,R201*%
X190619998Y-114537500D03*
D18*
X182999998Y-114537500D03*
%TD*%
D19*
%TO.C,D602*%
X59960000Y-102500000D03*
D20*
X62500000Y-102500000D03*
%TD*%
D21*
%TO.C,D601*%
X63500000Y-118340000D03*
D22*
X63500000Y-128500000D03*
%TD*%
D19*
%TO.C,D502*%
X88959999Y-102562501D03*
D20*
X91499999Y-102562501D03*
%TD*%
D21*
%TO.C,D501*%
X92499999Y-118402501D03*
D22*
X92499999Y-128562501D03*
%TD*%
D19*
%TO.C,D402*%
X117959999Y-102525000D03*
D20*
X120499999Y-102525000D03*
%TD*%
D21*
%TO.C,D401*%
X121499999Y-118365000D03*
D22*
X121499999Y-128525000D03*
%TD*%
D19*
%TO.C,D302*%
X146959999Y-102500000D03*
D20*
X149499999Y-102500000D03*
%TD*%
D21*
%TO.C,D301*%
X150499999Y-118340000D03*
D22*
X150499999Y-128500000D03*
%TD*%
D19*
%TO.C,D202*%
X175959998Y-102537500D03*
D20*
X178499998Y-102537500D03*
%TD*%
D21*
%TO.C,D201*%
X179499998Y-118377500D03*
D22*
X179499998Y-128537500D03*
%TD*%
D18*
%TO.C,C602*%
X58500000Y-112500000D03*
D23*
X56000000Y-112500000D03*
%TD*%
D18*
%TO.C,C601*%
X75000000Y-123500000D03*
D23*
X72500000Y-123500000D03*
%TD*%
D18*
%TO.C,C502*%
X87499999Y-112562501D03*
D23*
X84999999Y-112562501D03*
%TD*%
D18*
%TO.C,C501*%
X103999999Y-123562501D03*
D23*
X101499999Y-123562501D03*
%TD*%
D18*
%TO.C,C402*%
X116499999Y-112525000D03*
D23*
X113999999Y-112525000D03*
%TD*%
D18*
%TO.C,C401*%
X132999999Y-123525000D03*
D23*
X130499999Y-123525000D03*
%TD*%
D18*
%TO.C,C302*%
X145499999Y-112500000D03*
D23*
X142999999Y-112500000D03*
%TD*%
D18*
%TO.C,C301*%
X161999999Y-123500000D03*
D23*
X159499999Y-123500000D03*
%TD*%
D18*
%TO.C,C202*%
X174499998Y-112537500D03*
D23*
X171999998Y-112537500D03*
%TD*%
D18*
%TO.C,C201*%
X190999998Y-123537500D03*
D23*
X188499998Y-123537500D03*
%TD*%
D15*
%TO.C,5VINPUT101*%
X45000000Y-126580000D03*
D16*
X45000000Y-121500000D03*
%TD*%
D15*
%TO.C,24VINPUT101*%
X45500000Y-107580000D03*
D16*
X45500000Y-102500000D03*
%TD*%
M02*
