  0
SECTION
  2
HEADER
  9
$ANGBASE
  50
0.0
  9
$ANGDIR
  70
1
  9
$MEASUREMENT
  70
0
  0
ENDSEC
  0
SECTION
  2
TABLES
  0
TABLE
  2
LTYPE
  70
4
  0
LTYPE
  5
40F
  2
CONTINUOUS
  70
0
  3
Solid line
  72
65
  73
0
  40
0.0
  0
LTYPE
  5
410
  2
DASHDOT
 70
0
  3
Dash Dot ____ _ ____ _
 72
65
 73
4
 40
2.0
 49
1.25
 49
-0.25
 49
0.25
 49
-0.25
  0
LTYPE
  5
411
  2
DASHED
 70
0
  3
Dashed __ __ __ __ __
 72
65
 73
2
 40
0.75
 49
0.5
 49
-0.25
  0
LTYPE
  5
43B
  2
DOTTED
 70
0
  3
Dotted .  .  .  .
 72
65
 73
2
 40
0.2
 49
0.0
 49
-0.2
  0
ENDTAB
  0
TABLE
  2
STYLE
  70
4
  0
STYLE
  2
KICAD
  70
0
  40
0
  41
1
  42
1
  50
0
  71
0
  3
isocp.shx
  0
STYLE
  2
KICADB
  70
0
  40
0
  41
1
  42
1
  50
0
  71
0
  3
isocp.shx
  0
STYLE
  2
KICADI
  70
0
  40
0
  41
1
  42
1
  50
15
  71
0
  3
isocp.shx
  0
STYLE
  2
KICADBI
  70
0
  40
0
  41
1
  42
1
  50
15
  71
0
  3
isocp.shx
  0
ENDTAB
  0
TABLE
  2
LAYER
  70
1
  0
LAYER
  2
BLACK
  70
0
  62
7
  6
CONTINUOUS
  0
ENDTAB
  0
ENDSEC
  0
SECTION
  2
ENTITIES
0
LINE
8
BLACK
6
CONTINUOUS
10
1.73671
20
-5.90338
11
1.73659
21
-5.90336
0
LINE
8
BLACK
6
CONTINUOUS
10
1.73659
20
-5.90336
11
1.73657
21
-5.90336
0
LINE
8
BLACK
6
CONTINUOUS
10
1.73657
20
-5.90336
11
1.73653
21
-5.90335
0
LINE
8
BLACK
6
CONTINUOUS
10
1.73653
20
-5.90335
11
1.70278
21
-5.89412
0
LINE
8
BLACK
6
CONTINUOUS
10
1.70278
20
-5.89412
11
1.70267
21
-5.89408
0
LINE
8
BLACK
6
CONTINUOUS
10
1.70267
20
-5.89408
11
1.70264
21
-5.89406
0
LINE
8
BLACK
6
CONTINUOUS
10
1.70264
20
-5.89406
11
1.70261
21
-5.89405
0
LINE
8
BLACK
6
CONTINUOUS
10
1.70261
20
-5.89405
11
1.67102
21
-5.87899
0
LINE
8
BLACK
6
CONTINUOUS
10
1.67102
20
-5.87899
11
1.67093
21
-5.87893
0
LINE
8
BLACK
6
CONTINUOUS
10
1.67093
20
-5.87893
11
1.6709
21
-5.87891
0
LINE
8
BLACK
6
CONTINUOUS
10
1.6709
20
-5.87891
11
1.67087
21
-5.8789
0
LINE
8
BLACK
6
CONTINUOUS
10
1.67087
20
-5.8789
11
1.64245
21
-5.85848
0
LINE
8
BLACK
6
CONTINUOUS
10
1.64245
20
-5.85848
11
1.64237
21
-5.8584
0
LINE
8
BLACK
6
CONTINUOUS
10
1.64237
20
-5.8584
11
1.64234
21
-5.85838
0
LINE
8
BLACK
6
CONTINUOUS
10
1.64234
20
-5.85838
11
1.64232
21
-5.85836
0
LINE
8
BLACK
6
CONTINUOUS
10
1.64232
20
-5.85836
11
1.61797
21
-5.83323
0
LINE
8
BLACK
6
CONTINUOUS
10
1.61797
20
-5.83323
11
1.61789
21
-5.83314
0
LINE
8
BLACK
6
CONTINUOUS
10
1.61789
20
-5.83314
11
1.61787
21
-5.83312
0
LINE
8
BLACK
6
CONTINUOUS
10
1.61787
20
-5.83312
11
1.61786
21
-5.83309
0
LINE
8
BLACK
6
CONTINUOUS
10
1.61786
20
-5.83309
11
1.59834
21
-5.80404
0
LINE
8
BLACK
6
CONTINUOUS
10
1.59834
20
-5.80404
11
1.59828
21
-5.80395
0
LINE
8
BLACK
6
CONTINUOUS
10
1.59828
20
-5.80395
11
1.59827
21
-5.80392
0
LINE
8
BLACK
6
CONTINUOUS
10
1.59827
20
-5.80392
11
1.59825
21
-5.80389
0
LINE
8
BLACK
6
CONTINUOUS
10
1.59825
20
-5.80389
11
1.58418
21
-5.77184
0
LINE
8
BLACK
6
CONTINUOUS
10
1.58418
20
-5.77184
11
1.58414
21
-5.77174
0
LINE
8
BLACK
6
CONTINUOUS
10
1.58414
20
-5.77174
11
1.58414
21
-5.77171
0
LINE
8
BLACK
6
CONTINUOUS
10
1.58414
20
-5.77171
11
1.58413
21
-5.77168
0
LINE
8
BLACK
6
CONTINUOUS
10
1.58413
20
-5.77168
11
1.57596
21
-5.73765
0
LINE
8
BLACK
6
CONTINUOUS
10
1.57596
20
-5.73765
11
1.57594
21
-5.73754
0
LINE
8
BLACK
6
CONTINUOUS
10
1.57594
20
-5.73754
11
1.57594
21
-5.73751
0
LINE
8
BLACK
6
CONTINUOUS
10
1.57594
20
-5.73751
11
1.57593
21
-5.73749
0
LINE
8
BLACK
6
CONTINUOUS
10
1.57593
20
-5.73749
11
1.57382
21
-5.70874
0
LINE
8
BLACK
6
CONTINUOUS
10
1.57382
20
-5.70874
11
1.57382
21
-5.70871
0
LINE
8
BLACK
6
CONTINUOUS
10
1.57382
20
-5.70871
11
1.57382
21
-3.54326
0
LINE
8
BLACK
6
CONTINUOUS
10
1.57382
20
-3.54326
11
1.57382
21
-3.54322
0
LINE
8
BLACK
6
CONTINUOUS
10
1.57382
20
-3.54322
11
1.57693
21
-3.50836
0
LINE
8
BLACK
6
CONTINUOUS
10
1.57693
20
-3.50836
11
1.57695
21
-3.50825
0
LINE
8
BLACK
6
CONTINUOUS
10
1.57695
20
-3.50825
11
1.57696
21
-3.50822
0
LINE
8
BLACK
6
CONTINUOUS
10
1.57696
20
-3.50822
11
1.57696
21
-3.50819
0
LINE
8
BLACK
6
CONTINUOUS
10
1.57696
20
-3.50819
11
1.5862
21
-3.47443
0
LINE
8
BLACK
6
CONTINUOUS
10
1.5862
20
-3.47443
11
1.58624
21
-3.47432
0
LINE
8
BLACK
6
CONTINUOUS
10
1.58624
20
-3.47432
11
1.58625
21
-3.4743
0
LINE
8
BLACK
6
CONTINUOUS
10
1.58625
20
-3.4743
11
1.58626
21
-3.47427
0
LINE
8
BLACK
6
CONTINUOUS
10
1.58626
20
-3.47427
11
1.60133
21
-3.44268
0
LINE
8
BLACK
6
CONTINUOUS
10
1.60133
20
-3.44268
11
1.60138
21
-3.44258
0
LINE
8
BLACK
6
CONTINUOUS
10
1.60138
20
-3.44258
11
1.6014
21
-3.44255
0
LINE
8
BLACK
6
CONTINUOUS
10
1.6014
20
-3.44255
11
1.60142
21
-3.44253
0
LINE
8
BLACK
6
CONTINUOUS
10
1.60142
20
-3.44253
11
1.62184
21
-3.41411
0
LINE
8
BLACK
6
CONTINUOUS
10
1.62184
20
-3.41411
11
1.62184
21
-3.41411
0
LINE
8
BLACK
6
CONTINUOUS
10
1.62184
20
-3.41411
11
1.62184
21
-3.41411
0
LINE
8
BLACK
6
CONTINUOUS
10
1.62184
20
-3.41411
11
1.62191
21
-3.41402
0
LINE
8
BLACK
6
CONTINUOUS
10
1.62191
20
-3.41402
11
1.62193
21
-3.414
0
LINE
8
BLACK
6
CONTINUOUS
10
1.62193
20
-3.414
11
1.62195
21
-3.41397
0
LINE
8
BLACK
6
CONTINUOUS
10
1.62195
20
-3.41397
11
1.64709
21
-3.38962
0
LINE
8
BLACK
6
CONTINUOUS
10
1.64709
20
-3.38962
11
1.64717
21
-3.38954
0
LINE
8
BLACK
6
CONTINUOUS
10
1.64717
20
-3.38954
11
1.6472
21
-3.38953
0
LINE
8
BLACK
6
CONTINUOUS
10
1.6472
20
-3.38953
11
1.64722
21
-3.38951
0
LINE
8
BLACK
6
CONTINUOUS
10
1.64722
20
-3.38951
11
1.67627
21
-3.36999
0
LINE
8
BLACK
6
CONTINUOUS
10
1.67627
20
-3.36999
11
1.67637
21
-3.36993
0
LINE
8
BLACK
6
CONTINUOUS
10
1.67637
20
-3.36993
11
1.6764
21
-3.36992
0
LINE
8
BLACK
6
CONTINUOUS
10
1.6764
20
-3.36992
11
1.67642
21
-3.3699
0
LINE
8
BLACK
6
CONTINUOUS
10
1.67642
20
-3.3699
11
1.70847
21
-3.35584
0
LINE
8
BLACK
6
CONTINUOUS
10
1.70847
20
-3.35584
11
1.70847
21
-3.35584
0
LINE
8
BLACK
6
CONTINUOUS
10
1.70847
20
-3.35584
11
1.70847
21
-3.35584
0
LINE
8
BLACK
6
CONTINUOUS
10
1.70847
20
-3.35584
11
1.70858
21
-3.3558
0
LINE
8
BLACK
6
CONTINUOUS
10
1.70858
20
-3.3558
11
1.70861
21
-3.35579
0
LINE
8
BLACK
6
CONTINUOUS
10
1.70861
20
-3.35579
11
1.70864
21
-3.35578
0
LINE
8
BLACK
6
CONTINUOUS
10
1.70864
20
-3.35578
11
1.74267
21
-3.34761
0
LINE
8
BLACK
6
CONTINUOUS
10
1.74267
20
-3.34761
11
1.74278
21
-3.34759
0
LINE
8
BLACK
6
CONTINUOUS
10
1.74278
20
-3.34759
11
1.7428
21
-3.34759
0
LINE
8
BLACK
6
CONTINUOUS
10
1.7428
20
-3.34759
11
1.74282
21
-3.34759
0
LINE
8
BLACK
6
CONTINUOUS
10
1.74282
20
-3.34759
11
1.77157
21
-3.34548
0
LINE
8
BLACK
6
CONTINUOUS
10
1.77157
20
-3.34548
11
1.77161
21
-3.34547
0
LINE
8
BLACK
6
CONTINUOUS
10
1.77161
20
-3.34547
11
7.87406
21
-3.34547
0
LINE
8
BLACK
6
CONTINUOUS
10
7.87406
20
-3.34547
11
7.8741
21
-3.34548
0
LINE
8
BLACK
6
CONTINUOUS
10
7.8741
20
-3.34548
11
7.90896
21
-3.34859
0
LINE
8
BLACK
6
CONTINUOUS
10
7.90896
20
-3.34859
11
7.90896
21
-3.34859
0
LINE
8
BLACK
6
CONTINUOUS
10
7.90896
20
-3.34859
11
7.90896
21
-3.34859
0
LINE
8
BLACK
6
CONTINUOUS
10
7.90896
20
-3.34859
11
7.90907
21
-3.3486
0
LINE
8
BLACK
6
CONTINUOUS
10
7.90907
20
-3.3486
11
7.9091
21
-3.34861
0
LINE
8
BLACK
6
CONTINUOUS
10
7.9091
20
-3.34861
11
7.90913
21
-3.34862
0
LINE
8
BLACK
6
CONTINUOUS
10
7.90913
20
-3.34862
11
7.94289
21
-3.35785
0
LINE
8
BLACK
6
CONTINUOUS
10
7.94289
20
-3.35785
11
7.94289
21
-3.35785
0
LINE
8
BLACK
6
CONTINUOUS
10
7.94289
20
-3.35785
11
7.94289
21
-3.35785
0
LINE
8
BLACK
6
CONTINUOUS
10
7.94289
20
-3.35785
11
7.943
21
-3.35789
0
LINE
8
BLACK
6
CONTINUOUS
10
7.943
20
-3.35789
11
7.94303
21
-3.3579
0
LINE
8
BLACK
6
CONTINUOUS
10
7.94303
20
-3.3579
11
7.94306
21
-3.35791
0
LINE
8
BLACK
6
CONTINUOUS
10
7.94306
20
-3.35791
11
7.97464
21
-3.37298
0
LINE
8
BLACK
6
CONTINUOUS
10
7.97464
20
-3.37298
11
7.97474
21
-3.37304
0
LINE
8
BLACK
6
CONTINUOUS
10
7.97474
20
-3.37304
11
7.97477
21
-3.37305
0
LINE
8
BLACK
6
CONTINUOUS
10
7.97477
20
-3.37305
11
7.9748
21
-3.37307
0
LINE
8
BLACK
6
CONTINUOUS
10
7.9748
20
-3.37307
11
8.00322
21
-3.39349
0
LINE
8
BLACK
6
CONTINUOUS
10
8.00322
20
-3.39349
11
8.00322
21
-3.39349
0
LINE
8
BLACK
6
CONTINUOUS
10
8.00322
20
-3.39349
11
8.00322
21
-3.39349
0
LINE
8
BLACK
6
CONTINUOUS
10
8.00322
20
-3.39349
11
8.0033
21
-3.39356
0
LINE
8
BLACK
6
CONTINUOUS
10
8.0033
20
-3.39356
11
8.00333
21
-3.39359
0
LINE
8
BLACK
6
CONTINUOUS
10
8.00333
20
-3.39359
11
8.00335
21
-3.39361
0
LINE
8
BLACK
6
CONTINUOUS
10
8.00335
20
-3.39361
11
8.0277
21
-3.41874
0
LINE
8
BLACK
6
CONTINUOUS
10
8.0277
20
-3.41874
11
8.02778
21
-3.41883
0
LINE
8
BLACK
6
CONTINUOUS
10
8.02778
20
-3.41883
11
8.02779
21
-3.41885
0
LINE
8
BLACK
6
CONTINUOUS
10
8.02779
20
-3.41885
11
8.02781
21
-3.41888
0
LINE
8
BLACK
6
CONTINUOUS
10
8.02781
20
-3.41888
11
8.04733
21
-3.44792
0
LINE
8
BLACK
6
CONTINUOUS
10
8.04733
20
-3.44792
11
8.04739
21
-3.44802
0
LINE
8
BLACK
6
CONTINUOUS
10
8.04739
20
-3.44802
11
8.0474
21
-3.44805
0
LINE
8
BLACK
6
CONTINUOUS
10
8.0474
20
-3.44805
11
8.04742
21
-3.44808
0
LINE
8
BLACK
6
CONTINUOUS
10
8.04742
20
-3.44808
11
8.06149
21
-3.48012
0
LINE
8
BLACK
6
CONTINUOUS
10
8.06149
20
-3.48012
11
8.06149
21
-3.48012
0
LINE
8
BLACK
6
CONTINUOUS
10
8.06149
20
-3.48012
11
8.06149
21
-3.48013
0
LINE
8
BLACK
6
CONTINUOUS
10
8.06149
20
-3.48013
11
8.06153
21
-3.48023
0
LINE
8
BLACK
6
CONTINUOUS
10
8.06153
20
-3.48023
11
8.06153
21
-3.48026
0
LINE
8
BLACK
6
CONTINUOUS
10
8.06153
20
-3.48026
11
8.06154
21
-3.48029
0
LINE
8
BLACK
6
CONTINUOUS
10
8.06154
20
-3.48029
11
8.06971
21
-3.51432
0
LINE
8
BLACK
6
CONTINUOUS
10
8.06971
20
-3.51432
11
8.06973
21
-3.51443
0
LINE
8
BLACK
6
CONTINUOUS
10
8.06973
20
-3.51443
11
8.06973
21
-3.51446
0
LINE
8
BLACK
6
CONTINUOUS
10
8.06973
20
-3.51446
11
8.06974
21
-3.51448
0
LINE
8
BLACK
6
CONTINUOUS
10
8.06974
20
-3.51448
11
8.07185
21
-3.54322
0
LINE
8
BLACK
6
CONTINUOUS
10
8.07185
20
-3.54322
11
8.07185
21
-3.54326
0
LINE
8
BLACK
6
CONTINUOUS
10
8.07185
20
-3.54326
11
8.07185
21
-5.70871
0
LINE
8
BLACK
6
CONTINUOUS
10
8.07185
20
-5.70871
11
8.07185
21
-5.70875
0
LINE
8
BLACK
6
CONTINUOUS
10
8.07185
20
-5.70875
11
8.07185
21
-5.70875
0
LINE
8
BLACK
6
CONTINUOUS
10
8.07185
20
-5.70875
11
8.06874
21
-5.74361
0
LINE
8
BLACK
6
CONTINUOUS
10
8.06874
20
-5.74361
11
8.06872
21
-5.74372
0
LINE
8
BLACK
6
CONTINUOUS
10
8.06872
20
-5.74372
11
8.06871
21
-5.74375
0
LINE
8
BLACK
6
CONTINUOUS
10
8.06871
20
-5.74375
11
8.0687
21
-5.74378
0
LINE
8
BLACK
6
CONTINUOUS
10
8.0687
20
-5.74378
11
8.05947
21
-5.77754
0
LINE
8
BLACK
6
CONTINUOUS
10
8.05947
20
-5.77754
11
8.05943
21
-5.77765
0
LINE
8
BLACK
6
CONTINUOUS
10
8.05943
20
-5.77765
11
8.05942
21
-5.77767
0
LINE
8
BLACK
6
CONTINUOUS
10
8.05942
20
-5.77767
11
8.05941
21
-5.7777
0
LINE
8
BLACK
6
CONTINUOUS
10
8.05941
20
-5.7777
11
8.04434
21
-5.80929
0
LINE
8
BLACK
6
CONTINUOUS
10
8.04434
20
-5.80929
11
8.04429
21
-5.80939
0
LINE
8
BLACK
6
CONTINUOUS
10
8.04429
20
-5.80939
11
8.04427
21
-5.80941
0
LINE
8
BLACK
6
CONTINUOUS
10
8.04427
20
-5.80941
11
8.04425
21
-5.80944
0
LINE
8
BLACK
6
CONTINUOUS
10
8.04425
20
-5.80944
11
8.02383
21
-5.83786
0
LINE
8
BLACK
6
CONTINUOUS
10
8.02383
20
-5.83786
11
8.02376
21
-5.83795
0
LINE
8
BLACK
6
CONTINUOUS
10
8.02376
20
-5.83795
11
8.02374
21
-5.83797
0
LINE
8
BLACK
6
CONTINUOUS
10
8.02374
20
-5.83797
11
8.02372
21
-5.83799
0
LINE
8
BLACK
6
CONTINUOUS
10
8.02372
20
-5.83799
11
7.99858
21
-5.86235
0
LINE
8
BLACK
6
CONTINUOUS
10
7.99858
20
-5.86235
11
7.9985
21
-5.86242
0
LINE
8
BLACK
6
CONTINUOUS
10
7.9985
20
-5.86242
11
7.99847
21
-5.86244
0
LINE
8
BLACK
6
CONTINUOUS
10
7.99847
20
-5.86244
11
7.99845
21
-5.86246
0
LINE
8
BLACK
6
CONTINUOUS
10
7.99845
20
-5.86246
11
7.9694
21
-5.88198
0
LINE
8
BLACK
6
CONTINUOUS
10
7.9694
20
-5.88198
11
7.9694
21
-5.88198
0
LINE
8
BLACK
6
CONTINUOUS
10
7.9694
20
-5.88198
11
7.9694
21
-5.88198
0
LINE
8
BLACK
6
CONTINUOUS
10
7.9694
20
-5.88198
11
7.9693
21
-5.88204
0
LINE
8
BLACK
6
CONTINUOUS
10
7.9693
20
-5.88204
11
7.96927
21
-5.88205
0
LINE
8
BLACK
6
CONTINUOUS
10
7.96927
20
-5.88205
11
7.96924
21
-5.88206
0
LINE
8
BLACK
6
CONTINUOUS
10
7.96924
20
-5.88206
11
7.9372
21
-5.89613
0
LINE
8
BLACK
6
CONTINUOUS
10
7.9372
20
-5.89613
11
7.93709
21
-5.89617
0
LINE
8
BLACK
6
CONTINUOUS
10
7.93709
20
-5.89617
11
7.93706
21
-5.89618
0
LINE
8
BLACK
6
CONTINUOUS
10
7.93706
20
-5.89618
11
7.93703
21
-5.89619
0
LINE
8
BLACK
6
CONTINUOUS
10
7.93703
20
-5.89619
11
7.903
21
-5.90436
0
LINE
8
BLACK
6
CONTINUOUS
10
7.903
20
-5.90436
11
7.90289
21
-5.90438
0
LINE
8
BLACK
6
CONTINUOUS
10
7.90289
20
-5.90438
11
7.90287
21
-5.90438
0
LINE
8
BLACK
6
CONTINUOUS
10
7.90287
20
-5.90438
11
7.90284
21
-5.90438
0
LINE
8
BLACK
6
CONTINUOUS
10
7.90284
20
-5.90438
11
7.8741
21
-5.90649
0
LINE
8
BLACK
6
CONTINUOUS
10
7.8741
20
-5.90649
11
7.87406
21
-5.9065
0
LINE
8
BLACK
6
CONTINUOUS
10
7.87406
20
-5.9065
11
1.77161
21
-5.9065
0
LINE
8
BLACK
6
CONTINUOUS
10
1.77161
20
-5.9065
11
1.77157
21
-5.90649
0
LINE
8
BLACK
6
CONTINUOUS
10
1.77157
20
-5.90649
11
1.77157
21
-5.90649
0
LINE
8
BLACK
6
CONTINUOUS
10
1.77157
20
-5.90649
11
1.73671
21
-5.90338
0
LINE
8
BLACK
6
CONTINUOUS
10
1.73671
20
-5.90338
11
1.73671
21
-5.90338
0
LINE
8
BLACK
6
CONTINUOUS
10
1.73671
20
-5.90338
11
1.73671
21
-5.90338
0
LINE
8
BLACK
6
CONTINUOUS
10
1.77169
20
-3.34744
11
1.74305
21
-3.34954
0
LINE
8
BLACK
6
CONTINUOUS
10
1.74305
20
-3.34954
11
1.70918
21
-3.35768
0
LINE
8
BLACK
6
CONTINUOUS
10
1.70918
20
-3.35768
11
1.6773
21
-3.37167
0
LINE
8
BLACK
6
CONTINUOUS
10
1.6773
20
-3.37167
11
1.64839
21
-3.39109
0
LINE
8
BLACK
6
CONTINUOUS
10
1.64839
20
-3.39109
11
1.62339
21
-3.41533
0
LINE
8
BLACK
6
CONTINUOUS
10
1.62339
20
-3.41533
11
1.60307
21
-3.44361
0
LINE
8
BLACK
6
CONTINUOUS
10
1.60307
20
-3.44361
11
1.58808
21
-3.47504
0
LINE
8
BLACK
6
CONTINUOUS
10
1.58808
20
-3.47504
11
1.57889
21
-3.50862
0
LINE
8
BLACK
6
CONTINUOUS
10
1.57889
20
-3.50862
11
1.57579
21
-3.54335
0
LINE
8
BLACK
6
CONTINUOUS
10
1.57579
20
-3.54335
11
1.57579
21
-5.70863
0
LINE
8
BLACK
6
CONTINUOUS
10
1.57579
20
-5.70863
11
1.57789
21
-5.73727
0
LINE
8
BLACK
6
CONTINUOUS
10
1.57789
20
-5.73727
11
1.58602
21
-5.77113
0
LINE
8
BLACK
6
CONTINUOUS
10
1.58602
20
-5.77113
11
1.60002
21
-5.80302
0
LINE
8
BLACK
6
CONTINUOUS
10
1.60002
20
-5.80302
11
1.61944
21
-5.83192
0
LINE
8
BLACK
6
CONTINUOUS
10
1.61944
20
-5.83192
11
1.64367
21
-5.85693
0
LINE
8
BLACK
6
CONTINUOUS
10
1.64367
20
-5.85693
11
1.67195
21
-5.87725
0
LINE
8
BLACK
6
CONTINUOUS
10
1.67195
20
-5.87725
11
1.70338
21
-5.89224
0
LINE
8
BLACK
6
CONTINUOUS
10
1.70338
20
-5.89224
11
1.73697
21
-5.90143
0
LINE
8
BLACK
6
CONTINUOUS
10
1.73697
20
-5.90143
11
1.7717
21
-5.90453
0
LINE
8
BLACK
6
CONTINUOUS
10
1.7717
20
-5.90453
11
7.87398
21
-5.90453
0
LINE
8
BLACK
6
CONTINUOUS
10
7.87398
20
-5.90453
11
7.90262
21
-5.90242
0
LINE
8
BLACK
6
CONTINUOUS
10
7.90262
20
-5.90242
11
7.93649
21
-5.89429
0
LINE
8
BLACK
6
CONTINUOUS
10
7.93649
20
-5.89429
11
7.96837
21
-5.8803
0
LINE
8
BLACK
6
CONTINUOUS
10
7.96837
20
-5.8803
11
7.99728
21
-5.86087
0
LINE
8
BLACK
6
CONTINUOUS
10
7.99728
20
-5.86087
11
8.02228
21
-5.83664
0
LINE
8
BLACK
6
CONTINUOUS
10
8.02228
20
-5.83664
11
8.0426
21
-5.80836
0
LINE
8
BLACK
6
CONTINUOUS
10
8.0426
20
-5.80836
11
8.05759
21
-5.77693
0
LINE
8
BLACK
6
CONTINUOUS
10
8.05759
20
-5.77693
11
8.06678
21
-5.74335
0
LINE
8
BLACK
6
CONTINUOUS
10
8.06678
20
-5.74335
11
8.06988
21
-5.70862
0
LINE
8
BLACK
6
CONTINUOUS
10
8.06988
20
-5.70862
11
8.06988
21
-3.54334
0
LINE
8
BLACK
6
CONTINUOUS
10
8.06988
20
-3.54334
11
8.06778
21
-3.5147
0
LINE
8
BLACK
6
CONTINUOUS
10
8.06778
20
-3.5147
11
8.05965
21
-3.48084
0
LINE
8
BLACK
6
CONTINUOUS
10
8.05965
20
-3.48084
11
8.04565
21
-3.44895
0
LINE
8
BLACK
6
CONTINUOUS
10
8.04565
20
-3.44895
11
8.02623
21
-3.42005
0
LINE
8
BLACK
6
CONTINUOUS
10
8.02623
20
-3.42005
11
8.002
21
-3.39504
0
LINE
8
BLACK
6
CONTINUOUS
10
8.002
20
-3.39504
11
7.97372
21
-3.37472
0
LINE
8
BLACK
6
CONTINUOUS
10
7.97372
20
-3.37472
11
7.94229
21
-3.35973
0
LINE
8
BLACK
6
CONTINUOUS
10
7.94229
20
-3.35973
11
7.9087
21
-3.35054
0
LINE
8
BLACK
6
CONTINUOUS
10
7.9087
20
-3.35054
11
7.87397
21
-3.34744
0
LINE
8
BLACK
6
CONTINUOUS
10
7.87397
20
-3.34744
11
1.77169
21
-3.34744
  0
ENDSEC
  0
EOF
