  0
SECTION
  2
HEADER
  9
$ANGBASE
  50
0.0
  9
$ANGDIR
  70
1
  9
$MEASUREMENT
  70
0
  0
ENDSEC
  0
SECTION
  2
TABLES
  0
TABLE
  2
LTYPE
  70
4
  0
LTYPE
  5
40F
  2
CONTINUOUS
  70
0
  3
Solid line
  72
65
  73
0
  40
0.0
  0
LTYPE
  5
410
  2
DASHDOT
 70
0
  3
Dash Dot ____ _ ____ _
 72
65
 73
4
 40
2.0
 49
1.25
 49
-0.25
 49
0.25
 49
-0.25
  0
LTYPE
  5
411
  2
DASHED
 70
0
  3
Dashed __ __ __ __ __
 72
65
 73
2
 40
0.75
 49
0.5
 49
-0.25
  0
LTYPE
  5
43B
  2
DOTTED
 70
0
  3
Dotted .  .  .  .
 72
65
 73
2
 40
0.2
 49
0.0
 49
-0.2
  0
ENDTAB
  0
TABLE
  2
STYLE
  70
4
  0
STYLE
  2
KICAD
  70
0
  40
0
  41
1
  42
1
  50
0
  71
0
  3
isocp.shx
  0
STYLE
  2
KICADB
  70
0
  40
0
  41
1
  42
1
  50
0
  71
0
  3
isocp.shx
  0
STYLE
  2
KICADI
  70
0
  40
0
  41
1
  42
1
  50
15
  71
0
  3
isocp.shx
  0
STYLE
  2
KICADBI
  70
0
  40
0
  41
1
  42
1
  50
15
  71
0
  3
isocp.shx
  0
ENDTAB
  0
TABLE
  2
LAYER
  70
1
  0
LAYER
  2
BLACK
  70
0
  62
7
  6
CONTINUOUS
  0
ENDTAB
  0
ENDSEC
  0
SECTION
  2
ENTITIES
0
LINE
8
BLACK
6
CONTINUOUS
10
1.75532
20
-5.90582
11
1.73909
21
-5.9038
0
LINE
8
BLACK
6
CONTINUOUS
10
1.73909
20
-5.9038
11
1.72309
21
-5.90044
0
LINE
8
BLACK
6
CONTINUOUS
10
1.72309
20
-5.90044
11
1.70742
21
-5.89578
0
LINE
8
BLACK
6
CONTINUOUS
10
1.70742
20
-5.89578
11
1.69218
21
-5.88983
0
LINE
8
BLACK
6
CONTINUOUS
10
1.69218
20
-5.88983
11
1.67749
21
-5.88265
0
LINE
8
BLACK
6
CONTINUOUS
10
1.67749
20
-5.88265
11
1.66345
21
-5.87428
0
LINE
8
BLACK
6
CONTINUOUS
10
1.66345
20
-5.87428
11
1.65014
21
-5.86478
0
LINE
8
BLACK
6
CONTINUOUS
10
1.65014
20
-5.86478
11
1.63766
21
-5.85421
0
LINE
8
BLACK
6
CONTINUOUS
10
1.63766
20
-5.85421
11
1.6261
21
-5.84265
0
LINE
8
BLACK
6
CONTINUOUS
10
1.6261
20
-5.84265
11
1.61553
21
-5.83017
0
LINE
8
BLACK
6
CONTINUOUS
10
1.61553
20
-5.83017
11
1.60603
21
-5.81687
0
LINE
8
BLACK
6
CONTINUOUS
10
1.60603
20
-5.81687
11
1.59766
21
-5.80282
0
LINE
8
BLACK
6
CONTINUOUS
10
1.59766
20
-5.80282
11
1.59048
21
-5.78813
0
LINE
8
BLACK
6
CONTINUOUS
10
1.59048
20
-5.78813
11
1.58454
21
-5.7729
0
LINE
8
BLACK
6
CONTINUOUS
10
1.58454
20
-5.7729
11
1.57987
21
-5.75723
0
LINE
8
BLACK
6
CONTINUOUS
10
1.57987
20
-5.75723
11
1.57652
21
-5.74122
0
LINE
8
BLACK
6
CONTINUOUS
10
1.57652
20
-5.74122
11
1.57449
21
-5.725
0
LINE
8
BLACK
6
CONTINUOUS
10
1.57449
20
-5.725
11
1.57382
21
-5.70866
0
LINE
8
BLACK
6
CONTINUOUS
10
1.57382
20
-5.70866
11
1.57382
21
-3.54331
0
LINE
8
BLACK
6
CONTINUOUS
10
1.57382
20
-3.54331
11
1.57449
21
-3.52697
0
LINE
8
BLACK
6
CONTINUOUS
10
1.57449
20
-3.52697
11
1.57652
21
-3.51074
0
LINE
8
BLACK
6
CONTINUOUS
10
1.57652
20
-3.51074
11
1.57987
21
-3.49474
0
LINE
8
BLACK
6
CONTINUOUS
10
1.57987
20
-3.49474
11
1.58454
21
-3.47907
0
LINE
8
BLACK
6
CONTINUOUS
10
1.58454
20
-3.47907
11
1.59048
21
-3.46384
0
LINE
8
BLACK
6
CONTINUOUS
10
1.59048
20
-3.46384
11
1.59766
21
-3.44915
0
LINE
8
BLACK
6
CONTINUOUS
10
1.59766
20
-3.44915
11
1.60603
21
-3.4351
0
LINE
8
BLACK
6
CONTINUOUS
10
1.60603
20
-3.4351
11
1.61553
21
-3.42179
0
LINE
8
BLACK
6
CONTINUOUS
10
1.61553
20
-3.42179
11
1.6261
21
-3.40932
0
LINE
8
BLACK
6
CONTINUOUS
10
1.6261
20
-3.40932
11
1.63766
21
-3.39776
0
LINE
8
BLACK
6
CONTINUOUS
10
1.63766
20
-3.39776
11
1.65014
21
-3.38719
0
LINE
8
BLACK
6
CONTINUOUS
10
1.65014
20
-3.38719
11
1.66345
21
-3.37769
0
LINE
8
BLACK
6
CONTINUOUS
10
1.66345
20
-3.37769
11
1.67749
21
-3.36932
0
LINE
8
BLACK
6
CONTINUOUS
10
1.67749
20
-3.36932
11
1.69218
21
-3.36214
0
LINE
8
BLACK
6
CONTINUOUS
10
1.69218
20
-3.36214
11
1.70742
21
-3.35619
0
LINE
8
BLACK
6
CONTINUOUS
10
1.70742
20
-3.35619
11
1.72309
21
-3.35153
0
LINE
8
BLACK
6
CONTINUOUS
10
1.72309
20
-3.35153
11
1.73909
21
-3.34817
0
LINE
8
BLACK
6
CONTINUOUS
10
1.73909
20
-3.34817
11
1.75532
21
-3.34615
0
LINE
8
BLACK
6
CONTINUOUS
10
1.75532
20
-3.34615
11
1.77165
21
-3.34547
0
LINE
8
BLACK
6
CONTINUOUS
10
1.77165
20
-3.34547
11
7.87402
21
-3.34547
0
LINE
8
BLACK
6
CONTINUOUS
10
7.87402
20
-3.34547
11
7.89035
21
-3.34615
0
LINE
8
BLACK
6
CONTINUOUS
10
7.89035
20
-3.34615
11
7.90658
21
-3.34817
0
LINE
8
BLACK
6
CONTINUOUS
10
7.90658
20
-3.34817
11
7.92258
21
-3.35153
0
LINE
8
BLACK
6
CONTINUOUS
10
7.92258
20
-3.35153
11
7.93825
21
-3.35619
0
LINE
8
BLACK
6
CONTINUOUS
10
7.93825
20
-3.35619
11
7.95349
21
-3.36214
0
LINE
8
BLACK
6
CONTINUOUS
10
7.95349
20
-3.36214
11
7.96817
21
-3.36932
0
LINE
8
BLACK
6
CONTINUOUS
10
7.96817
20
-3.36932
11
7.98222
21
-3.37769
0
LINE
8
BLACK
6
CONTINUOUS
10
7.98222
20
-3.37769
11
7.99553
21
-3.38719
0
LINE
8
BLACK
6
CONTINUOUS
10
7.99553
20
-3.38719
11
8.00801
21
-3.39776
0
LINE
8
BLACK
6
CONTINUOUS
10
8.00801
20
-3.39776
11
8.01957
21
-3.40932
0
LINE
8
BLACK
6
CONTINUOUS
10
8.01957
20
-3.40932
11
8.03014
21
-3.42179
0
LINE
8
BLACK
6
CONTINUOUS
10
8.03014
20
-3.42179
11
8.03964
21
-3.4351
0
LINE
8
BLACK
6
CONTINUOUS
10
8.03964
20
-3.4351
11
8.04801
21
-3.44915
0
LINE
8
BLACK
6
CONTINUOUS
10
8.04801
20
-3.44915
11
8.05519
21
-3.46384
0
LINE
8
BLACK
6
CONTINUOUS
10
8.05519
20
-3.46384
11
8.06113
21
-3.47907
0
LINE
8
BLACK
6
CONTINUOUS
10
8.06113
20
-3.47907
11
8.0658
21
-3.49474
0
LINE
8
BLACK
6
CONTINUOUS
10
8.0658
20
-3.49474
11
8.06915
21
-3.51074
0
LINE
8
BLACK
6
CONTINUOUS
10
8.06915
20
-3.51074
11
8.07117
21
-3.52697
0
LINE
8
BLACK
6
CONTINUOUS
10
8.07117
20
-3.52697
11
8.07185
21
-3.54331
0
LINE
8
BLACK
6
CONTINUOUS
10
8.07185
20
-3.54331
11
8.07185
21
-5.70866
0
LINE
8
BLACK
6
CONTINUOUS
10
8.07185
20
-5.70866
11
8.07117
21
-5.725
0
LINE
8
BLACK
6
CONTINUOUS
10
8.07117
20
-5.725
11
8.06915
21
-5.74122
0
LINE
8
BLACK
6
CONTINUOUS
10
8.06915
20
-5.74122
11
8.0658
21
-5.75723
0
LINE
8
BLACK
6
CONTINUOUS
10
8.0658
20
-5.75723
11
8.06113
21
-5.7729
0
LINE
8
BLACK
6
CONTINUOUS
10
8.06113
20
-5.7729
11
8.05519
21
-5.78813
0
LINE
8
BLACK
6
CONTINUOUS
10
8.05519
20
-5.78813
11
8.04801
21
-5.80282
0
LINE
8
BLACK
6
CONTINUOUS
10
8.04801
20
-5.80282
11
8.03964
21
-5.81687
0
LINE
8
BLACK
6
CONTINUOUS
10
8.03964
20
-5.81687
11
8.03014
21
-5.83017
0
LINE
8
BLACK
6
CONTINUOUS
10
8.03014
20
-5.83017
11
8.01957
21
-5.84265
0
LINE
8
BLACK
6
CONTINUOUS
10
8.01957
20
-5.84265
11
8.00801
21
-5.85421
0
LINE
8
BLACK
6
CONTINUOUS
10
8.00801
20
-5.85421
11
7.99553
21
-5.86478
0
LINE
8
BLACK
6
CONTINUOUS
10
7.99553
20
-5.86478
11
7.98222
21
-5.87428
0
LINE
8
BLACK
6
CONTINUOUS
10
7.98222
20
-5.87428
11
7.96817
21
-5.88265
0
LINE
8
BLACK
6
CONTINUOUS
10
7.96817
20
-5.88265
11
7.95349
21
-5.88983
0
LINE
8
BLACK
6
CONTINUOUS
10
7.95349
20
-5.88983
11
7.93825
21
-5.89578
0
LINE
8
BLACK
6
CONTINUOUS
10
7.93825
20
-5.89578
11
7.92258
21
-5.90044
0
LINE
8
BLACK
6
CONTINUOUS
10
7.92258
20
-5.90044
11
7.90658
21
-5.9038
0
LINE
8
BLACK
6
CONTINUOUS
10
7.90658
20
-5.9038
11
7.89035
21
-5.90582
0
LINE
8
BLACK
6
CONTINUOUS
10
7.89035
20
-5.90582
11
7.87402
21
-5.9065
0
LINE
8
BLACK
6
CONTINUOUS
10
7.87402
20
-5.9065
11
1.77165
21
-5.9065
0
LINE
8
BLACK
6
CONTINUOUS
10
1.77165
20
-5.9065
11
1.75532
21
-5.90582
0
LINE
8
BLACK
6
CONTINUOUS
10
1.77129
20
-3.34729
11
1.75547
21
-3.34794
0
LINE
8
BLACK
6
CONTINUOUS
10
1.75547
20
-3.34794
11
1.73939
21
-3.34995
0
LINE
8
BLACK
6
CONTINUOUS
10
1.73939
20
-3.34995
11
1.72353
21
-3.35327
0
LINE
8
BLACK
6
CONTINUOUS
10
1.72353
20
-3.35327
11
1.708
21
-3.3579
0
LINE
8
BLACK
6
CONTINUOUS
10
1.708
20
-3.3579
11
1.69291
21
-3.36378
0
LINE
8
BLACK
6
CONTINUOUS
10
1.69291
20
-3.36378
11
1.67835
21
-3.3709
0
LINE
8
BLACK
6
CONTINUOUS
10
1.67835
20
-3.3709
11
1.66443
21
-3.37919
0
LINE
8
BLACK
6
CONTINUOUS
10
1.66443
20
-3.37919
11
1.65125
21
-3.38861
0
LINE
8
BLACK
6
CONTINUOUS
10
1.65125
20
-3.38861
11
1.63888
21
-3.39908
0
LINE
8
BLACK
6
CONTINUOUS
10
1.63888
20
-3.39908
11
1.62743
21
-3.41054
0
LINE
8
BLACK
6
CONTINUOUS
10
1.62743
20
-3.41054
11
1.61696
21
-3.4229
0
LINE
8
BLACK
6
CONTINUOUS
10
1.61696
20
-3.4229
11
1.60754
21
-3.43609
0
LINE
8
BLACK
6
CONTINUOUS
10
1.60754
20
-3.43609
11
1.59925
21
-3.45001
0
LINE
8
BLACK
6
CONTINUOUS
10
1.59925
20
-3.45001
11
1.59213
21
-3.46456
0
LINE
8
BLACK
6
CONTINUOUS
10
1.59213
20
-3.46456
11
1.58624
21
-3.47966
0
LINE
8
BLACK
6
CONTINUOUS
10
1.58624
20
-3.47966
11
1.58162
21
-3.49518
0
LINE
8
BLACK
6
CONTINUOUS
10
1.58162
20
-3.49518
11
1.57829
21
-3.51104
0
LINE
8
BLACK
6
CONTINUOUS
10
1.57829
20
-3.51104
11
1.57629
21
-3.52712
0
LINE
8
BLACK
6
CONTINUOUS
10
1.57629
20
-3.52712
11
1.57564
21
-3.54294
0
LINE
8
BLACK
6
CONTINUOUS
10
1.57564
20
-3.54294
11
1.57579
21
-3.54331
0
LINE
8
BLACK
6
CONTINUOUS
10
1.57579
20
-3.54331
11
1.57579
21
-5.70866
0
LINE
8
BLACK
6
CONTINUOUS
10
1.57579
20
-5.70866
11
1.57564
21
-5.70903
0
LINE
8
BLACK
6
CONTINUOUS
10
1.57564
20
-5.70903
11
1.57629
21
-5.72485
0
LINE
8
BLACK
6
CONTINUOUS
10
1.57629
20
-5.72485
11
1.57829
21
-5.74093
0
LINE
8
BLACK
6
CONTINUOUS
10
1.57829
20
-5.74093
11
1.58162
21
-5.75678
0
LINE
8
BLACK
6
CONTINUOUS
10
1.58162
20
-5.75678
11
1.58624
21
-5.77231
0
LINE
8
BLACK
6
CONTINUOUS
10
1.58624
20
-5.77231
11
1.59213
21
-5.78741
0
LINE
8
BLACK
6
CONTINUOUS
10
1.59213
20
-5.78741
11
1.59925
21
-5.80196
0
LINE
8
BLACK
6
CONTINUOUS
10
1.59925
20
-5.80196
11
1.60754
21
-5.81588
0
LINE
8
BLACK
6
CONTINUOUS
10
1.60754
20
-5.81588
11
1.61696
21
-5.82907
0
LINE
8
BLACK
6
CONTINUOUS
10
1.61696
20
-5.82907
11
1.62743
21
-5.84143
0
LINE
8
BLACK
6
CONTINUOUS
10
1.62743
20
-5.84143
11
1.63888
21
-5.85289
0
LINE
8
BLACK
6
CONTINUOUS
10
1.63888
20
-5.85289
11
1.65125
21
-5.86336
0
LINE
8
BLACK
6
CONTINUOUS
10
1.65125
20
-5.86336
11
1.66443
21
-5.87277
0
LINE
8
BLACK
6
CONTINUOUS
10
1.66443
20
-5.87277
11
1.67835
21
-5.88107
0
LINE
8
BLACK
6
CONTINUOUS
10
1.67835
20
-5.88107
11
1.69291
21
-5.88818
0
LINE
8
BLACK
6
CONTINUOUS
10
1.69291
20
-5.88818
11
1.708
21
-5.89407
0
LINE
8
BLACK
6
CONTINUOUS
10
1.708
20
-5.89407
11
1.72353
21
-5.8987
0
LINE
8
BLACK
6
CONTINUOUS
10
1.72353
20
-5.8987
11
1.73939
21
-5.90202
0
LINE
8
BLACK
6
CONTINUOUS
10
1.73939
20
-5.90202
11
1.75547
21
-5.90403
0
LINE
8
BLACK
6
CONTINUOUS
10
1.75547
20
-5.90403
11
1.77129
21
-5.90468
0
LINE
8
BLACK
6
CONTINUOUS
10
1.77129
20
-5.90468
11
1.77165
21
-5.90453
0
LINE
8
BLACK
6
CONTINUOUS
10
1.77165
20
-5.90453
11
7.87402
21
-5.90453
0
LINE
8
BLACK
6
CONTINUOUS
10
7.87402
20
-5.90453
11
7.87438
21
-5.90468
0
LINE
8
BLACK
6
CONTINUOUS
10
7.87438
20
-5.90468
11
7.8902
21
-5.90403
0
LINE
8
BLACK
6
CONTINUOUS
10
7.8902
20
-5.90403
11
7.90628
21
-5.90202
0
LINE
8
BLACK
6
CONTINUOUS
10
7.90628
20
-5.90202
11
7.92214
21
-5.8987
0
LINE
8
BLACK
6
CONTINUOUS
10
7.92214
20
-5.8987
11
7.93767
21
-5.89407
0
LINE
8
BLACK
6
CONTINUOUS
10
7.93767
20
-5.89407
11
7.95276
21
-5.88818
0
LINE
8
BLACK
6
CONTINUOUS
10
7.95276
20
-5.88818
11
7.96732
21
-5.88107
0
LINE
8
BLACK
6
CONTINUOUS
10
7.96732
20
-5.88107
11
7.98124
21
-5.87277
0
LINE
8
BLACK
6
CONTINUOUS
10
7.98124
20
-5.87277
11
7.99442
21
-5.86336
0
LINE
8
BLACK
6
CONTINUOUS
10
7.99442
20
-5.86336
11
8.00679
21
-5.85289
0
LINE
8
BLACK
6
CONTINUOUS
10
8.00679
20
-5.85289
11
8.01824
21
-5.84143
0
LINE
8
BLACK
6
CONTINUOUS
10
8.01824
20
-5.84143
11
8.02871
21
-5.82907
0
LINE
8
BLACK
6
CONTINUOUS
10
8.02871
20
-5.82907
11
8.03813
21
-5.81588
0
LINE
8
BLACK
6
CONTINUOUS
10
8.03813
20
-5.81588
11
8.04642
21
-5.80196
0
LINE
8
BLACK
6
CONTINUOUS
10
8.04642
20
-5.80196
11
8.05354
21
-5.78741
0
LINE
8
BLACK
6
CONTINUOUS
10
8.05354
20
-5.78741
11
8.05943
21
-5.77231
0
LINE
8
BLACK
6
CONTINUOUS
10
8.05943
20
-5.77231
11
8.06405
21
-5.75678
0
LINE
8
BLACK
6
CONTINUOUS
10
8.06405
20
-5.75678
11
8.06738
21
-5.74093
0
LINE
8
BLACK
6
CONTINUOUS
10
8.06738
20
-5.74093
11
8.06938
21
-5.72485
0
LINE
8
BLACK
6
CONTINUOUS
10
8.06938
20
-5.72485
11
8.07003
21
-5.70903
0
LINE
8
BLACK
6
CONTINUOUS
10
8.07003
20
-5.70903
11
8.06988
21
-5.70866
0
LINE
8
BLACK
6
CONTINUOUS
10
8.06988
20
-5.70866
11
8.06988
21
-3.54331
0
LINE
8
BLACK
6
CONTINUOUS
10
8.06988
20
-3.54331
11
8.07003
21
-3.54294
0
LINE
8
BLACK
6
CONTINUOUS
10
8.07003
20
-3.54294
11
8.06938
21
-3.52712
0
LINE
8
BLACK
6
CONTINUOUS
10
8.06938
20
-3.52712
11
8.06738
21
-3.51104
0
LINE
8
BLACK
6
CONTINUOUS
10
8.06738
20
-3.51104
11
8.06405
21
-3.49518
0
LINE
8
BLACK
6
CONTINUOUS
10
8.06405
20
-3.49518
11
8.05943
21
-3.47966
0
LINE
8
BLACK
6
CONTINUOUS
10
8.05943
20
-3.47966
11
8.05354
21
-3.46456
0
LINE
8
BLACK
6
CONTINUOUS
10
8.05354
20
-3.46456
11
8.04642
21
-3.45001
0
LINE
8
BLACK
6
CONTINUOUS
10
8.04642
20
-3.45001
11
8.03813
21
-3.43609
0
LINE
8
BLACK
6
CONTINUOUS
10
8.03813
20
-3.43609
11
8.02871
21
-3.4229
0
LINE
8
BLACK
6
CONTINUOUS
10
8.02871
20
-3.4229
11
8.01824
21
-3.41054
0
LINE
8
BLACK
6
CONTINUOUS
10
8.01824
20
-3.41054
11
8.00679
21
-3.39908
0
LINE
8
BLACK
6
CONTINUOUS
10
8.00679
20
-3.39908
11
7.99442
21
-3.38861
0
LINE
8
BLACK
6
CONTINUOUS
10
7.99442
20
-3.38861
11
7.98124
21
-3.37919
0
LINE
8
BLACK
6
CONTINUOUS
10
7.98124
20
-3.37919
11
7.96732
21
-3.3709
0
LINE
8
BLACK
6
CONTINUOUS
10
7.96732
20
-3.3709
11
7.95276
21
-3.36378
0
LINE
8
BLACK
6
CONTINUOUS
10
7.95276
20
-3.36378
11
7.93767
21
-3.3579
0
LINE
8
BLACK
6
CONTINUOUS
10
7.93767
20
-3.3579
11
7.92214
21
-3.35327
0
LINE
8
BLACK
6
CONTINUOUS
10
7.92214
20
-3.35327
11
7.90628
21
-3.34995
0
LINE
8
BLACK
6
CONTINUOUS
10
7.90628
20
-3.34995
11
7.8902
21
-3.34794
0
LINE
8
BLACK
6
CONTINUOUS
10
7.8902
20
-3.34794
11
7.87438
21
-3.34729
0
LINE
8
BLACK
6
CONTINUOUS
10
7.87438
20
-3.34729
11
7.87402
21
-3.34744
0
LINE
8
BLACK
6
CONTINUOUS
10
7.87402
20
-3.34744
11
1.77165
21
-3.34744
0
LINE
8
BLACK
6
CONTINUOUS
10
1.77165
20
-3.34744
11
1.77129
21
-3.34729
  0
ENDSEC
  0
EOF
