%TF.GenerationSoftware,KiCad,Pcbnew,(5.1.9-0-10_14)*%
%TF.CreationDate,2021-06-30T23:09:00+02:00*%
%TF.ProjectId,kontroller,6b6f6e74-726f-46c6-9c65-722e6b696361,rev?*%
%TF.SameCoordinates,Original*%
%TF.FileFunction,Copper,L2,Bot*%
%TF.FilePolarity,Positive*%
%FSLAX46Y46*%
G04 Gerber Fmt 4.6, Leading zero omitted, Abs format (unit mm)*
G04 Created by KiCad (PCBNEW (5.1.9-0-10_14)) date 2021-06-30 23:09:00*
%MOMM*%
%LPD*%
G01*
G04 APERTURE LIST*
%TA.AperFunction,ComponentPad*%
%ADD10C,2.600000*%
%TD*%
%TA.AperFunction,ComponentPad*%
%ADD11R,2.600000X2.600000*%
%TD*%
%TA.AperFunction,ComponentPad*%
%ADD12C,7.500000*%
%TD*%
%TA.AperFunction,WasherPad*%
%ADD13C,2.108200*%
%TD*%
%TA.AperFunction,ComponentPad*%
%ADD14C,1.701800*%
%TD*%
%TA.AperFunction,ComponentPad*%
%ADD15C,2.108200*%
%TD*%
%TA.AperFunction,ComponentPad*%
%ADD16O,2.000000X1.905000*%
%TD*%
%TA.AperFunction,ComponentPad*%
%ADD17R,2.000000X1.905000*%
%TD*%
%TA.AperFunction,ComponentPad*%
%ADD18O,1.727200X1.727200*%
%TD*%
%TA.AperFunction,ComponentPad*%
%ADD19R,1.727200X1.727200*%
%TD*%
%TA.AperFunction,ComponentPad*%
%ADD20O,1.600000X1.600000*%
%TD*%
%TA.AperFunction,ComponentPad*%
%ADD21R,1.600000X1.600000*%
%TD*%
%TA.AperFunction,ComponentPad*%
%ADD22O,1.400000X1.400000*%
%TD*%
%TA.AperFunction,ComponentPad*%
%ADD23C,1.400000*%
%TD*%
%TA.AperFunction,ComponentPad*%
%ADD24O,2.400000X2.400000*%
%TD*%
%TA.AperFunction,ComponentPad*%
%ADD25R,2.400000X2.400000*%
%TD*%
%TA.AperFunction,ComponentPad*%
%ADD26C,1.600000*%
%TD*%
%TA.AperFunction,ViaPad*%
%ADD27C,0.800000*%
%TD*%
%TA.AperFunction,Conductor*%
%ADD28C,0.500000*%
%TD*%
%TA.AperFunction,Conductor*%
%ADD29C,0.254000*%
%TD*%
%TA.AperFunction,Conductor*%
%ADD30C,0.100000*%
%TD*%
G04 APERTURE END LIST*
D10*
%TO.P,LinearActuator101,5*%
%TO.N,GNDS*%
X141680000Y-102500000D03*
%TO.P,LinearActuator101,4*%
%TO.N,D13*%
X146760000Y-102500000D03*
%TO.P,LinearActuator101,3*%
%TO.N,A0*%
X151840000Y-102500000D03*
%TO.P,LinearActuator101,2*%
%TO.N,A1*%
X156920000Y-102500000D03*
D11*
%TO.P,LinearActuator101,1*%
%TO.N,+5V*%
X162000000Y-102500000D03*
%TD*%
D12*
%TO.P,H104,1*%
%TO.N,N/C*%
X107000000Y-168000000D03*
%TD*%
%TO.P,H103,1*%
%TO.N,N/C*%
X107000000Y-102000000D03*
%TD*%
%TO.P,H102,1*%
%TO.N,N/C*%
X173000000Y-168000000D03*
%TD*%
%TO.P,H101,1*%
%TO.N,N/C*%
X173000000Y-102000000D03*
%TD*%
D13*
%TO.P,J701,*%
%TO.N,*%
X108610000Y-132175000D03*
X103530000Y-139795000D03*
D14*
%TO.P,J701,6*%
%TO.N,N/C*%
X112420000Y-135985000D03*
D15*
%TO.P,J701,5*%
%TO.N,GND*%
X117500000Y-142970000D03*
D14*
%TO.P,J701,4*%
%TO.N,+24V*%
X112420000Y-139795000D03*
%TO.P,J701,3*%
%TO.N,D3*%
X117500000Y-135985000D03*
%TO.P,J701,2*%
%TO.N,+5V*%
X112420000Y-132175000D03*
D15*
%TO.P,J701,1*%
%TO.N,GNDS*%
X117500000Y-129000000D03*
%TD*%
D16*
%TO.P,U102,3*%
%TO.N,Net-(JP101-Pad3)*%
X161400000Y-165720000D03*
%TO.P,U102,2*%
%TO.N,GND*%
X161400000Y-168260000D03*
D17*
%TO.P,U102,1*%
%TO.N,+24V*%
X161400000Y-170800000D03*
%TD*%
D18*
%TO.P,XA101,MISO*%
%TO.N,N/C*%
X139880000Y-155020000D03*
%TO.P,XA101,A5*%
X139880000Y-137240000D03*
%TO.P,XA101,A4*%
X139880000Y-134700000D03*
%TO.P,XA101,A3*%
X139880000Y-132160000D03*
%TO.P,XA101,A2*%
X139880000Y-129620000D03*
%TO.P,XA101,A1*%
%TO.N,A1*%
X139880000Y-127080000D03*
%TO.P,XA101,*%
%TO.N,*%
X139880000Y-142320000D03*
%TO.P,XA101,D11*%
%TO.N,N/C*%
X155120000Y-119460000D03*
%TO.P,XA101,D12*%
X155120000Y-116920000D03*
%TO.P,XA101,D13*%
%TO.N,D13*%
X139880000Y-116920000D03*
%TO.P,XA101,AREF*%
%TO.N,N/C*%
X139880000Y-122000000D03*
%TO.P,XA101,D10*%
X155120000Y-122000000D03*
%TO.P,XA101,D9*%
X155120000Y-124540000D03*
%TO.P,XA101,D8*%
%TO.N,D8*%
X155120000Y-127080000D03*
%TO.P,XA101,D7*%
%TO.N,N/C*%
X155120000Y-129620000D03*
%TO.P,XA101,D6*%
X155120000Y-132160000D03*
%TO.P,XA101,D5*%
%TO.N,D5*%
X155120000Y-134700000D03*
%TO.P,XA101,D4*%
%TO.N,D4*%
X155120000Y-137240000D03*
%TO.P,XA101,D3*%
%TO.N,D3*%
X155120000Y-139780000D03*
%TO.P,XA101,D2*%
%TO.N,D2*%
X155120000Y-142320000D03*
%TO.P,XA101,D1*%
%TO.N,N/C*%
X155120000Y-152480000D03*
%TO.P,XA101,D0*%
X155120000Y-149940000D03*
%TO.P,XA101,SS*%
X155120000Y-155020000D03*
%TO.P,XA101,RST1*%
X139880000Y-147400000D03*
%TO.P,XA101,3V3*%
X139880000Y-119460000D03*
%TO.P,XA101,5V*%
X139880000Y-144860000D03*
%TO.P,XA101,GND1*%
%TO.N,GNDS*%
X139880000Y-149940000D03*
%TO.P,XA101,GND2*%
X155120000Y-144860000D03*
%TO.P,XA101,VIN*%
%TO.N,Net-(JP101-Pad2)*%
X139880000Y-152480000D03*
%TO.P,XA101,A0*%
%TO.N,A0*%
X139880000Y-124540000D03*
%TO.P,XA101,SCK*%
%TO.N,N/C*%
X139880000Y-157560000D03*
D19*
%TO.P,XA101,MOSI*%
X155120000Y-157560000D03*
D18*
%TO.P,XA101,RST2*%
X155120000Y-147400000D03*
%TO.P,XA101,*%
%TO.N,*%
X139880000Y-139780000D03*
%TD*%
D20*
%TO.P,U101,6*%
%TO.N,N/C*%
X150000000Y-127620000D03*
%TO.P,U101,3*%
X144920000Y-120000000D03*
%TO.P,U101,5*%
%TO.N,D8*%
X147460000Y-127620000D03*
%TO.P,U101,2*%
%TO.N,Net-(R102-Pad1)*%
X147460000Y-120000000D03*
%TO.P,U101,4*%
%TO.N,GNDS*%
X144920000Y-127620000D03*
D21*
%TO.P,U101,1*%
%TO.N,+24V*%
X150000000Y-120000000D03*
%TD*%
D22*
%TO.P,R701,2*%
%TO.N,GND*%
X131080000Y-142000000D03*
D23*
%TO.P,R701,1*%
%TO.N,D3*%
X126000000Y-142000000D03*
%TD*%
D22*
%TO.P,R102,2*%
%TO.N,Net-(INDEX1-Pad2)*%
X147500000Y-111420000D03*
D23*
%TO.P,R102,1*%
%TO.N,Net-(R102-Pad1)*%
X147500000Y-116500000D03*
%TD*%
D22*
%TO.P,R101,2*%
%TO.N,D8*%
X151000000Y-132920000D03*
D23*
%TO.P,R101,1*%
%TO.N,+5V*%
X151000000Y-138000000D03*
%TD*%
D10*
%TO.P,OUT501,2*%
%TO.N,D2*%
X172500000Y-152920000D03*
D11*
%TO.P,OUT501,1*%
%TO.N,GNDS*%
X172500000Y-158000000D03*
%TD*%
D10*
%TO.P,POWER801,2*%
%TO.N,D4*%
X172500000Y-138920000D03*
D11*
%TO.P,POWER801,1*%
%TO.N,GNDS*%
X172500000Y-144000000D03*
%TD*%
D10*
%TO.P,POWER24,2*%
%TO.N,GND*%
X129920000Y-102500000D03*
D11*
%TO.P,POWER24,1*%
%TO.N,+24V*%
X135000000Y-102500000D03*
%TD*%
D10*
%TO.P,POWER5,2*%
%TO.N,GNDS*%
X135080000Y-168000000D03*
D11*
%TO.P,POWER5,1*%
%TO.N,+5V*%
X130000000Y-168000000D03*
%TD*%
D10*
%TO.P,OUT201,2*%
%TO.N,D5*%
X172500000Y-126920000D03*
D11*
%TO.P,OUT201,1*%
%TO.N,GNDS*%
X172500000Y-132000000D03*
%TD*%
D10*
%TO.P,INDEX1,3*%
%TO.N,+24V*%
X172500000Y-109840000D03*
%TO.P,INDEX1,2*%
%TO.N,Net-(INDEX1-Pad2)*%
X172500000Y-114920000D03*
D11*
%TO.P,INDEX1,1*%
%TO.N,GND*%
X172500000Y-120000000D03*
%TD*%
D24*
%TO.P,D901,2*%
%TO.N,GNDS*%
X162500000Y-160160000D03*
D25*
%TO.P,D901,1*%
%TO.N,D2*%
X162500000Y-150000000D03*
%TD*%
D24*
%TO.P,D801,2*%
%TO.N,GNDS*%
X162500000Y-146160000D03*
D25*
%TO.P,D801,1*%
%TO.N,D4*%
X162500000Y-136000000D03*
%TD*%
D24*
%TO.P,D701,2*%
%TO.N,GND*%
X134160000Y-136000000D03*
D25*
%TO.P,D701,1*%
%TO.N,D3*%
X124000000Y-136000000D03*
%TD*%
D24*
%TO.P,D201,2*%
%TO.N,GNDS*%
X162500000Y-132160000D03*
D25*
%TO.P,D201,1*%
%TO.N,D5*%
X162500000Y-122000000D03*
%TD*%
D26*
%TO.P,C701,2*%
%TO.N,GND*%
X131500000Y-131000000D03*
%TO.P,C701,1*%
%TO.N,D3*%
X126500000Y-131000000D03*
%TD*%
%TO.P,C110,2*%
%TO.N,GND*%
X120000000Y-102700000D03*
D21*
%TO.P,C110,1*%
%TO.N,+24V*%
X117500000Y-102700000D03*
%TD*%
D26*
%TO.P,C109,2*%
%TO.N,GND*%
X108500000Y-115500000D03*
D21*
%TO.P,C109,1*%
%TO.N,+24V*%
X106000000Y-115500000D03*
%TD*%
D26*
%TO.P,C108,2*%
%TO.N,GND*%
X129500000Y-122000000D03*
D21*
%TO.P,C108,1*%
%TO.N,+24V*%
X127000000Y-122000000D03*
%TD*%
D26*
%TO.P,C107,2*%
%TO.N,GND*%
X120000000Y-115500000D03*
D21*
%TO.P,C107,1*%
%TO.N,+24V*%
X117500000Y-115500000D03*
%TD*%
D26*
%TO.P,C106,2*%
%TO.N,GND*%
X130000000Y-113000000D03*
%TO.P,C106,1*%
%TO.N,+24V*%
X135000000Y-113000000D03*
%TD*%
%TO.P,C105,2*%
%TO.N,GNDS*%
X120000000Y-169000000D03*
D21*
%TO.P,C105,1*%
%TO.N,+5V*%
X117500000Y-169000000D03*
%TD*%
D26*
%TO.P,C104,2*%
%TO.N,GNDS*%
X130000000Y-150500000D03*
D21*
%TO.P,C104,1*%
%TO.N,+5V*%
X127500000Y-150500000D03*
%TD*%
D26*
%TO.P,C103,2*%
%TO.N,GNDS*%
X120000000Y-156500000D03*
D21*
%TO.P,C103,1*%
%TO.N,+5V*%
X117500000Y-156500000D03*
%TD*%
D26*
%TO.P,C102,2*%
%TO.N,GNDS*%
X108500000Y-156500000D03*
D21*
%TO.P,C102,1*%
%TO.N,+5V*%
X106000000Y-156500000D03*
%TD*%
D26*
%TO.P,C101,2*%
%TO.N,GNDS*%
X135000000Y-159000000D03*
%TO.P,C101,1*%
%TO.N,+5V*%
X130000000Y-159000000D03*
%TD*%
D27*
%TO.N,GNDS*%
X137500000Y-134000000D03*
X142000000Y-137500000D03*
%TO.N,+5V*%
X157500000Y-117000000D03*
%TD*%
D28*
%TO.N,GNDS*%
X162500000Y-132160000D02*
X170840000Y-132160000D01*
X139880000Y-149940000D02*
X137500000Y-147560000D01*
X137500000Y-147560000D02*
X137500000Y-134000000D01*
X139940000Y-149940000D02*
X139880000Y-149940000D01*
X142000000Y-148000000D02*
X139940000Y-149940000D01*
X142000000Y-137500000D02*
X142000000Y-148000000D01*
X170840000Y-132160000D02*
X173340000Y-132160000D01*
X173340000Y-132160000D02*
X173500000Y-132000000D01*
X141680000Y-102500000D02*
X141680000Y-108320000D01*
X137500000Y-112500000D02*
X137500000Y-134000000D01*
X141680000Y-108320000D02*
X137500000Y-112500000D01*
%TO.N,+5V*%
X112420000Y-132175000D02*
X115000000Y-134755000D01*
X115000000Y-134755000D02*
X115000000Y-141000000D01*
X157500000Y-117000000D02*
X157500000Y-135000000D01*
%TO.N,GND*%
X131080000Y-142000000D02*
X134000000Y-139080000D01*
X134000000Y-139080000D02*
X134000000Y-136000000D01*
%TO.N,+24V*%
X175000000Y-173500000D02*
X179000000Y-169500000D01*
X179000000Y-169500000D02*
X179000000Y-134500000D01*
X112420000Y-139795000D02*
X109795000Y-139795000D01*
X109795000Y-139795000D02*
X104500000Y-134500000D01*
X104500000Y-134500000D02*
X104500000Y-128000000D01*
X179000000Y-134500000D02*
X179000000Y-123000000D01*
X166100000Y-173500000D02*
X175000000Y-173500000D01*
X166100000Y-173500000D02*
X164100000Y-173500000D01*
X164100000Y-173500000D02*
X161400000Y-170800000D01*
%TO.N,D3*%
X117500000Y-136035000D02*
X123965000Y-136035000D01*
%TO.N,D5*%
X173500000Y-126920000D02*
X169420000Y-126920000D01*
X169420000Y-126920000D02*
X164500000Y-122000000D01*
X164500000Y-122000000D02*
X162500000Y-122000000D01*
%TO.N,Net-(INDEX1-Pad2)*%
X147500000Y-111420000D02*
X163920000Y-111420000D01*
X163920000Y-111420000D02*
X167500000Y-115000000D01*
X167500000Y-115000000D02*
X173500000Y-115000000D01*
%TO.N,D8*%
X155120000Y-127080000D02*
X151000000Y-131200000D01*
X151000000Y-131200000D02*
X151000000Y-133000000D01*
X151000000Y-131160000D02*
X151000000Y-131200000D01*
X147460000Y-127620000D02*
X151000000Y-131160000D01*
%TO.N,Net-(R102-Pad1)*%
X147460000Y-120000000D02*
X147460000Y-116540000D01*
X147460000Y-116540000D02*
X147500000Y-116500000D01*
%TD*%
D29*
%TO.N,+24V*%
X175768083Y-95731173D02*
X176511891Y-95934656D01*
X177207905Y-96266638D01*
X177834130Y-96716626D01*
X178370777Y-97270403D01*
X178800871Y-97910451D01*
X179110829Y-98616553D01*
X179292065Y-99371457D01*
X179340001Y-100024220D01*
X179340001Y-130873000D01*
X174438072Y-130873000D01*
X174438072Y-130700000D01*
X174425812Y-130575518D01*
X174389502Y-130455820D01*
X174330537Y-130345506D01*
X174251185Y-130248815D01*
X174154494Y-130169463D01*
X174044180Y-130110498D01*
X173924482Y-130074188D01*
X173800000Y-130061928D01*
X171200000Y-130061928D01*
X171075518Y-130074188D01*
X170955820Y-130110498D01*
X170845506Y-130169463D01*
X170748815Y-130248815D01*
X170669463Y-130345506D01*
X170610498Y-130455820D01*
X170574188Y-130575518D01*
X170561928Y-130700000D01*
X170561928Y-130873000D01*
X163808082Y-130873000D01*
X163669744Y-130734662D01*
X163369199Y-130533844D01*
X163035250Y-130395518D01*
X162680732Y-130325000D01*
X162319268Y-130325000D01*
X161964750Y-130395518D01*
X161630801Y-130533844D01*
X161330256Y-130734662D01*
X161191918Y-130873000D01*
X158385000Y-130873000D01*
X158385000Y-120800000D01*
X160661928Y-120800000D01*
X160661928Y-123200000D01*
X160674188Y-123324482D01*
X160710498Y-123444180D01*
X160769463Y-123554494D01*
X160848815Y-123651185D01*
X160945506Y-123730537D01*
X161055820Y-123789502D01*
X161175518Y-123825812D01*
X161300000Y-123838072D01*
X163700000Y-123838072D01*
X163824482Y-123825812D01*
X163944180Y-123789502D01*
X164054494Y-123730537D01*
X164151185Y-123651185D01*
X164230537Y-123554494D01*
X164289502Y-123444180D01*
X164325812Y-123324482D01*
X164338072Y-123200000D01*
X164338072Y-123089650D01*
X168763470Y-127515049D01*
X168791183Y-127548817D01*
X168824951Y-127576530D01*
X168824953Y-127576532D01*
X168877919Y-127620000D01*
X168925941Y-127659411D01*
X169079687Y-127741589D01*
X169246510Y-127792195D01*
X169376523Y-127805000D01*
X169376531Y-127805000D01*
X169420000Y-127809281D01*
X169463469Y-127805000D01*
X170772150Y-127805000D01*
X170785225Y-127836566D01*
X170996987Y-128153491D01*
X171266509Y-128423013D01*
X171583434Y-128634775D01*
X171935581Y-128780639D01*
X172309419Y-128855000D01*
X172690581Y-128855000D01*
X173064419Y-128780639D01*
X173416566Y-128634775D01*
X173733491Y-128423013D01*
X174003013Y-128153491D01*
X174214775Y-127836566D01*
X174360639Y-127484419D01*
X174435000Y-127110581D01*
X174435000Y-126729419D01*
X174360639Y-126355581D01*
X174214775Y-126003434D01*
X174003013Y-125686509D01*
X173733491Y-125416987D01*
X173416566Y-125205225D01*
X173064419Y-125059361D01*
X172690581Y-124985000D01*
X172309419Y-124985000D01*
X171935581Y-125059361D01*
X171583434Y-125205225D01*
X171266509Y-125416987D01*
X170996987Y-125686509D01*
X170785225Y-126003434D01*
X170772150Y-126035000D01*
X169786579Y-126035000D01*
X165156534Y-121404956D01*
X165128817Y-121371183D01*
X164994059Y-121260589D01*
X164840313Y-121178411D01*
X164673490Y-121127805D01*
X164543477Y-121115000D01*
X164543469Y-121115000D01*
X164500000Y-121110719D01*
X164456531Y-121115000D01*
X164338072Y-121115000D01*
X164338072Y-120800000D01*
X164325812Y-120675518D01*
X164289502Y-120555820D01*
X164230537Y-120445506D01*
X164151185Y-120348815D01*
X164054494Y-120269463D01*
X163944180Y-120210498D01*
X163824482Y-120174188D01*
X163700000Y-120161928D01*
X161300000Y-120161928D01*
X161175518Y-120174188D01*
X161055820Y-120210498D01*
X160945506Y-120269463D01*
X160848815Y-120348815D01*
X160769463Y-120445506D01*
X160710498Y-120555820D01*
X160674188Y-120675518D01*
X160661928Y-120800000D01*
X158385000Y-120800000D01*
X158385000Y-118700000D01*
X170561928Y-118700000D01*
X170561928Y-121300000D01*
X170574188Y-121424482D01*
X170610498Y-121544180D01*
X170669463Y-121654494D01*
X170748815Y-121751185D01*
X170845506Y-121830537D01*
X170955820Y-121889502D01*
X171075518Y-121925812D01*
X171200000Y-121938072D01*
X173800000Y-121938072D01*
X173924482Y-121925812D01*
X174044180Y-121889502D01*
X174154494Y-121830537D01*
X174251185Y-121751185D01*
X174330537Y-121654494D01*
X174389502Y-121544180D01*
X174425812Y-121424482D01*
X174438072Y-121300000D01*
X174438072Y-118700000D01*
X174425812Y-118575518D01*
X174389502Y-118455820D01*
X174330537Y-118345506D01*
X174251185Y-118248815D01*
X174154494Y-118169463D01*
X174044180Y-118110498D01*
X173924482Y-118074188D01*
X173800000Y-118061928D01*
X171200000Y-118061928D01*
X171075518Y-118074188D01*
X170955820Y-118110498D01*
X170845506Y-118169463D01*
X170748815Y-118248815D01*
X170669463Y-118345506D01*
X170610498Y-118455820D01*
X170574188Y-118575518D01*
X170561928Y-118700000D01*
X158385000Y-118700000D01*
X158385000Y-117538454D01*
X158417205Y-117490256D01*
X158495226Y-117301898D01*
X158535000Y-117101939D01*
X158535000Y-116898061D01*
X158495226Y-116698102D01*
X158417205Y-116509744D01*
X158303937Y-116340226D01*
X158159774Y-116196063D01*
X157990256Y-116082795D01*
X157801898Y-116004774D01*
X157601939Y-115965000D01*
X157398061Y-115965000D01*
X157198102Y-116004774D01*
X157009744Y-116082795D01*
X156840226Y-116196063D01*
X156696063Y-116340226D01*
X156582795Y-116509744D01*
X156571688Y-116536558D01*
X156561010Y-116482875D01*
X156448042Y-116210147D01*
X156284039Y-115964698D01*
X156075302Y-115755961D01*
X155829853Y-115591958D01*
X155557125Y-115478990D01*
X155487190Y-115465079D01*
X155661413Y-115392913D01*
X155848620Y-115267826D01*
X156007826Y-115108620D01*
X156132913Y-114921413D01*
X156219075Y-114713401D01*
X156263000Y-114492576D01*
X156263000Y-114267424D01*
X156219075Y-114046599D01*
X156132913Y-113838587D01*
X156007826Y-113651380D01*
X155848620Y-113492174D01*
X155661413Y-113367087D01*
X155453401Y-113280925D01*
X155232576Y-113237000D01*
X155007424Y-113237000D01*
X154786599Y-113280925D01*
X154578587Y-113367087D01*
X154391380Y-113492174D01*
X154232174Y-113651380D01*
X154107087Y-113838587D01*
X154020925Y-114046599D01*
X153977000Y-114267424D01*
X153977000Y-114492576D01*
X154020925Y-114713401D01*
X154107087Y-114921413D01*
X154232174Y-115108620D01*
X154391380Y-115267826D01*
X154578587Y-115392913D01*
X154752810Y-115465079D01*
X154682875Y-115478990D01*
X154410147Y-115591958D01*
X154164698Y-115755961D01*
X153955961Y-115964698D01*
X153791958Y-116210147D01*
X153678990Y-116482875D01*
X153621400Y-116772401D01*
X153621400Y-117067599D01*
X153678990Y-117357125D01*
X153791958Y-117629853D01*
X153955961Y-117875302D01*
X154164698Y-118084039D01*
X154323281Y-118190000D01*
X154164698Y-118295961D01*
X153955961Y-118504698D01*
X153791958Y-118750147D01*
X153678990Y-119022875D01*
X153621400Y-119312401D01*
X153621400Y-119607599D01*
X153678990Y-119897125D01*
X153791958Y-120169853D01*
X153955961Y-120415302D01*
X154164698Y-120624039D01*
X154323281Y-120730000D01*
X154164698Y-120835961D01*
X153955961Y-121044698D01*
X153791958Y-121290147D01*
X153678990Y-121562875D01*
X153621400Y-121852401D01*
X153621400Y-122147599D01*
X153678990Y-122437125D01*
X153791958Y-122709853D01*
X153955961Y-122955302D01*
X154164698Y-123164039D01*
X154323281Y-123270000D01*
X154164698Y-123375961D01*
X153955961Y-123584698D01*
X153791958Y-123830147D01*
X153678990Y-124102875D01*
X153621400Y-124392401D01*
X153621400Y-124687599D01*
X153678990Y-124977125D01*
X153791958Y-125249853D01*
X153955961Y-125495302D01*
X154164698Y-125704039D01*
X154323281Y-125810000D01*
X154164698Y-125915961D01*
X153955961Y-126124698D01*
X153791958Y-126370147D01*
X153678990Y-126642875D01*
X153621400Y-126932401D01*
X153621400Y-127227599D01*
X153637895Y-127310526D01*
X151020000Y-129928422D01*
X150145709Y-129054130D01*
X150418574Y-128999853D01*
X150679727Y-128891680D01*
X150914759Y-128734637D01*
X151114637Y-128534759D01*
X151271680Y-128299727D01*
X151379853Y-128038574D01*
X151435000Y-127761335D01*
X151435000Y-127478665D01*
X151379853Y-127201426D01*
X151271680Y-126940273D01*
X151114637Y-126705241D01*
X150914759Y-126505363D01*
X150679727Y-126348320D01*
X150418574Y-126240147D01*
X150141335Y-126185000D01*
X149858665Y-126185000D01*
X149581426Y-126240147D01*
X149320273Y-126348320D01*
X149085241Y-126505363D01*
X148885363Y-126705241D01*
X148730000Y-126937759D01*
X148574637Y-126705241D01*
X148374759Y-126505363D01*
X148139727Y-126348320D01*
X147878574Y-126240147D01*
X147601335Y-126185000D01*
X147318665Y-126185000D01*
X147041426Y-126240147D01*
X146780273Y-126348320D01*
X146545241Y-126505363D01*
X146345363Y-126705241D01*
X146190000Y-126937759D01*
X146034637Y-126705241D01*
X145834759Y-126505363D01*
X145599727Y-126348320D01*
X145338574Y-126240147D01*
X145061335Y-126185000D01*
X144778665Y-126185000D01*
X144501426Y-126240147D01*
X144240273Y-126348320D01*
X144005241Y-126505363D01*
X143805363Y-126705241D01*
X143648320Y-126940273D01*
X143540147Y-127201426D01*
X143485000Y-127478665D01*
X143485000Y-127761335D01*
X143540147Y-128038574D01*
X143648320Y-128299727D01*
X143805363Y-128534759D01*
X144005241Y-128734637D01*
X144240273Y-128891680D01*
X144501426Y-128999853D01*
X144778665Y-129055000D01*
X145061335Y-129055000D01*
X145338574Y-128999853D01*
X145599727Y-128891680D01*
X145834759Y-128734637D01*
X146034637Y-128534759D01*
X146190000Y-128302241D01*
X146345363Y-128534759D01*
X146545241Y-128734637D01*
X146780273Y-128891680D01*
X147041426Y-128999853D01*
X147318665Y-129055000D01*
X147601335Y-129055000D01*
X147636439Y-129048017D01*
X149461421Y-130873000D01*
X140702161Y-130873000D01*
X140835302Y-130784039D01*
X141044039Y-130575302D01*
X141208042Y-130329853D01*
X141321010Y-130057125D01*
X141378600Y-129767599D01*
X141378600Y-129472401D01*
X141321010Y-129182875D01*
X141208042Y-128910147D01*
X141044039Y-128664698D01*
X140835302Y-128455961D01*
X140676719Y-128350000D01*
X140835302Y-128244039D01*
X141044039Y-128035302D01*
X141208042Y-127789853D01*
X141321010Y-127517125D01*
X141378600Y-127227599D01*
X141378600Y-126932401D01*
X141321010Y-126642875D01*
X141208042Y-126370147D01*
X141044039Y-126124698D01*
X140835302Y-125915961D01*
X140676719Y-125810000D01*
X140835302Y-125704039D01*
X141044039Y-125495302D01*
X141208042Y-125249853D01*
X141321010Y-124977125D01*
X141378600Y-124687599D01*
X141378600Y-124392401D01*
X141321010Y-124102875D01*
X141208042Y-123830147D01*
X141044039Y-123584698D01*
X140835302Y-123375961D01*
X140676719Y-123270000D01*
X140835302Y-123164039D01*
X141044039Y-122955302D01*
X141208042Y-122709853D01*
X141321010Y-122437125D01*
X141378600Y-122147599D01*
X141378600Y-121852401D01*
X141321010Y-121562875D01*
X141208042Y-121290147D01*
X141044039Y-121044698D01*
X140835302Y-120835961D01*
X140676719Y-120730000D01*
X140835302Y-120624039D01*
X141044039Y-120415302D01*
X141208042Y-120169853D01*
X141321010Y-119897125D01*
X141328660Y-119858665D01*
X143485000Y-119858665D01*
X143485000Y-120141335D01*
X143540147Y-120418574D01*
X143648320Y-120679727D01*
X143805363Y-120914759D01*
X144005241Y-121114637D01*
X144240273Y-121271680D01*
X144501426Y-121379853D01*
X144778665Y-121435000D01*
X145061335Y-121435000D01*
X145338574Y-121379853D01*
X145599727Y-121271680D01*
X145834759Y-121114637D01*
X146034637Y-120914759D01*
X146190000Y-120682241D01*
X146345363Y-120914759D01*
X146545241Y-121114637D01*
X146780273Y-121271680D01*
X147041426Y-121379853D01*
X147318665Y-121435000D01*
X147601335Y-121435000D01*
X147878574Y-121379853D01*
X148139727Y-121271680D01*
X148374759Y-121114637D01*
X148573357Y-120916039D01*
X148574188Y-120924482D01*
X148610498Y-121044180D01*
X148669463Y-121154494D01*
X148748815Y-121251185D01*
X148845506Y-121330537D01*
X148955820Y-121389502D01*
X149075518Y-121425812D01*
X149200000Y-121438072D01*
X149714250Y-121435000D01*
X149873000Y-121276250D01*
X149873000Y-120127000D01*
X150127000Y-120127000D01*
X150127000Y-121276250D01*
X150285750Y-121435000D01*
X150800000Y-121438072D01*
X150924482Y-121425812D01*
X151044180Y-121389502D01*
X151154494Y-121330537D01*
X151251185Y-121251185D01*
X151330537Y-121154494D01*
X151389502Y-121044180D01*
X151425812Y-120924482D01*
X151438072Y-120800000D01*
X151435000Y-120285750D01*
X151276250Y-120127000D01*
X150127000Y-120127000D01*
X149873000Y-120127000D01*
X149853000Y-120127000D01*
X149853000Y-119873000D01*
X149873000Y-119873000D01*
X149873000Y-118723750D01*
X150127000Y-118723750D01*
X150127000Y-119873000D01*
X151276250Y-119873000D01*
X151435000Y-119714250D01*
X151438072Y-119200000D01*
X151425812Y-119075518D01*
X151389502Y-118955820D01*
X151330537Y-118845506D01*
X151251185Y-118748815D01*
X151154494Y-118669463D01*
X151044180Y-118610498D01*
X150924482Y-118574188D01*
X150800000Y-118561928D01*
X150285750Y-118565000D01*
X150127000Y-118723750D01*
X149873000Y-118723750D01*
X149714250Y-118565000D01*
X149200000Y-118561928D01*
X149075518Y-118574188D01*
X148955820Y-118610498D01*
X148845506Y-118669463D01*
X148748815Y-118748815D01*
X148669463Y-118845506D01*
X148610498Y-118955820D01*
X148574188Y-119075518D01*
X148573357Y-119083961D01*
X148374759Y-118885363D01*
X148345000Y-118865479D01*
X148345000Y-117540980D01*
X148351013Y-117536962D01*
X148536962Y-117351013D01*
X148683061Y-117132359D01*
X148783696Y-116889405D01*
X148835000Y-116631486D01*
X148835000Y-116368514D01*
X148783696Y-116110595D01*
X148683061Y-115867641D01*
X148536962Y-115648987D01*
X148351013Y-115463038D01*
X148132359Y-115316939D01*
X147889405Y-115216304D01*
X147631486Y-115165000D01*
X147368514Y-115165000D01*
X147110595Y-115216304D01*
X146867641Y-115316939D01*
X146648987Y-115463038D01*
X146463038Y-115648987D01*
X146316939Y-115867641D01*
X146216304Y-116110595D01*
X146165000Y-116368514D01*
X146165000Y-116631486D01*
X146216304Y-116889405D01*
X146316939Y-117132359D01*
X146463038Y-117351013D01*
X146575001Y-117462976D01*
X146575000Y-118865478D01*
X146545241Y-118885363D01*
X146345363Y-119085241D01*
X146190000Y-119317759D01*
X146034637Y-119085241D01*
X145834759Y-118885363D01*
X145599727Y-118728320D01*
X145338574Y-118620147D01*
X145061335Y-118565000D01*
X144778665Y-118565000D01*
X144501426Y-118620147D01*
X144240273Y-118728320D01*
X144005241Y-118885363D01*
X143805363Y-119085241D01*
X143648320Y-119320273D01*
X143540147Y-119581426D01*
X143485000Y-119858665D01*
X141328660Y-119858665D01*
X141378600Y-119607599D01*
X141378600Y-119312401D01*
X141321010Y-119022875D01*
X141208042Y-118750147D01*
X141044039Y-118504698D01*
X140835302Y-118295961D01*
X140676719Y-118190000D01*
X140835302Y-118084039D01*
X141044039Y-117875302D01*
X141208042Y-117629853D01*
X141321010Y-117357125D01*
X141378600Y-117067599D01*
X141378600Y-116772401D01*
X141321010Y-116482875D01*
X141208042Y-116210147D01*
X141044039Y-115964698D01*
X140835302Y-115755961D01*
X140589853Y-115591958D01*
X140317125Y-115478990D01*
X140247190Y-115465079D01*
X140421413Y-115392913D01*
X140608620Y-115267826D01*
X140767826Y-115108620D01*
X140892913Y-114921413D01*
X140979075Y-114713401D01*
X141023000Y-114492576D01*
X141023000Y-114267424D01*
X140979075Y-114046599D01*
X140892913Y-113838587D01*
X140767826Y-113651380D01*
X140608620Y-113492174D01*
X140421413Y-113367087D01*
X140213401Y-113280925D01*
X139992576Y-113237000D01*
X139767424Y-113237000D01*
X139546599Y-113280925D01*
X139338587Y-113367087D01*
X139151380Y-113492174D01*
X138992174Y-113651380D01*
X138867087Y-113838587D01*
X138780925Y-114046599D01*
X138737000Y-114267424D01*
X138737000Y-114492576D01*
X138780925Y-114713401D01*
X138867087Y-114921413D01*
X138992174Y-115108620D01*
X139151380Y-115267826D01*
X139338587Y-115392913D01*
X139512810Y-115465079D01*
X139442875Y-115478990D01*
X139170147Y-115591958D01*
X138924698Y-115755961D01*
X138715961Y-115964698D01*
X138551958Y-116210147D01*
X138438990Y-116482875D01*
X138385000Y-116754302D01*
X138385000Y-112866578D01*
X139963064Y-111288514D01*
X146165000Y-111288514D01*
X146165000Y-111551486D01*
X146216304Y-111809405D01*
X146316939Y-112052359D01*
X146463038Y-112271013D01*
X146648987Y-112456962D01*
X146867641Y-112603061D01*
X147110595Y-112703696D01*
X147368514Y-112755000D01*
X147631486Y-112755000D01*
X147889405Y-112703696D01*
X148132359Y-112603061D01*
X148351013Y-112456962D01*
X148502975Y-112305000D01*
X163553422Y-112305000D01*
X166843470Y-115595049D01*
X166871183Y-115628817D01*
X166904951Y-115656530D01*
X166904953Y-115656532D01*
X167005941Y-115739411D01*
X167159686Y-115821589D01*
X167231811Y-115843468D01*
X167326510Y-115872195D01*
X167456523Y-115885000D01*
X167456531Y-115885000D01*
X167500000Y-115889281D01*
X167543469Y-115885000D01*
X170817587Y-115885000D01*
X170996987Y-116153491D01*
X171266509Y-116423013D01*
X171583434Y-116634775D01*
X171935581Y-116780639D01*
X172309419Y-116855000D01*
X172690581Y-116855000D01*
X173064419Y-116780639D01*
X173416566Y-116634775D01*
X173733491Y-116423013D01*
X174003013Y-116153491D01*
X174214775Y-115836566D01*
X174360639Y-115484419D01*
X174435000Y-115110581D01*
X174435000Y-114729419D01*
X174360639Y-114355581D01*
X174214775Y-114003434D01*
X174003013Y-113686509D01*
X173733491Y-113416987D01*
X173416566Y-113205225D01*
X173064419Y-113059361D01*
X172690581Y-112985000D01*
X172309419Y-112985000D01*
X171935581Y-113059361D01*
X171583434Y-113205225D01*
X171266509Y-113416987D01*
X170996987Y-113686509D01*
X170785225Y-114003434D01*
X170739013Y-114115000D01*
X167866579Y-114115000D01*
X164940803Y-111189224D01*
X171330381Y-111189224D01*
X171462317Y-111484312D01*
X171803045Y-111655159D01*
X172170557Y-111756250D01*
X172550729Y-111783701D01*
X172928951Y-111736457D01*
X173290690Y-111616333D01*
X173537683Y-111484312D01*
X173669619Y-111189224D01*
X172500000Y-110019605D01*
X171330381Y-111189224D01*
X164940803Y-111189224D01*
X164576534Y-110824956D01*
X164548817Y-110791183D01*
X164414059Y-110680589D01*
X164260313Y-110598411D01*
X164093490Y-110547805D01*
X163963477Y-110535000D01*
X163963469Y-110535000D01*
X163920000Y-110530719D01*
X163876531Y-110535000D01*
X148502975Y-110535000D01*
X148351013Y-110383038D01*
X148132359Y-110236939D01*
X147889405Y-110136304D01*
X147631486Y-110085000D01*
X147368514Y-110085000D01*
X147110595Y-110136304D01*
X146867641Y-110236939D01*
X146648987Y-110383038D01*
X146463038Y-110568987D01*
X146316939Y-110787641D01*
X146216304Y-111030595D01*
X146165000Y-111288514D01*
X139963064Y-111288514D01*
X141360849Y-109890729D01*
X170556299Y-109890729D01*
X170603543Y-110268951D01*
X170723667Y-110630690D01*
X170855688Y-110877683D01*
X171150776Y-111009619D01*
X172320395Y-109840000D01*
X172679605Y-109840000D01*
X173849224Y-111009619D01*
X174144312Y-110877683D01*
X174315159Y-110536955D01*
X174416250Y-110169443D01*
X174443701Y-109789271D01*
X174396457Y-109411049D01*
X174276333Y-109049310D01*
X174144312Y-108802317D01*
X173849224Y-108670381D01*
X172679605Y-109840000D01*
X172320395Y-109840000D01*
X171150776Y-108670381D01*
X170855688Y-108802317D01*
X170684841Y-109143045D01*
X170583750Y-109510557D01*
X170556299Y-109890729D01*
X141360849Y-109890729D01*
X142275049Y-108976530D01*
X142308817Y-108948817D01*
X142419411Y-108814059D01*
X142496208Y-108670381D01*
X142501589Y-108660314D01*
X142552195Y-108493490D01*
X142552462Y-108490776D01*
X171330381Y-108490776D01*
X172500000Y-109660395D01*
X173669619Y-108490776D01*
X173537683Y-108195688D01*
X173196955Y-108024841D01*
X172829443Y-107923750D01*
X172449271Y-107896299D01*
X172071049Y-107943543D01*
X171709310Y-108063667D01*
X171462317Y-108195688D01*
X171330381Y-108490776D01*
X142552462Y-108490776D01*
X142565000Y-108363477D01*
X142565000Y-108363469D01*
X142569281Y-108320000D01*
X142565000Y-108276531D01*
X142565000Y-104227850D01*
X142596566Y-104214775D01*
X142913491Y-104003013D01*
X143183013Y-103733491D01*
X143394775Y-103416566D01*
X143540639Y-103064419D01*
X143615000Y-102690581D01*
X143615000Y-102309419D01*
X144825000Y-102309419D01*
X144825000Y-102690581D01*
X144899361Y-103064419D01*
X145045225Y-103416566D01*
X145256987Y-103733491D01*
X145526509Y-104003013D01*
X145843434Y-104214775D01*
X146195581Y-104360639D01*
X146569419Y-104435000D01*
X146950581Y-104435000D01*
X147324419Y-104360639D01*
X147676566Y-104214775D01*
X147993491Y-104003013D01*
X148263013Y-103733491D01*
X148474775Y-103416566D01*
X148620639Y-103064419D01*
X148695000Y-102690581D01*
X148695000Y-102309419D01*
X149905000Y-102309419D01*
X149905000Y-102690581D01*
X149979361Y-103064419D01*
X150125225Y-103416566D01*
X150336987Y-103733491D01*
X150606509Y-104003013D01*
X150923434Y-104214775D01*
X151275581Y-104360639D01*
X151649419Y-104435000D01*
X152030581Y-104435000D01*
X152404419Y-104360639D01*
X152756566Y-104214775D01*
X153073491Y-104003013D01*
X153343013Y-103733491D01*
X153554775Y-103416566D01*
X153700639Y-103064419D01*
X153775000Y-102690581D01*
X153775000Y-102309419D01*
X154985000Y-102309419D01*
X154985000Y-102690581D01*
X155059361Y-103064419D01*
X155205225Y-103416566D01*
X155416987Y-103733491D01*
X155686509Y-104003013D01*
X156003434Y-104214775D01*
X156355581Y-104360639D01*
X156729419Y-104435000D01*
X157110581Y-104435000D01*
X157484419Y-104360639D01*
X157836566Y-104214775D01*
X158153491Y-104003013D01*
X158423013Y-103733491D01*
X158634775Y-103416566D01*
X158780639Y-103064419D01*
X158855000Y-102690581D01*
X158855000Y-102309419D01*
X158780639Y-101935581D01*
X158634775Y-101583434D01*
X158423013Y-101266509D01*
X158356504Y-101200000D01*
X160061928Y-101200000D01*
X160061928Y-103800000D01*
X160074188Y-103924482D01*
X160110498Y-104044180D01*
X160169463Y-104154494D01*
X160248815Y-104251185D01*
X160345506Y-104330537D01*
X160455820Y-104389502D01*
X160575518Y-104425812D01*
X160700000Y-104438072D01*
X163300000Y-104438072D01*
X163424482Y-104425812D01*
X163544180Y-104389502D01*
X163654494Y-104330537D01*
X163751185Y-104251185D01*
X163830537Y-104154494D01*
X163889502Y-104044180D01*
X163925812Y-103924482D01*
X163938072Y-103800000D01*
X163938072Y-101568115D01*
X168615000Y-101568115D01*
X168615000Y-102431885D01*
X168783513Y-103279057D01*
X169114064Y-104077076D01*
X169593948Y-104795274D01*
X170204726Y-105406052D01*
X170922924Y-105885936D01*
X171720943Y-106216487D01*
X172568115Y-106385000D01*
X173431885Y-106385000D01*
X174279057Y-106216487D01*
X175077076Y-105885936D01*
X175795274Y-105406052D01*
X176406052Y-104795274D01*
X176885936Y-104077076D01*
X177216487Y-103279057D01*
X177385000Y-102431885D01*
X177385000Y-101568115D01*
X177216487Y-100720943D01*
X176885936Y-99922924D01*
X176406052Y-99204726D01*
X175795274Y-98593948D01*
X175077076Y-98114064D01*
X174279057Y-97783513D01*
X173431885Y-97615000D01*
X172568115Y-97615000D01*
X171720943Y-97783513D01*
X170922924Y-98114064D01*
X170204726Y-98593948D01*
X169593948Y-99204726D01*
X169114064Y-99922924D01*
X168783513Y-100720943D01*
X168615000Y-101568115D01*
X163938072Y-101568115D01*
X163938072Y-101200000D01*
X163925812Y-101075518D01*
X163889502Y-100955820D01*
X163830537Y-100845506D01*
X163751185Y-100748815D01*
X163654494Y-100669463D01*
X163544180Y-100610498D01*
X163424482Y-100574188D01*
X163300000Y-100561928D01*
X160700000Y-100561928D01*
X160575518Y-100574188D01*
X160455820Y-100610498D01*
X160345506Y-100669463D01*
X160248815Y-100748815D01*
X160169463Y-100845506D01*
X160110498Y-100955820D01*
X160074188Y-101075518D01*
X160061928Y-101200000D01*
X158356504Y-101200000D01*
X158153491Y-100996987D01*
X157836566Y-100785225D01*
X157484419Y-100639361D01*
X157110581Y-100565000D01*
X156729419Y-100565000D01*
X156355581Y-100639361D01*
X156003434Y-100785225D01*
X155686509Y-100996987D01*
X155416987Y-101266509D01*
X155205225Y-101583434D01*
X155059361Y-101935581D01*
X154985000Y-102309419D01*
X153775000Y-102309419D01*
X153700639Y-101935581D01*
X153554775Y-101583434D01*
X153343013Y-101266509D01*
X153073491Y-100996987D01*
X152756566Y-100785225D01*
X152404419Y-100639361D01*
X152030581Y-100565000D01*
X151649419Y-100565000D01*
X151275581Y-100639361D01*
X150923434Y-100785225D01*
X150606509Y-100996987D01*
X150336987Y-101266509D01*
X150125225Y-101583434D01*
X149979361Y-101935581D01*
X149905000Y-102309419D01*
X148695000Y-102309419D01*
X148620639Y-101935581D01*
X148474775Y-101583434D01*
X148263013Y-101266509D01*
X147993491Y-100996987D01*
X147676566Y-100785225D01*
X147324419Y-100639361D01*
X146950581Y-100565000D01*
X146569419Y-100565000D01*
X146195581Y-100639361D01*
X145843434Y-100785225D01*
X145526509Y-100996987D01*
X145256987Y-101266509D01*
X145045225Y-101583434D01*
X144899361Y-101935581D01*
X144825000Y-102309419D01*
X143615000Y-102309419D01*
X143540639Y-101935581D01*
X143394775Y-101583434D01*
X143183013Y-101266509D01*
X142913491Y-100996987D01*
X142596566Y-100785225D01*
X142244419Y-100639361D01*
X141870581Y-100565000D01*
X141489419Y-100565000D01*
X141115581Y-100639361D01*
X140763434Y-100785225D01*
X140446509Y-100996987D01*
X140176987Y-101266509D01*
X139965225Y-101583434D01*
X139819361Y-101935581D01*
X139745000Y-102309419D01*
X139745000Y-102690581D01*
X139819361Y-103064419D01*
X139965225Y-103416566D01*
X140176987Y-103733491D01*
X140446509Y-104003013D01*
X140763434Y-104214775D01*
X140795000Y-104227850D01*
X140795001Y-107953420D01*
X136904956Y-111843466D01*
X136871183Y-111871183D01*
X136760589Y-112005942D01*
X136678411Y-112159688D01*
X136627805Y-112326511D01*
X136615000Y-112456524D01*
X136615000Y-112456531D01*
X136610719Y-112500000D01*
X136615000Y-112543469D01*
X136615001Y-130873000D01*
X132935000Y-130873000D01*
X132935000Y-130858665D01*
X132879853Y-130581426D01*
X132771680Y-130320273D01*
X132614637Y-130085241D01*
X132414759Y-129885363D01*
X132179727Y-129728320D01*
X131918574Y-129620147D01*
X131641335Y-129565000D01*
X131358665Y-129565000D01*
X131081426Y-129620147D01*
X130820273Y-129728320D01*
X130585241Y-129885363D01*
X130385363Y-130085241D01*
X130228320Y-130320273D01*
X130120147Y-130581426D01*
X130065000Y-130858665D01*
X130065000Y-130873000D01*
X127935000Y-130873000D01*
X127935000Y-130858665D01*
X127879853Y-130581426D01*
X127771680Y-130320273D01*
X127614637Y-130085241D01*
X127414759Y-129885363D01*
X127179727Y-129728320D01*
X126918574Y-129620147D01*
X126641335Y-129565000D01*
X126358665Y-129565000D01*
X126081426Y-129620147D01*
X125820273Y-129728320D01*
X125585241Y-129885363D01*
X125385363Y-130085241D01*
X125228320Y-130320273D01*
X125120147Y-130581426D01*
X125065000Y-130858665D01*
X125065000Y-130873000D01*
X113145970Y-130873000D01*
X113123838Y-130858212D01*
X112853421Y-130746202D01*
X112566348Y-130689100D01*
X112273652Y-130689100D01*
X111986579Y-130746202D01*
X111716162Y-130858212D01*
X111694030Y-130873000D01*
X109696749Y-130873000D01*
X109686739Y-130862990D01*
X109410089Y-130678139D01*
X109102692Y-130550811D01*
X108776362Y-130485900D01*
X108443638Y-130485900D01*
X108117308Y-130550811D01*
X107809911Y-130678139D01*
X107533261Y-130862990D01*
X107523251Y-130873000D01*
X100660000Y-130873000D01*
X100660000Y-128833638D01*
X115810900Y-128833638D01*
X115810900Y-129166362D01*
X115875811Y-129492692D01*
X116003139Y-129800089D01*
X116187990Y-130076739D01*
X116423261Y-130312010D01*
X116699911Y-130496861D01*
X117007308Y-130624189D01*
X117333638Y-130689100D01*
X117666362Y-130689100D01*
X117992692Y-130624189D01*
X118300089Y-130496861D01*
X118576739Y-130312010D01*
X118812010Y-130076739D01*
X118996861Y-129800089D01*
X119124189Y-129492692D01*
X119189100Y-129166362D01*
X119189100Y-128833638D01*
X119124189Y-128507308D01*
X118996861Y-128199911D01*
X118812010Y-127923261D01*
X118576739Y-127687990D01*
X118300089Y-127503139D01*
X117992692Y-127375811D01*
X117666362Y-127310900D01*
X117333638Y-127310900D01*
X117007308Y-127375811D01*
X116699911Y-127503139D01*
X116423261Y-127687990D01*
X116187990Y-127923261D01*
X116003139Y-128199911D01*
X115875811Y-128507308D01*
X115810900Y-128833638D01*
X100660000Y-128833638D01*
X100660000Y-122800000D01*
X125561928Y-122800000D01*
X125574188Y-122924482D01*
X125610498Y-123044180D01*
X125669463Y-123154494D01*
X125748815Y-123251185D01*
X125845506Y-123330537D01*
X125955820Y-123389502D01*
X126075518Y-123425812D01*
X126200000Y-123438072D01*
X126714250Y-123435000D01*
X126873000Y-123276250D01*
X126873000Y-122127000D01*
X125723750Y-122127000D01*
X125565000Y-122285750D01*
X125561928Y-122800000D01*
X100660000Y-122800000D01*
X100660000Y-121200000D01*
X125561928Y-121200000D01*
X125565000Y-121714250D01*
X125723750Y-121873000D01*
X126873000Y-121873000D01*
X126873000Y-120723750D01*
X127127000Y-120723750D01*
X127127000Y-121873000D01*
X127147000Y-121873000D01*
X127147000Y-122127000D01*
X127127000Y-122127000D01*
X127127000Y-123276250D01*
X127285750Y-123435000D01*
X127800000Y-123438072D01*
X127924482Y-123425812D01*
X128044180Y-123389502D01*
X128154494Y-123330537D01*
X128251185Y-123251185D01*
X128330537Y-123154494D01*
X128389502Y-123044180D01*
X128418661Y-122948057D01*
X128585241Y-123114637D01*
X128820273Y-123271680D01*
X129081426Y-123379853D01*
X129358665Y-123435000D01*
X129641335Y-123435000D01*
X129918574Y-123379853D01*
X130179727Y-123271680D01*
X130414759Y-123114637D01*
X130614637Y-122914759D01*
X130771680Y-122679727D01*
X130879853Y-122418574D01*
X130935000Y-122141335D01*
X130935000Y-121858665D01*
X130879853Y-121581426D01*
X130771680Y-121320273D01*
X130614637Y-121085241D01*
X130414759Y-120885363D01*
X130179727Y-120728320D01*
X129918574Y-120620147D01*
X129641335Y-120565000D01*
X129358665Y-120565000D01*
X129081426Y-120620147D01*
X128820273Y-120728320D01*
X128585241Y-120885363D01*
X128418661Y-121051943D01*
X128389502Y-120955820D01*
X128330537Y-120845506D01*
X128251185Y-120748815D01*
X128154494Y-120669463D01*
X128044180Y-120610498D01*
X127924482Y-120574188D01*
X127800000Y-120561928D01*
X127285750Y-120565000D01*
X127127000Y-120723750D01*
X126873000Y-120723750D01*
X126714250Y-120565000D01*
X126200000Y-120561928D01*
X126075518Y-120574188D01*
X125955820Y-120610498D01*
X125845506Y-120669463D01*
X125748815Y-120748815D01*
X125669463Y-120845506D01*
X125610498Y-120955820D01*
X125574188Y-121075518D01*
X125561928Y-121200000D01*
X100660000Y-121200000D01*
X100660000Y-116300000D01*
X104561928Y-116300000D01*
X104574188Y-116424482D01*
X104610498Y-116544180D01*
X104669463Y-116654494D01*
X104748815Y-116751185D01*
X104845506Y-116830537D01*
X104955820Y-116889502D01*
X105075518Y-116925812D01*
X105200000Y-116938072D01*
X105714250Y-116935000D01*
X105873000Y-116776250D01*
X105873000Y-115627000D01*
X104723750Y-115627000D01*
X104565000Y-115785750D01*
X104561928Y-116300000D01*
X100660000Y-116300000D01*
X100660000Y-114700000D01*
X104561928Y-114700000D01*
X104565000Y-115214250D01*
X104723750Y-115373000D01*
X105873000Y-115373000D01*
X105873000Y-114223750D01*
X106127000Y-114223750D01*
X106127000Y-115373000D01*
X106147000Y-115373000D01*
X106147000Y-115627000D01*
X106127000Y-115627000D01*
X106127000Y-116776250D01*
X106285750Y-116935000D01*
X106800000Y-116938072D01*
X106924482Y-116925812D01*
X107044180Y-116889502D01*
X107154494Y-116830537D01*
X107251185Y-116751185D01*
X107330537Y-116654494D01*
X107389502Y-116544180D01*
X107418661Y-116448057D01*
X107585241Y-116614637D01*
X107820273Y-116771680D01*
X108081426Y-116879853D01*
X108358665Y-116935000D01*
X108641335Y-116935000D01*
X108918574Y-116879853D01*
X109179727Y-116771680D01*
X109414759Y-116614637D01*
X109614637Y-116414759D01*
X109691316Y-116300000D01*
X116061928Y-116300000D01*
X116074188Y-116424482D01*
X116110498Y-116544180D01*
X116169463Y-116654494D01*
X116248815Y-116751185D01*
X116345506Y-116830537D01*
X116455820Y-116889502D01*
X116575518Y-116925812D01*
X116700000Y-116938072D01*
X117214250Y-116935000D01*
X117373000Y-116776250D01*
X117373000Y-115627000D01*
X116223750Y-115627000D01*
X116065000Y-115785750D01*
X116061928Y-116300000D01*
X109691316Y-116300000D01*
X109771680Y-116179727D01*
X109879853Y-115918574D01*
X109935000Y-115641335D01*
X109935000Y-115358665D01*
X109879853Y-115081426D01*
X109771680Y-114820273D01*
X109691317Y-114700000D01*
X116061928Y-114700000D01*
X116065000Y-115214250D01*
X116223750Y-115373000D01*
X117373000Y-115373000D01*
X117373000Y-114223750D01*
X117627000Y-114223750D01*
X117627000Y-115373000D01*
X117647000Y-115373000D01*
X117647000Y-115627000D01*
X117627000Y-115627000D01*
X117627000Y-116776250D01*
X117785750Y-116935000D01*
X118300000Y-116938072D01*
X118424482Y-116925812D01*
X118544180Y-116889502D01*
X118654494Y-116830537D01*
X118751185Y-116751185D01*
X118830537Y-116654494D01*
X118889502Y-116544180D01*
X118918661Y-116448057D01*
X119085241Y-116614637D01*
X119320273Y-116771680D01*
X119581426Y-116879853D01*
X119858665Y-116935000D01*
X120141335Y-116935000D01*
X120418574Y-116879853D01*
X120679727Y-116771680D01*
X120914759Y-116614637D01*
X121114637Y-116414759D01*
X121271680Y-116179727D01*
X121379853Y-115918574D01*
X121435000Y-115641335D01*
X121435000Y-115358665D01*
X121379853Y-115081426D01*
X121271680Y-114820273D01*
X121114637Y-114585241D01*
X120914759Y-114385363D01*
X120679727Y-114228320D01*
X120418574Y-114120147D01*
X120141335Y-114065000D01*
X119858665Y-114065000D01*
X119581426Y-114120147D01*
X119320273Y-114228320D01*
X119085241Y-114385363D01*
X118918661Y-114551943D01*
X118889502Y-114455820D01*
X118830537Y-114345506D01*
X118751185Y-114248815D01*
X118654494Y-114169463D01*
X118544180Y-114110498D01*
X118424482Y-114074188D01*
X118300000Y-114061928D01*
X117785750Y-114065000D01*
X117627000Y-114223750D01*
X117373000Y-114223750D01*
X117214250Y-114065000D01*
X116700000Y-114061928D01*
X116575518Y-114074188D01*
X116455820Y-114110498D01*
X116345506Y-114169463D01*
X116248815Y-114248815D01*
X116169463Y-114345506D01*
X116110498Y-114455820D01*
X116074188Y-114575518D01*
X116061928Y-114700000D01*
X109691317Y-114700000D01*
X109614637Y-114585241D01*
X109414759Y-114385363D01*
X109179727Y-114228320D01*
X108918574Y-114120147D01*
X108641335Y-114065000D01*
X108358665Y-114065000D01*
X108081426Y-114120147D01*
X107820273Y-114228320D01*
X107585241Y-114385363D01*
X107418661Y-114551943D01*
X107389502Y-114455820D01*
X107330537Y-114345506D01*
X107251185Y-114248815D01*
X107154494Y-114169463D01*
X107044180Y-114110498D01*
X106924482Y-114074188D01*
X106800000Y-114061928D01*
X106285750Y-114065000D01*
X106127000Y-114223750D01*
X105873000Y-114223750D01*
X105714250Y-114065000D01*
X105200000Y-114061928D01*
X105075518Y-114074188D01*
X104955820Y-114110498D01*
X104845506Y-114169463D01*
X104748815Y-114248815D01*
X104669463Y-114345506D01*
X104610498Y-114455820D01*
X104574188Y-114575518D01*
X104561928Y-114700000D01*
X100660000Y-114700000D01*
X100660000Y-112858665D01*
X128565000Y-112858665D01*
X128565000Y-113141335D01*
X128620147Y-113418574D01*
X128728320Y-113679727D01*
X128885363Y-113914759D01*
X129085241Y-114114637D01*
X129320273Y-114271680D01*
X129581426Y-114379853D01*
X129858665Y-114435000D01*
X130141335Y-114435000D01*
X130418574Y-114379853D01*
X130679727Y-114271680D01*
X130914759Y-114114637D01*
X131036694Y-113992702D01*
X134186903Y-113992702D01*
X134258486Y-114236671D01*
X134513996Y-114357571D01*
X134788184Y-114426300D01*
X135070512Y-114440217D01*
X135350130Y-114398787D01*
X135616292Y-114303603D01*
X135741514Y-114236671D01*
X135813097Y-113992702D01*
X135000000Y-113179605D01*
X134186903Y-113992702D01*
X131036694Y-113992702D01*
X131114637Y-113914759D01*
X131271680Y-113679727D01*
X131379853Y-113418574D01*
X131435000Y-113141335D01*
X131435000Y-113070512D01*
X133559783Y-113070512D01*
X133601213Y-113350130D01*
X133696397Y-113616292D01*
X133763329Y-113741514D01*
X134007298Y-113813097D01*
X134820395Y-113000000D01*
X135179605Y-113000000D01*
X135992702Y-113813097D01*
X136236671Y-113741514D01*
X136357571Y-113486004D01*
X136426300Y-113211816D01*
X136440217Y-112929488D01*
X136398787Y-112649870D01*
X136303603Y-112383708D01*
X136236671Y-112258486D01*
X135992702Y-112186903D01*
X135179605Y-113000000D01*
X134820395Y-113000000D01*
X134007298Y-112186903D01*
X133763329Y-112258486D01*
X133642429Y-112513996D01*
X133573700Y-112788184D01*
X133559783Y-113070512D01*
X131435000Y-113070512D01*
X131435000Y-112858665D01*
X131379853Y-112581426D01*
X131271680Y-112320273D01*
X131114637Y-112085241D01*
X131036694Y-112007298D01*
X134186903Y-112007298D01*
X135000000Y-112820395D01*
X135813097Y-112007298D01*
X135741514Y-111763329D01*
X135486004Y-111642429D01*
X135211816Y-111573700D01*
X134929488Y-111559783D01*
X134649870Y-111601213D01*
X134383708Y-111696397D01*
X134258486Y-111763329D01*
X134186903Y-112007298D01*
X131036694Y-112007298D01*
X130914759Y-111885363D01*
X130679727Y-111728320D01*
X130418574Y-111620147D01*
X130141335Y-111565000D01*
X129858665Y-111565000D01*
X129581426Y-111620147D01*
X129320273Y-111728320D01*
X129085241Y-111885363D01*
X128885363Y-112085241D01*
X128728320Y-112320273D01*
X128620147Y-112581426D01*
X128565000Y-112858665D01*
X100660000Y-112858665D01*
X100660000Y-101568115D01*
X102615000Y-101568115D01*
X102615000Y-102431885D01*
X102783513Y-103279057D01*
X103114064Y-104077076D01*
X103593948Y-104795274D01*
X104204726Y-105406052D01*
X104922924Y-105885936D01*
X105720943Y-106216487D01*
X106568115Y-106385000D01*
X107431885Y-106385000D01*
X108279057Y-106216487D01*
X109077076Y-105885936D01*
X109795274Y-105406052D01*
X110406052Y-104795274D01*
X110885936Y-104077076D01*
X111124969Y-103500000D01*
X116061928Y-103500000D01*
X116074188Y-103624482D01*
X116110498Y-103744180D01*
X116169463Y-103854494D01*
X116248815Y-103951185D01*
X116345506Y-104030537D01*
X116455820Y-104089502D01*
X116575518Y-104125812D01*
X116700000Y-104138072D01*
X117214250Y-104135000D01*
X117373000Y-103976250D01*
X117373000Y-102827000D01*
X116223750Y-102827000D01*
X116065000Y-102985750D01*
X116061928Y-103500000D01*
X111124969Y-103500000D01*
X111216487Y-103279057D01*
X111385000Y-102431885D01*
X111385000Y-101900000D01*
X116061928Y-101900000D01*
X116065000Y-102414250D01*
X116223750Y-102573000D01*
X117373000Y-102573000D01*
X117373000Y-101423750D01*
X117627000Y-101423750D01*
X117627000Y-102573000D01*
X117647000Y-102573000D01*
X117647000Y-102827000D01*
X117627000Y-102827000D01*
X117627000Y-103976250D01*
X117785750Y-104135000D01*
X118300000Y-104138072D01*
X118424482Y-104125812D01*
X118544180Y-104089502D01*
X118654494Y-104030537D01*
X118751185Y-103951185D01*
X118830537Y-103854494D01*
X118889502Y-103744180D01*
X118918661Y-103648057D01*
X119085241Y-103814637D01*
X119320273Y-103971680D01*
X119581426Y-104079853D01*
X119858665Y-104135000D01*
X120141335Y-104135000D01*
X120418574Y-104079853D01*
X120679727Y-103971680D01*
X120914759Y-103814637D01*
X121114637Y-103614759D01*
X121271680Y-103379727D01*
X121379853Y-103118574D01*
X121435000Y-102841335D01*
X121435000Y-102558665D01*
X121385422Y-102309419D01*
X127985000Y-102309419D01*
X127985000Y-102690581D01*
X128059361Y-103064419D01*
X128205225Y-103416566D01*
X128416987Y-103733491D01*
X128686509Y-104003013D01*
X129003434Y-104214775D01*
X129355581Y-104360639D01*
X129729419Y-104435000D01*
X130110581Y-104435000D01*
X130484419Y-104360639D01*
X130836566Y-104214775D01*
X131153491Y-104003013D01*
X131356504Y-103800000D01*
X133061928Y-103800000D01*
X133074188Y-103924482D01*
X133110498Y-104044180D01*
X133169463Y-104154494D01*
X133248815Y-104251185D01*
X133345506Y-104330537D01*
X133455820Y-104389502D01*
X133575518Y-104425812D01*
X133700000Y-104438072D01*
X134714250Y-104435000D01*
X134873000Y-104276250D01*
X134873000Y-102627000D01*
X135127000Y-102627000D01*
X135127000Y-104276250D01*
X135285750Y-104435000D01*
X136300000Y-104438072D01*
X136424482Y-104425812D01*
X136544180Y-104389502D01*
X136654494Y-104330537D01*
X136751185Y-104251185D01*
X136830537Y-104154494D01*
X136889502Y-104044180D01*
X136925812Y-103924482D01*
X136938072Y-103800000D01*
X136935000Y-102785750D01*
X136776250Y-102627000D01*
X135127000Y-102627000D01*
X134873000Y-102627000D01*
X133223750Y-102627000D01*
X133065000Y-102785750D01*
X133061928Y-103800000D01*
X131356504Y-103800000D01*
X131423013Y-103733491D01*
X131634775Y-103416566D01*
X131780639Y-103064419D01*
X131855000Y-102690581D01*
X131855000Y-102309419D01*
X131780639Y-101935581D01*
X131634775Y-101583434D01*
X131423013Y-101266509D01*
X131356504Y-101200000D01*
X133061928Y-101200000D01*
X133065000Y-102214250D01*
X133223750Y-102373000D01*
X134873000Y-102373000D01*
X134873000Y-100723750D01*
X135127000Y-100723750D01*
X135127000Y-102373000D01*
X136776250Y-102373000D01*
X136935000Y-102214250D01*
X136938072Y-101200000D01*
X136925812Y-101075518D01*
X136889502Y-100955820D01*
X136830537Y-100845506D01*
X136751185Y-100748815D01*
X136654494Y-100669463D01*
X136544180Y-100610498D01*
X136424482Y-100574188D01*
X136300000Y-100561928D01*
X135285750Y-100565000D01*
X135127000Y-100723750D01*
X134873000Y-100723750D01*
X134714250Y-100565000D01*
X133700000Y-100561928D01*
X133575518Y-100574188D01*
X133455820Y-100610498D01*
X133345506Y-100669463D01*
X133248815Y-100748815D01*
X133169463Y-100845506D01*
X133110498Y-100955820D01*
X133074188Y-101075518D01*
X133061928Y-101200000D01*
X131356504Y-101200000D01*
X131153491Y-100996987D01*
X130836566Y-100785225D01*
X130484419Y-100639361D01*
X130110581Y-100565000D01*
X129729419Y-100565000D01*
X129355581Y-100639361D01*
X129003434Y-100785225D01*
X128686509Y-100996987D01*
X128416987Y-101266509D01*
X128205225Y-101583434D01*
X128059361Y-101935581D01*
X127985000Y-102309419D01*
X121385422Y-102309419D01*
X121379853Y-102281426D01*
X121271680Y-102020273D01*
X121114637Y-101785241D01*
X120914759Y-101585363D01*
X120679727Y-101428320D01*
X120418574Y-101320147D01*
X120141335Y-101265000D01*
X119858665Y-101265000D01*
X119581426Y-101320147D01*
X119320273Y-101428320D01*
X119085241Y-101585363D01*
X118918661Y-101751943D01*
X118889502Y-101655820D01*
X118830537Y-101545506D01*
X118751185Y-101448815D01*
X118654494Y-101369463D01*
X118544180Y-101310498D01*
X118424482Y-101274188D01*
X118300000Y-101261928D01*
X117785750Y-101265000D01*
X117627000Y-101423750D01*
X117373000Y-101423750D01*
X117214250Y-101265000D01*
X116700000Y-101261928D01*
X116575518Y-101274188D01*
X116455820Y-101310498D01*
X116345506Y-101369463D01*
X116248815Y-101448815D01*
X116169463Y-101545506D01*
X116110498Y-101655820D01*
X116074188Y-101775518D01*
X116061928Y-101900000D01*
X111385000Y-101900000D01*
X111385000Y-101568115D01*
X111216487Y-100720943D01*
X110885936Y-99922924D01*
X110406052Y-99204726D01*
X109795274Y-98593948D01*
X109077076Y-98114064D01*
X108279057Y-97783513D01*
X107431885Y-97615000D01*
X106568115Y-97615000D01*
X105720943Y-97783513D01*
X104922924Y-98114064D01*
X104204726Y-98593948D01*
X103593948Y-99204726D01*
X103114064Y-99922924D01*
X102783513Y-100720943D01*
X102615000Y-101568115D01*
X100660000Y-101568115D01*
X100660000Y-100029392D01*
X100731173Y-99231917D01*
X100934656Y-98488109D01*
X101266638Y-97792095D01*
X101716626Y-97165870D01*
X102270403Y-96629223D01*
X102910451Y-96199129D01*
X103616553Y-95889171D01*
X104371457Y-95707935D01*
X105024207Y-95660000D01*
X174970608Y-95660000D01*
X175768083Y-95731173D01*
%TA.AperFunction,Conductor*%
D30*
G36*
X175768083Y-95731173D02*
G01*
X176511891Y-95934656D01*
X177207905Y-96266638D01*
X177834130Y-96716626D01*
X178370777Y-97270403D01*
X178800871Y-97910451D01*
X179110829Y-98616553D01*
X179292065Y-99371457D01*
X179340001Y-100024220D01*
X179340001Y-130873000D01*
X174438072Y-130873000D01*
X174438072Y-130700000D01*
X174425812Y-130575518D01*
X174389502Y-130455820D01*
X174330537Y-130345506D01*
X174251185Y-130248815D01*
X174154494Y-130169463D01*
X174044180Y-130110498D01*
X173924482Y-130074188D01*
X173800000Y-130061928D01*
X171200000Y-130061928D01*
X171075518Y-130074188D01*
X170955820Y-130110498D01*
X170845506Y-130169463D01*
X170748815Y-130248815D01*
X170669463Y-130345506D01*
X170610498Y-130455820D01*
X170574188Y-130575518D01*
X170561928Y-130700000D01*
X170561928Y-130873000D01*
X163808082Y-130873000D01*
X163669744Y-130734662D01*
X163369199Y-130533844D01*
X163035250Y-130395518D01*
X162680732Y-130325000D01*
X162319268Y-130325000D01*
X161964750Y-130395518D01*
X161630801Y-130533844D01*
X161330256Y-130734662D01*
X161191918Y-130873000D01*
X158385000Y-130873000D01*
X158385000Y-120800000D01*
X160661928Y-120800000D01*
X160661928Y-123200000D01*
X160674188Y-123324482D01*
X160710498Y-123444180D01*
X160769463Y-123554494D01*
X160848815Y-123651185D01*
X160945506Y-123730537D01*
X161055820Y-123789502D01*
X161175518Y-123825812D01*
X161300000Y-123838072D01*
X163700000Y-123838072D01*
X163824482Y-123825812D01*
X163944180Y-123789502D01*
X164054494Y-123730537D01*
X164151185Y-123651185D01*
X164230537Y-123554494D01*
X164289502Y-123444180D01*
X164325812Y-123324482D01*
X164338072Y-123200000D01*
X164338072Y-123089650D01*
X168763470Y-127515049D01*
X168791183Y-127548817D01*
X168824951Y-127576530D01*
X168824953Y-127576532D01*
X168877919Y-127620000D01*
X168925941Y-127659411D01*
X169079687Y-127741589D01*
X169246510Y-127792195D01*
X169376523Y-127805000D01*
X169376531Y-127805000D01*
X169420000Y-127809281D01*
X169463469Y-127805000D01*
X170772150Y-127805000D01*
X170785225Y-127836566D01*
X170996987Y-128153491D01*
X171266509Y-128423013D01*
X171583434Y-128634775D01*
X171935581Y-128780639D01*
X172309419Y-128855000D01*
X172690581Y-128855000D01*
X173064419Y-128780639D01*
X173416566Y-128634775D01*
X173733491Y-128423013D01*
X174003013Y-128153491D01*
X174214775Y-127836566D01*
X174360639Y-127484419D01*
X174435000Y-127110581D01*
X174435000Y-126729419D01*
X174360639Y-126355581D01*
X174214775Y-126003434D01*
X174003013Y-125686509D01*
X173733491Y-125416987D01*
X173416566Y-125205225D01*
X173064419Y-125059361D01*
X172690581Y-124985000D01*
X172309419Y-124985000D01*
X171935581Y-125059361D01*
X171583434Y-125205225D01*
X171266509Y-125416987D01*
X170996987Y-125686509D01*
X170785225Y-126003434D01*
X170772150Y-126035000D01*
X169786579Y-126035000D01*
X165156534Y-121404956D01*
X165128817Y-121371183D01*
X164994059Y-121260589D01*
X164840313Y-121178411D01*
X164673490Y-121127805D01*
X164543477Y-121115000D01*
X164543469Y-121115000D01*
X164500000Y-121110719D01*
X164456531Y-121115000D01*
X164338072Y-121115000D01*
X164338072Y-120800000D01*
X164325812Y-120675518D01*
X164289502Y-120555820D01*
X164230537Y-120445506D01*
X164151185Y-120348815D01*
X164054494Y-120269463D01*
X163944180Y-120210498D01*
X163824482Y-120174188D01*
X163700000Y-120161928D01*
X161300000Y-120161928D01*
X161175518Y-120174188D01*
X161055820Y-120210498D01*
X160945506Y-120269463D01*
X160848815Y-120348815D01*
X160769463Y-120445506D01*
X160710498Y-120555820D01*
X160674188Y-120675518D01*
X160661928Y-120800000D01*
X158385000Y-120800000D01*
X158385000Y-118700000D01*
X170561928Y-118700000D01*
X170561928Y-121300000D01*
X170574188Y-121424482D01*
X170610498Y-121544180D01*
X170669463Y-121654494D01*
X170748815Y-121751185D01*
X170845506Y-121830537D01*
X170955820Y-121889502D01*
X171075518Y-121925812D01*
X171200000Y-121938072D01*
X173800000Y-121938072D01*
X173924482Y-121925812D01*
X174044180Y-121889502D01*
X174154494Y-121830537D01*
X174251185Y-121751185D01*
X174330537Y-121654494D01*
X174389502Y-121544180D01*
X174425812Y-121424482D01*
X174438072Y-121300000D01*
X174438072Y-118700000D01*
X174425812Y-118575518D01*
X174389502Y-118455820D01*
X174330537Y-118345506D01*
X174251185Y-118248815D01*
X174154494Y-118169463D01*
X174044180Y-118110498D01*
X173924482Y-118074188D01*
X173800000Y-118061928D01*
X171200000Y-118061928D01*
X171075518Y-118074188D01*
X170955820Y-118110498D01*
X170845506Y-118169463D01*
X170748815Y-118248815D01*
X170669463Y-118345506D01*
X170610498Y-118455820D01*
X170574188Y-118575518D01*
X170561928Y-118700000D01*
X158385000Y-118700000D01*
X158385000Y-117538454D01*
X158417205Y-117490256D01*
X158495226Y-117301898D01*
X158535000Y-117101939D01*
X158535000Y-116898061D01*
X158495226Y-116698102D01*
X158417205Y-116509744D01*
X158303937Y-116340226D01*
X158159774Y-116196063D01*
X157990256Y-116082795D01*
X157801898Y-116004774D01*
X157601939Y-115965000D01*
X157398061Y-115965000D01*
X157198102Y-116004774D01*
X157009744Y-116082795D01*
X156840226Y-116196063D01*
X156696063Y-116340226D01*
X156582795Y-116509744D01*
X156571688Y-116536558D01*
X156561010Y-116482875D01*
X156448042Y-116210147D01*
X156284039Y-115964698D01*
X156075302Y-115755961D01*
X155829853Y-115591958D01*
X155557125Y-115478990D01*
X155487190Y-115465079D01*
X155661413Y-115392913D01*
X155848620Y-115267826D01*
X156007826Y-115108620D01*
X156132913Y-114921413D01*
X156219075Y-114713401D01*
X156263000Y-114492576D01*
X156263000Y-114267424D01*
X156219075Y-114046599D01*
X156132913Y-113838587D01*
X156007826Y-113651380D01*
X155848620Y-113492174D01*
X155661413Y-113367087D01*
X155453401Y-113280925D01*
X155232576Y-113237000D01*
X155007424Y-113237000D01*
X154786599Y-113280925D01*
X154578587Y-113367087D01*
X154391380Y-113492174D01*
X154232174Y-113651380D01*
X154107087Y-113838587D01*
X154020925Y-114046599D01*
X153977000Y-114267424D01*
X153977000Y-114492576D01*
X154020925Y-114713401D01*
X154107087Y-114921413D01*
X154232174Y-115108620D01*
X154391380Y-115267826D01*
X154578587Y-115392913D01*
X154752810Y-115465079D01*
X154682875Y-115478990D01*
X154410147Y-115591958D01*
X154164698Y-115755961D01*
X153955961Y-115964698D01*
X153791958Y-116210147D01*
X153678990Y-116482875D01*
X153621400Y-116772401D01*
X153621400Y-117067599D01*
X153678990Y-117357125D01*
X153791958Y-117629853D01*
X153955961Y-117875302D01*
X154164698Y-118084039D01*
X154323281Y-118190000D01*
X154164698Y-118295961D01*
X153955961Y-118504698D01*
X153791958Y-118750147D01*
X153678990Y-119022875D01*
X153621400Y-119312401D01*
X153621400Y-119607599D01*
X153678990Y-119897125D01*
X153791958Y-120169853D01*
X153955961Y-120415302D01*
X154164698Y-120624039D01*
X154323281Y-120730000D01*
X154164698Y-120835961D01*
X153955961Y-121044698D01*
X153791958Y-121290147D01*
X153678990Y-121562875D01*
X153621400Y-121852401D01*
X153621400Y-122147599D01*
X153678990Y-122437125D01*
X153791958Y-122709853D01*
X153955961Y-122955302D01*
X154164698Y-123164039D01*
X154323281Y-123270000D01*
X154164698Y-123375961D01*
X153955961Y-123584698D01*
X153791958Y-123830147D01*
X153678990Y-124102875D01*
X153621400Y-124392401D01*
X153621400Y-124687599D01*
X153678990Y-124977125D01*
X153791958Y-125249853D01*
X153955961Y-125495302D01*
X154164698Y-125704039D01*
X154323281Y-125810000D01*
X154164698Y-125915961D01*
X153955961Y-126124698D01*
X153791958Y-126370147D01*
X153678990Y-126642875D01*
X153621400Y-126932401D01*
X153621400Y-127227599D01*
X153637895Y-127310526D01*
X151020000Y-129928422D01*
X150145709Y-129054130D01*
X150418574Y-128999853D01*
X150679727Y-128891680D01*
X150914759Y-128734637D01*
X151114637Y-128534759D01*
X151271680Y-128299727D01*
X151379853Y-128038574D01*
X151435000Y-127761335D01*
X151435000Y-127478665D01*
X151379853Y-127201426D01*
X151271680Y-126940273D01*
X151114637Y-126705241D01*
X150914759Y-126505363D01*
X150679727Y-126348320D01*
X150418574Y-126240147D01*
X150141335Y-126185000D01*
X149858665Y-126185000D01*
X149581426Y-126240147D01*
X149320273Y-126348320D01*
X149085241Y-126505363D01*
X148885363Y-126705241D01*
X148730000Y-126937759D01*
X148574637Y-126705241D01*
X148374759Y-126505363D01*
X148139727Y-126348320D01*
X147878574Y-126240147D01*
X147601335Y-126185000D01*
X147318665Y-126185000D01*
X147041426Y-126240147D01*
X146780273Y-126348320D01*
X146545241Y-126505363D01*
X146345363Y-126705241D01*
X146190000Y-126937759D01*
X146034637Y-126705241D01*
X145834759Y-126505363D01*
X145599727Y-126348320D01*
X145338574Y-126240147D01*
X145061335Y-126185000D01*
X144778665Y-126185000D01*
X144501426Y-126240147D01*
X144240273Y-126348320D01*
X144005241Y-126505363D01*
X143805363Y-126705241D01*
X143648320Y-126940273D01*
X143540147Y-127201426D01*
X143485000Y-127478665D01*
X143485000Y-127761335D01*
X143540147Y-128038574D01*
X143648320Y-128299727D01*
X143805363Y-128534759D01*
X144005241Y-128734637D01*
X144240273Y-128891680D01*
X144501426Y-128999853D01*
X144778665Y-129055000D01*
X145061335Y-129055000D01*
X145338574Y-128999853D01*
X145599727Y-128891680D01*
X145834759Y-128734637D01*
X146034637Y-128534759D01*
X146190000Y-128302241D01*
X146345363Y-128534759D01*
X146545241Y-128734637D01*
X146780273Y-128891680D01*
X147041426Y-128999853D01*
X147318665Y-129055000D01*
X147601335Y-129055000D01*
X147636439Y-129048017D01*
X149461421Y-130873000D01*
X140702161Y-130873000D01*
X140835302Y-130784039D01*
X141044039Y-130575302D01*
X141208042Y-130329853D01*
X141321010Y-130057125D01*
X141378600Y-129767599D01*
X141378600Y-129472401D01*
X141321010Y-129182875D01*
X141208042Y-128910147D01*
X141044039Y-128664698D01*
X140835302Y-128455961D01*
X140676719Y-128350000D01*
X140835302Y-128244039D01*
X141044039Y-128035302D01*
X141208042Y-127789853D01*
X141321010Y-127517125D01*
X141378600Y-127227599D01*
X141378600Y-126932401D01*
X141321010Y-126642875D01*
X141208042Y-126370147D01*
X141044039Y-126124698D01*
X140835302Y-125915961D01*
X140676719Y-125810000D01*
X140835302Y-125704039D01*
X141044039Y-125495302D01*
X141208042Y-125249853D01*
X141321010Y-124977125D01*
X141378600Y-124687599D01*
X141378600Y-124392401D01*
X141321010Y-124102875D01*
X141208042Y-123830147D01*
X141044039Y-123584698D01*
X140835302Y-123375961D01*
X140676719Y-123270000D01*
X140835302Y-123164039D01*
X141044039Y-122955302D01*
X141208042Y-122709853D01*
X141321010Y-122437125D01*
X141378600Y-122147599D01*
X141378600Y-121852401D01*
X141321010Y-121562875D01*
X141208042Y-121290147D01*
X141044039Y-121044698D01*
X140835302Y-120835961D01*
X140676719Y-120730000D01*
X140835302Y-120624039D01*
X141044039Y-120415302D01*
X141208042Y-120169853D01*
X141321010Y-119897125D01*
X141328660Y-119858665D01*
X143485000Y-119858665D01*
X143485000Y-120141335D01*
X143540147Y-120418574D01*
X143648320Y-120679727D01*
X143805363Y-120914759D01*
X144005241Y-121114637D01*
X144240273Y-121271680D01*
X144501426Y-121379853D01*
X144778665Y-121435000D01*
X145061335Y-121435000D01*
X145338574Y-121379853D01*
X145599727Y-121271680D01*
X145834759Y-121114637D01*
X146034637Y-120914759D01*
X146190000Y-120682241D01*
X146345363Y-120914759D01*
X146545241Y-121114637D01*
X146780273Y-121271680D01*
X147041426Y-121379853D01*
X147318665Y-121435000D01*
X147601335Y-121435000D01*
X147878574Y-121379853D01*
X148139727Y-121271680D01*
X148374759Y-121114637D01*
X148573357Y-120916039D01*
X148574188Y-120924482D01*
X148610498Y-121044180D01*
X148669463Y-121154494D01*
X148748815Y-121251185D01*
X148845506Y-121330537D01*
X148955820Y-121389502D01*
X149075518Y-121425812D01*
X149200000Y-121438072D01*
X149714250Y-121435000D01*
X149873000Y-121276250D01*
X149873000Y-120127000D01*
X150127000Y-120127000D01*
X150127000Y-121276250D01*
X150285750Y-121435000D01*
X150800000Y-121438072D01*
X150924482Y-121425812D01*
X151044180Y-121389502D01*
X151154494Y-121330537D01*
X151251185Y-121251185D01*
X151330537Y-121154494D01*
X151389502Y-121044180D01*
X151425812Y-120924482D01*
X151438072Y-120800000D01*
X151435000Y-120285750D01*
X151276250Y-120127000D01*
X150127000Y-120127000D01*
X149873000Y-120127000D01*
X149853000Y-120127000D01*
X149853000Y-119873000D01*
X149873000Y-119873000D01*
X149873000Y-118723750D01*
X150127000Y-118723750D01*
X150127000Y-119873000D01*
X151276250Y-119873000D01*
X151435000Y-119714250D01*
X151438072Y-119200000D01*
X151425812Y-119075518D01*
X151389502Y-118955820D01*
X151330537Y-118845506D01*
X151251185Y-118748815D01*
X151154494Y-118669463D01*
X151044180Y-118610498D01*
X150924482Y-118574188D01*
X150800000Y-118561928D01*
X150285750Y-118565000D01*
X150127000Y-118723750D01*
X149873000Y-118723750D01*
X149714250Y-118565000D01*
X149200000Y-118561928D01*
X149075518Y-118574188D01*
X148955820Y-118610498D01*
X148845506Y-118669463D01*
X148748815Y-118748815D01*
X148669463Y-118845506D01*
X148610498Y-118955820D01*
X148574188Y-119075518D01*
X148573357Y-119083961D01*
X148374759Y-118885363D01*
X148345000Y-118865479D01*
X148345000Y-117540980D01*
X148351013Y-117536962D01*
X148536962Y-117351013D01*
X148683061Y-117132359D01*
X148783696Y-116889405D01*
X148835000Y-116631486D01*
X148835000Y-116368514D01*
X148783696Y-116110595D01*
X148683061Y-115867641D01*
X148536962Y-115648987D01*
X148351013Y-115463038D01*
X148132359Y-115316939D01*
X147889405Y-115216304D01*
X147631486Y-115165000D01*
X147368514Y-115165000D01*
X147110595Y-115216304D01*
X146867641Y-115316939D01*
X146648987Y-115463038D01*
X146463038Y-115648987D01*
X146316939Y-115867641D01*
X146216304Y-116110595D01*
X146165000Y-116368514D01*
X146165000Y-116631486D01*
X146216304Y-116889405D01*
X146316939Y-117132359D01*
X146463038Y-117351013D01*
X146575001Y-117462976D01*
X146575000Y-118865478D01*
X146545241Y-118885363D01*
X146345363Y-119085241D01*
X146190000Y-119317759D01*
X146034637Y-119085241D01*
X145834759Y-118885363D01*
X145599727Y-118728320D01*
X145338574Y-118620147D01*
X145061335Y-118565000D01*
X144778665Y-118565000D01*
X144501426Y-118620147D01*
X144240273Y-118728320D01*
X144005241Y-118885363D01*
X143805363Y-119085241D01*
X143648320Y-119320273D01*
X143540147Y-119581426D01*
X143485000Y-119858665D01*
X141328660Y-119858665D01*
X141378600Y-119607599D01*
X141378600Y-119312401D01*
X141321010Y-119022875D01*
X141208042Y-118750147D01*
X141044039Y-118504698D01*
X140835302Y-118295961D01*
X140676719Y-118190000D01*
X140835302Y-118084039D01*
X141044039Y-117875302D01*
X141208042Y-117629853D01*
X141321010Y-117357125D01*
X141378600Y-117067599D01*
X141378600Y-116772401D01*
X141321010Y-116482875D01*
X141208042Y-116210147D01*
X141044039Y-115964698D01*
X140835302Y-115755961D01*
X140589853Y-115591958D01*
X140317125Y-115478990D01*
X140247190Y-115465079D01*
X140421413Y-115392913D01*
X140608620Y-115267826D01*
X140767826Y-115108620D01*
X140892913Y-114921413D01*
X140979075Y-114713401D01*
X141023000Y-114492576D01*
X141023000Y-114267424D01*
X140979075Y-114046599D01*
X140892913Y-113838587D01*
X140767826Y-113651380D01*
X140608620Y-113492174D01*
X140421413Y-113367087D01*
X140213401Y-113280925D01*
X139992576Y-113237000D01*
X139767424Y-113237000D01*
X139546599Y-113280925D01*
X139338587Y-113367087D01*
X139151380Y-113492174D01*
X138992174Y-113651380D01*
X138867087Y-113838587D01*
X138780925Y-114046599D01*
X138737000Y-114267424D01*
X138737000Y-114492576D01*
X138780925Y-114713401D01*
X138867087Y-114921413D01*
X138992174Y-115108620D01*
X139151380Y-115267826D01*
X139338587Y-115392913D01*
X139512810Y-115465079D01*
X139442875Y-115478990D01*
X139170147Y-115591958D01*
X138924698Y-115755961D01*
X138715961Y-115964698D01*
X138551958Y-116210147D01*
X138438990Y-116482875D01*
X138385000Y-116754302D01*
X138385000Y-112866578D01*
X139963064Y-111288514D01*
X146165000Y-111288514D01*
X146165000Y-111551486D01*
X146216304Y-111809405D01*
X146316939Y-112052359D01*
X146463038Y-112271013D01*
X146648987Y-112456962D01*
X146867641Y-112603061D01*
X147110595Y-112703696D01*
X147368514Y-112755000D01*
X147631486Y-112755000D01*
X147889405Y-112703696D01*
X148132359Y-112603061D01*
X148351013Y-112456962D01*
X148502975Y-112305000D01*
X163553422Y-112305000D01*
X166843470Y-115595049D01*
X166871183Y-115628817D01*
X166904951Y-115656530D01*
X166904953Y-115656532D01*
X167005941Y-115739411D01*
X167159686Y-115821589D01*
X167231811Y-115843468D01*
X167326510Y-115872195D01*
X167456523Y-115885000D01*
X167456531Y-115885000D01*
X167500000Y-115889281D01*
X167543469Y-115885000D01*
X170817587Y-115885000D01*
X170996987Y-116153491D01*
X171266509Y-116423013D01*
X171583434Y-116634775D01*
X171935581Y-116780639D01*
X172309419Y-116855000D01*
X172690581Y-116855000D01*
X173064419Y-116780639D01*
X173416566Y-116634775D01*
X173733491Y-116423013D01*
X174003013Y-116153491D01*
X174214775Y-115836566D01*
X174360639Y-115484419D01*
X174435000Y-115110581D01*
X174435000Y-114729419D01*
X174360639Y-114355581D01*
X174214775Y-114003434D01*
X174003013Y-113686509D01*
X173733491Y-113416987D01*
X173416566Y-113205225D01*
X173064419Y-113059361D01*
X172690581Y-112985000D01*
X172309419Y-112985000D01*
X171935581Y-113059361D01*
X171583434Y-113205225D01*
X171266509Y-113416987D01*
X170996987Y-113686509D01*
X170785225Y-114003434D01*
X170739013Y-114115000D01*
X167866579Y-114115000D01*
X164940803Y-111189224D01*
X171330381Y-111189224D01*
X171462317Y-111484312D01*
X171803045Y-111655159D01*
X172170557Y-111756250D01*
X172550729Y-111783701D01*
X172928951Y-111736457D01*
X173290690Y-111616333D01*
X173537683Y-111484312D01*
X173669619Y-111189224D01*
X172500000Y-110019605D01*
X171330381Y-111189224D01*
X164940803Y-111189224D01*
X164576534Y-110824956D01*
X164548817Y-110791183D01*
X164414059Y-110680589D01*
X164260313Y-110598411D01*
X164093490Y-110547805D01*
X163963477Y-110535000D01*
X163963469Y-110535000D01*
X163920000Y-110530719D01*
X163876531Y-110535000D01*
X148502975Y-110535000D01*
X148351013Y-110383038D01*
X148132359Y-110236939D01*
X147889405Y-110136304D01*
X147631486Y-110085000D01*
X147368514Y-110085000D01*
X147110595Y-110136304D01*
X146867641Y-110236939D01*
X146648987Y-110383038D01*
X146463038Y-110568987D01*
X146316939Y-110787641D01*
X146216304Y-111030595D01*
X146165000Y-111288514D01*
X139963064Y-111288514D01*
X141360849Y-109890729D01*
X170556299Y-109890729D01*
X170603543Y-110268951D01*
X170723667Y-110630690D01*
X170855688Y-110877683D01*
X171150776Y-111009619D01*
X172320395Y-109840000D01*
X172679605Y-109840000D01*
X173849224Y-111009619D01*
X174144312Y-110877683D01*
X174315159Y-110536955D01*
X174416250Y-110169443D01*
X174443701Y-109789271D01*
X174396457Y-109411049D01*
X174276333Y-109049310D01*
X174144312Y-108802317D01*
X173849224Y-108670381D01*
X172679605Y-109840000D01*
X172320395Y-109840000D01*
X171150776Y-108670381D01*
X170855688Y-108802317D01*
X170684841Y-109143045D01*
X170583750Y-109510557D01*
X170556299Y-109890729D01*
X141360849Y-109890729D01*
X142275049Y-108976530D01*
X142308817Y-108948817D01*
X142419411Y-108814059D01*
X142496208Y-108670381D01*
X142501589Y-108660314D01*
X142552195Y-108493490D01*
X142552462Y-108490776D01*
X171330381Y-108490776D01*
X172500000Y-109660395D01*
X173669619Y-108490776D01*
X173537683Y-108195688D01*
X173196955Y-108024841D01*
X172829443Y-107923750D01*
X172449271Y-107896299D01*
X172071049Y-107943543D01*
X171709310Y-108063667D01*
X171462317Y-108195688D01*
X171330381Y-108490776D01*
X142552462Y-108490776D01*
X142565000Y-108363477D01*
X142565000Y-108363469D01*
X142569281Y-108320000D01*
X142565000Y-108276531D01*
X142565000Y-104227850D01*
X142596566Y-104214775D01*
X142913491Y-104003013D01*
X143183013Y-103733491D01*
X143394775Y-103416566D01*
X143540639Y-103064419D01*
X143615000Y-102690581D01*
X143615000Y-102309419D01*
X144825000Y-102309419D01*
X144825000Y-102690581D01*
X144899361Y-103064419D01*
X145045225Y-103416566D01*
X145256987Y-103733491D01*
X145526509Y-104003013D01*
X145843434Y-104214775D01*
X146195581Y-104360639D01*
X146569419Y-104435000D01*
X146950581Y-104435000D01*
X147324419Y-104360639D01*
X147676566Y-104214775D01*
X147993491Y-104003013D01*
X148263013Y-103733491D01*
X148474775Y-103416566D01*
X148620639Y-103064419D01*
X148695000Y-102690581D01*
X148695000Y-102309419D01*
X149905000Y-102309419D01*
X149905000Y-102690581D01*
X149979361Y-103064419D01*
X150125225Y-103416566D01*
X150336987Y-103733491D01*
X150606509Y-104003013D01*
X150923434Y-104214775D01*
X151275581Y-104360639D01*
X151649419Y-104435000D01*
X152030581Y-104435000D01*
X152404419Y-104360639D01*
X152756566Y-104214775D01*
X153073491Y-104003013D01*
X153343013Y-103733491D01*
X153554775Y-103416566D01*
X153700639Y-103064419D01*
X153775000Y-102690581D01*
X153775000Y-102309419D01*
X154985000Y-102309419D01*
X154985000Y-102690581D01*
X155059361Y-103064419D01*
X155205225Y-103416566D01*
X155416987Y-103733491D01*
X155686509Y-104003013D01*
X156003434Y-104214775D01*
X156355581Y-104360639D01*
X156729419Y-104435000D01*
X157110581Y-104435000D01*
X157484419Y-104360639D01*
X157836566Y-104214775D01*
X158153491Y-104003013D01*
X158423013Y-103733491D01*
X158634775Y-103416566D01*
X158780639Y-103064419D01*
X158855000Y-102690581D01*
X158855000Y-102309419D01*
X158780639Y-101935581D01*
X158634775Y-101583434D01*
X158423013Y-101266509D01*
X158356504Y-101200000D01*
X160061928Y-101200000D01*
X160061928Y-103800000D01*
X160074188Y-103924482D01*
X160110498Y-104044180D01*
X160169463Y-104154494D01*
X160248815Y-104251185D01*
X160345506Y-104330537D01*
X160455820Y-104389502D01*
X160575518Y-104425812D01*
X160700000Y-104438072D01*
X163300000Y-104438072D01*
X163424482Y-104425812D01*
X163544180Y-104389502D01*
X163654494Y-104330537D01*
X163751185Y-104251185D01*
X163830537Y-104154494D01*
X163889502Y-104044180D01*
X163925812Y-103924482D01*
X163938072Y-103800000D01*
X163938072Y-101568115D01*
X168615000Y-101568115D01*
X168615000Y-102431885D01*
X168783513Y-103279057D01*
X169114064Y-104077076D01*
X169593948Y-104795274D01*
X170204726Y-105406052D01*
X170922924Y-105885936D01*
X171720943Y-106216487D01*
X172568115Y-106385000D01*
X173431885Y-106385000D01*
X174279057Y-106216487D01*
X175077076Y-105885936D01*
X175795274Y-105406052D01*
X176406052Y-104795274D01*
X176885936Y-104077076D01*
X177216487Y-103279057D01*
X177385000Y-102431885D01*
X177385000Y-101568115D01*
X177216487Y-100720943D01*
X176885936Y-99922924D01*
X176406052Y-99204726D01*
X175795274Y-98593948D01*
X175077076Y-98114064D01*
X174279057Y-97783513D01*
X173431885Y-97615000D01*
X172568115Y-97615000D01*
X171720943Y-97783513D01*
X170922924Y-98114064D01*
X170204726Y-98593948D01*
X169593948Y-99204726D01*
X169114064Y-99922924D01*
X168783513Y-100720943D01*
X168615000Y-101568115D01*
X163938072Y-101568115D01*
X163938072Y-101200000D01*
X163925812Y-101075518D01*
X163889502Y-100955820D01*
X163830537Y-100845506D01*
X163751185Y-100748815D01*
X163654494Y-100669463D01*
X163544180Y-100610498D01*
X163424482Y-100574188D01*
X163300000Y-100561928D01*
X160700000Y-100561928D01*
X160575518Y-100574188D01*
X160455820Y-100610498D01*
X160345506Y-100669463D01*
X160248815Y-100748815D01*
X160169463Y-100845506D01*
X160110498Y-100955820D01*
X160074188Y-101075518D01*
X160061928Y-101200000D01*
X158356504Y-101200000D01*
X158153491Y-100996987D01*
X157836566Y-100785225D01*
X157484419Y-100639361D01*
X157110581Y-100565000D01*
X156729419Y-100565000D01*
X156355581Y-100639361D01*
X156003434Y-100785225D01*
X155686509Y-100996987D01*
X155416987Y-101266509D01*
X155205225Y-101583434D01*
X155059361Y-101935581D01*
X154985000Y-102309419D01*
X153775000Y-102309419D01*
X153700639Y-101935581D01*
X153554775Y-101583434D01*
X153343013Y-101266509D01*
X153073491Y-100996987D01*
X152756566Y-100785225D01*
X152404419Y-100639361D01*
X152030581Y-100565000D01*
X151649419Y-100565000D01*
X151275581Y-100639361D01*
X150923434Y-100785225D01*
X150606509Y-100996987D01*
X150336987Y-101266509D01*
X150125225Y-101583434D01*
X149979361Y-101935581D01*
X149905000Y-102309419D01*
X148695000Y-102309419D01*
X148620639Y-101935581D01*
X148474775Y-101583434D01*
X148263013Y-101266509D01*
X147993491Y-100996987D01*
X147676566Y-100785225D01*
X147324419Y-100639361D01*
X146950581Y-100565000D01*
X146569419Y-100565000D01*
X146195581Y-100639361D01*
X145843434Y-100785225D01*
X145526509Y-100996987D01*
X145256987Y-101266509D01*
X145045225Y-101583434D01*
X144899361Y-101935581D01*
X144825000Y-102309419D01*
X143615000Y-102309419D01*
X143540639Y-101935581D01*
X143394775Y-101583434D01*
X143183013Y-101266509D01*
X142913491Y-100996987D01*
X142596566Y-100785225D01*
X142244419Y-100639361D01*
X141870581Y-100565000D01*
X141489419Y-100565000D01*
X141115581Y-100639361D01*
X140763434Y-100785225D01*
X140446509Y-100996987D01*
X140176987Y-101266509D01*
X139965225Y-101583434D01*
X139819361Y-101935581D01*
X139745000Y-102309419D01*
X139745000Y-102690581D01*
X139819361Y-103064419D01*
X139965225Y-103416566D01*
X140176987Y-103733491D01*
X140446509Y-104003013D01*
X140763434Y-104214775D01*
X140795000Y-104227850D01*
X140795001Y-107953420D01*
X136904956Y-111843466D01*
X136871183Y-111871183D01*
X136760589Y-112005942D01*
X136678411Y-112159688D01*
X136627805Y-112326511D01*
X136615000Y-112456524D01*
X136615000Y-112456531D01*
X136610719Y-112500000D01*
X136615000Y-112543469D01*
X136615001Y-130873000D01*
X132935000Y-130873000D01*
X132935000Y-130858665D01*
X132879853Y-130581426D01*
X132771680Y-130320273D01*
X132614637Y-130085241D01*
X132414759Y-129885363D01*
X132179727Y-129728320D01*
X131918574Y-129620147D01*
X131641335Y-129565000D01*
X131358665Y-129565000D01*
X131081426Y-129620147D01*
X130820273Y-129728320D01*
X130585241Y-129885363D01*
X130385363Y-130085241D01*
X130228320Y-130320273D01*
X130120147Y-130581426D01*
X130065000Y-130858665D01*
X130065000Y-130873000D01*
X127935000Y-130873000D01*
X127935000Y-130858665D01*
X127879853Y-130581426D01*
X127771680Y-130320273D01*
X127614637Y-130085241D01*
X127414759Y-129885363D01*
X127179727Y-129728320D01*
X126918574Y-129620147D01*
X126641335Y-129565000D01*
X126358665Y-129565000D01*
X126081426Y-129620147D01*
X125820273Y-129728320D01*
X125585241Y-129885363D01*
X125385363Y-130085241D01*
X125228320Y-130320273D01*
X125120147Y-130581426D01*
X125065000Y-130858665D01*
X125065000Y-130873000D01*
X113145970Y-130873000D01*
X113123838Y-130858212D01*
X112853421Y-130746202D01*
X112566348Y-130689100D01*
X112273652Y-130689100D01*
X111986579Y-130746202D01*
X111716162Y-130858212D01*
X111694030Y-130873000D01*
X109696749Y-130873000D01*
X109686739Y-130862990D01*
X109410089Y-130678139D01*
X109102692Y-130550811D01*
X108776362Y-130485900D01*
X108443638Y-130485900D01*
X108117308Y-130550811D01*
X107809911Y-130678139D01*
X107533261Y-130862990D01*
X107523251Y-130873000D01*
X100660000Y-130873000D01*
X100660000Y-128833638D01*
X115810900Y-128833638D01*
X115810900Y-129166362D01*
X115875811Y-129492692D01*
X116003139Y-129800089D01*
X116187990Y-130076739D01*
X116423261Y-130312010D01*
X116699911Y-130496861D01*
X117007308Y-130624189D01*
X117333638Y-130689100D01*
X117666362Y-130689100D01*
X117992692Y-130624189D01*
X118300089Y-130496861D01*
X118576739Y-130312010D01*
X118812010Y-130076739D01*
X118996861Y-129800089D01*
X119124189Y-129492692D01*
X119189100Y-129166362D01*
X119189100Y-128833638D01*
X119124189Y-128507308D01*
X118996861Y-128199911D01*
X118812010Y-127923261D01*
X118576739Y-127687990D01*
X118300089Y-127503139D01*
X117992692Y-127375811D01*
X117666362Y-127310900D01*
X117333638Y-127310900D01*
X117007308Y-127375811D01*
X116699911Y-127503139D01*
X116423261Y-127687990D01*
X116187990Y-127923261D01*
X116003139Y-128199911D01*
X115875811Y-128507308D01*
X115810900Y-128833638D01*
X100660000Y-128833638D01*
X100660000Y-122800000D01*
X125561928Y-122800000D01*
X125574188Y-122924482D01*
X125610498Y-123044180D01*
X125669463Y-123154494D01*
X125748815Y-123251185D01*
X125845506Y-123330537D01*
X125955820Y-123389502D01*
X126075518Y-123425812D01*
X126200000Y-123438072D01*
X126714250Y-123435000D01*
X126873000Y-123276250D01*
X126873000Y-122127000D01*
X125723750Y-122127000D01*
X125565000Y-122285750D01*
X125561928Y-122800000D01*
X100660000Y-122800000D01*
X100660000Y-121200000D01*
X125561928Y-121200000D01*
X125565000Y-121714250D01*
X125723750Y-121873000D01*
X126873000Y-121873000D01*
X126873000Y-120723750D01*
X127127000Y-120723750D01*
X127127000Y-121873000D01*
X127147000Y-121873000D01*
X127147000Y-122127000D01*
X127127000Y-122127000D01*
X127127000Y-123276250D01*
X127285750Y-123435000D01*
X127800000Y-123438072D01*
X127924482Y-123425812D01*
X128044180Y-123389502D01*
X128154494Y-123330537D01*
X128251185Y-123251185D01*
X128330537Y-123154494D01*
X128389502Y-123044180D01*
X128418661Y-122948057D01*
X128585241Y-123114637D01*
X128820273Y-123271680D01*
X129081426Y-123379853D01*
X129358665Y-123435000D01*
X129641335Y-123435000D01*
X129918574Y-123379853D01*
X130179727Y-123271680D01*
X130414759Y-123114637D01*
X130614637Y-122914759D01*
X130771680Y-122679727D01*
X130879853Y-122418574D01*
X130935000Y-122141335D01*
X130935000Y-121858665D01*
X130879853Y-121581426D01*
X130771680Y-121320273D01*
X130614637Y-121085241D01*
X130414759Y-120885363D01*
X130179727Y-120728320D01*
X129918574Y-120620147D01*
X129641335Y-120565000D01*
X129358665Y-120565000D01*
X129081426Y-120620147D01*
X128820273Y-120728320D01*
X128585241Y-120885363D01*
X128418661Y-121051943D01*
X128389502Y-120955820D01*
X128330537Y-120845506D01*
X128251185Y-120748815D01*
X128154494Y-120669463D01*
X128044180Y-120610498D01*
X127924482Y-120574188D01*
X127800000Y-120561928D01*
X127285750Y-120565000D01*
X127127000Y-120723750D01*
X126873000Y-120723750D01*
X126714250Y-120565000D01*
X126200000Y-120561928D01*
X126075518Y-120574188D01*
X125955820Y-120610498D01*
X125845506Y-120669463D01*
X125748815Y-120748815D01*
X125669463Y-120845506D01*
X125610498Y-120955820D01*
X125574188Y-121075518D01*
X125561928Y-121200000D01*
X100660000Y-121200000D01*
X100660000Y-116300000D01*
X104561928Y-116300000D01*
X104574188Y-116424482D01*
X104610498Y-116544180D01*
X104669463Y-116654494D01*
X104748815Y-116751185D01*
X104845506Y-116830537D01*
X104955820Y-116889502D01*
X105075518Y-116925812D01*
X105200000Y-116938072D01*
X105714250Y-116935000D01*
X105873000Y-116776250D01*
X105873000Y-115627000D01*
X104723750Y-115627000D01*
X104565000Y-115785750D01*
X104561928Y-116300000D01*
X100660000Y-116300000D01*
X100660000Y-114700000D01*
X104561928Y-114700000D01*
X104565000Y-115214250D01*
X104723750Y-115373000D01*
X105873000Y-115373000D01*
X105873000Y-114223750D01*
X106127000Y-114223750D01*
X106127000Y-115373000D01*
X106147000Y-115373000D01*
X106147000Y-115627000D01*
X106127000Y-115627000D01*
X106127000Y-116776250D01*
X106285750Y-116935000D01*
X106800000Y-116938072D01*
X106924482Y-116925812D01*
X107044180Y-116889502D01*
X107154494Y-116830537D01*
X107251185Y-116751185D01*
X107330537Y-116654494D01*
X107389502Y-116544180D01*
X107418661Y-116448057D01*
X107585241Y-116614637D01*
X107820273Y-116771680D01*
X108081426Y-116879853D01*
X108358665Y-116935000D01*
X108641335Y-116935000D01*
X108918574Y-116879853D01*
X109179727Y-116771680D01*
X109414759Y-116614637D01*
X109614637Y-116414759D01*
X109691316Y-116300000D01*
X116061928Y-116300000D01*
X116074188Y-116424482D01*
X116110498Y-116544180D01*
X116169463Y-116654494D01*
X116248815Y-116751185D01*
X116345506Y-116830537D01*
X116455820Y-116889502D01*
X116575518Y-116925812D01*
X116700000Y-116938072D01*
X117214250Y-116935000D01*
X117373000Y-116776250D01*
X117373000Y-115627000D01*
X116223750Y-115627000D01*
X116065000Y-115785750D01*
X116061928Y-116300000D01*
X109691316Y-116300000D01*
X109771680Y-116179727D01*
X109879853Y-115918574D01*
X109935000Y-115641335D01*
X109935000Y-115358665D01*
X109879853Y-115081426D01*
X109771680Y-114820273D01*
X109691317Y-114700000D01*
X116061928Y-114700000D01*
X116065000Y-115214250D01*
X116223750Y-115373000D01*
X117373000Y-115373000D01*
X117373000Y-114223750D01*
X117627000Y-114223750D01*
X117627000Y-115373000D01*
X117647000Y-115373000D01*
X117647000Y-115627000D01*
X117627000Y-115627000D01*
X117627000Y-116776250D01*
X117785750Y-116935000D01*
X118300000Y-116938072D01*
X118424482Y-116925812D01*
X118544180Y-116889502D01*
X118654494Y-116830537D01*
X118751185Y-116751185D01*
X118830537Y-116654494D01*
X118889502Y-116544180D01*
X118918661Y-116448057D01*
X119085241Y-116614637D01*
X119320273Y-116771680D01*
X119581426Y-116879853D01*
X119858665Y-116935000D01*
X120141335Y-116935000D01*
X120418574Y-116879853D01*
X120679727Y-116771680D01*
X120914759Y-116614637D01*
X121114637Y-116414759D01*
X121271680Y-116179727D01*
X121379853Y-115918574D01*
X121435000Y-115641335D01*
X121435000Y-115358665D01*
X121379853Y-115081426D01*
X121271680Y-114820273D01*
X121114637Y-114585241D01*
X120914759Y-114385363D01*
X120679727Y-114228320D01*
X120418574Y-114120147D01*
X120141335Y-114065000D01*
X119858665Y-114065000D01*
X119581426Y-114120147D01*
X119320273Y-114228320D01*
X119085241Y-114385363D01*
X118918661Y-114551943D01*
X118889502Y-114455820D01*
X118830537Y-114345506D01*
X118751185Y-114248815D01*
X118654494Y-114169463D01*
X118544180Y-114110498D01*
X118424482Y-114074188D01*
X118300000Y-114061928D01*
X117785750Y-114065000D01*
X117627000Y-114223750D01*
X117373000Y-114223750D01*
X117214250Y-114065000D01*
X116700000Y-114061928D01*
X116575518Y-114074188D01*
X116455820Y-114110498D01*
X116345506Y-114169463D01*
X116248815Y-114248815D01*
X116169463Y-114345506D01*
X116110498Y-114455820D01*
X116074188Y-114575518D01*
X116061928Y-114700000D01*
X109691317Y-114700000D01*
X109614637Y-114585241D01*
X109414759Y-114385363D01*
X109179727Y-114228320D01*
X108918574Y-114120147D01*
X108641335Y-114065000D01*
X108358665Y-114065000D01*
X108081426Y-114120147D01*
X107820273Y-114228320D01*
X107585241Y-114385363D01*
X107418661Y-114551943D01*
X107389502Y-114455820D01*
X107330537Y-114345506D01*
X107251185Y-114248815D01*
X107154494Y-114169463D01*
X107044180Y-114110498D01*
X106924482Y-114074188D01*
X106800000Y-114061928D01*
X106285750Y-114065000D01*
X106127000Y-114223750D01*
X105873000Y-114223750D01*
X105714250Y-114065000D01*
X105200000Y-114061928D01*
X105075518Y-114074188D01*
X104955820Y-114110498D01*
X104845506Y-114169463D01*
X104748815Y-114248815D01*
X104669463Y-114345506D01*
X104610498Y-114455820D01*
X104574188Y-114575518D01*
X104561928Y-114700000D01*
X100660000Y-114700000D01*
X100660000Y-112858665D01*
X128565000Y-112858665D01*
X128565000Y-113141335D01*
X128620147Y-113418574D01*
X128728320Y-113679727D01*
X128885363Y-113914759D01*
X129085241Y-114114637D01*
X129320273Y-114271680D01*
X129581426Y-114379853D01*
X129858665Y-114435000D01*
X130141335Y-114435000D01*
X130418574Y-114379853D01*
X130679727Y-114271680D01*
X130914759Y-114114637D01*
X131036694Y-113992702D01*
X134186903Y-113992702D01*
X134258486Y-114236671D01*
X134513996Y-114357571D01*
X134788184Y-114426300D01*
X135070512Y-114440217D01*
X135350130Y-114398787D01*
X135616292Y-114303603D01*
X135741514Y-114236671D01*
X135813097Y-113992702D01*
X135000000Y-113179605D01*
X134186903Y-113992702D01*
X131036694Y-113992702D01*
X131114637Y-113914759D01*
X131271680Y-113679727D01*
X131379853Y-113418574D01*
X131435000Y-113141335D01*
X131435000Y-113070512D01*
X133559783Y-113070512D01*
X133601213Y-113350130D01*
X133696397Y-113616292D01*
X133763329Y-113741514D01*
X134007298Y-113813097D01*
X134820395Y-113000000D01*
X135179605Y-113000000D01*
X135992702Y-113813097D01*
X136236671Y-113741514D01*
X136357571Y-113486004D01*
X136426300Y-113211816D01*
X136440217Y-112929488D01*
X136398787Y-112649870D01*
X136303603Y-112383708D01*
X136236671Y-112258486D01*
X135992702Y-112186903D01*
X135179605Y-113000000D01*
X134820395Y-113000000D01*
X134007298Y-112186903D01*
X133763329Y-112258486D01*
X133642429Y-112513996D01*
X133573700Y-112788184D01*
X133559783Y-113070512D01*
X131435000Y-113070512D01*
X131435000Y-112858665D01*
X131379853Y-112581426D01*
X131271680Y-112320273D01*
X131114637Y-112085241D01*
X131036694Y-112007298D01*
X134186903Y-112007298D01*
X135000000Y-112820395D01*
X135813097Y-112007298D01*
X135741514Y-111763329D01*
X135486004Y-111642429D01*
X135211816Y-111573700D01*
X134929488Y-111559783D01*
X134649870Y-111601213D01*
X134383708Y-111696397D01*
X134258486Y-111763329D01*
X134186903Y-112007298D01*
X131036694Y-112007298D01*
X130914759Y-111885363D01*
X130679727Y-111728320D01*
X130418574Y-111620147D01*
X130141335Y-111565000D01*
X129858665Y-111565000D01*
X129581426Y-111620147D01*
X129320273Y-111728320D01*
X129085241Y-111885363D01*
X128885363Y-112085241D01*
X128728320Y-112320273D01*
X128620147Y-112581426D01*
X128565000Y-112858665D01*
X100660000Y-112858665D01*
X100660000Y-101568115D01*
X102615000Y-101568115D01*
X102615000Y-102431885D01*
X102783513Y-103279057D01*
X103114064Y-104077076D01*
X103593948Y-104795274D01*
X104204726Y-105406052D01*
X104922924Y-105885936D01*
X105720943Y-106216487D01*
X106568115Y-106385000D01*
X107431885Y-106385000D01*
X108279057Y-106216487D01*
X109077076Y-105885936D01*
X109795274Y-105406052D01*
X110406052Y-104795274D01*
X110885936Y-104077076D01*
X111124969Y-103500000D01*
X116061928Y-103500000D01*
X116074188Y-103624482D01*
X116110498Y-103744180D01*
X116169463Y-103854494D01*
X116248815Y-103951185D01*
X116345506Y-104030537D01*
X116455820Y-104089502D01*
X116575518Y-104125812D01*
X116700000Y-104138072D01*
X117214250Y-104135000D01*
X117373000Y-103976250D01*
X117373000Y-102827000D01*
X116223750Y-102827000D01*
X116065000Y-102985750D01*
X116061928Y-103500000D01*
X111124969Y-103500000D01*
X111216487Y-103279057D01*
X111385000Y-102431885D01*
X111385000Y-101900000D01*
X116061928Y-101900000D01*
X116065000Y-102414250D01*
X116223750Y-102573000D01*
X117373000Y-102573000D01*
X117373000Y-101423750D01*
X117627000Y-101423750D01*
X117627000Y-102573000D01*
X117647000Y-102573000D01*
X117647000Y-102827000D01*
X117627000Y-102827000D01*
X117627000Y-103976250D01*
X117785750Y-104135000D01*
X118300000Y-104138072D01*
X118424482Y-104125812D01*
X118544180Y-104089502D01*
X118654494Y-104030537D01*
X118751185Y-103951185D01*
X118830537Y-103854494D01*
X118889502Y-103744180D01*
X118918661Y-103648057D01*
X119085241Y-103814637D01*
X119320273Y-103971680D01*
X119581426Y-104079853D01*
X119858665Y-104135000D01*
X120141335Y-104135000D01*
X120418574Y-104079853D01*
X120679727Y-103971680D01*
X120914759Y-103814637D01*
X121114637Y-103614759D01*
X121271680Y-103379727D01*
X121379853Y-103118574D01*
X121435000Y-102841335D01*
X121435000Y-102558665D01*
X121385422Y-102309419D01*
X127985000Y-102309419D01*
X127985000Y-102690581D01*
X128059361Y-103064419D01*
X128205225Y-103416566D01*
X128416987Y-103733491D01*
X128686509Y-104003013D01*
X129003434Y-104214775D01*
X129355581Y-104360639D01*
X129729419Y-104435000D01*
X130110581Y-104435000D01*
X130484419Y-104360639D01*
X130836566Y-104214775D01*
X131153491Y-104003013D01*
X131356504Y-103800000D01*
X133061928Y-103800000D01*
X133074188Y-103924482D01*
X133110498Y-104044180D01*
X133169463Y-104154494D01*
X133248815Y-104251185D01*
X133345506Y-104330537D01*
X133455820Y-104389502D01*
X133575518Y-104425812D01*
X133700000Y-104438072D01*
X134714250Y-104435000D01*
X134873000Y-104276250D01*
X134873000Y-102627000D01*
X135127000Y-102627000D01*
X135127000Y-104276250D01*
X135285750Y-104435000D01*
X136300000Y-104438072D01*
X136424482Y-104425812D01*
X136544180Y-104389502D01*
X136654494Y-104330537D01*
X136751185Y-104251185D01*
X136830537Y-104154494D01*
X136889502Y-104044180D01*
X136925812Y-103924482D01*
X136938072Y-103800000D01*
X136935000Y-102785750D01*
X136776250Y-102627000D01*
X135127000Y-102627000D01*
X134873000Y-102627000D01*
X133223750Y-102627000D01*
X133065000Y-102785750D01*
X133061928Y-103800000D01*
X131356504Y-103800000D01*
X131423013Y-103733491D01*
X131634775Y-103416566D01*
X131780639Y-103064419D01*
X131855000Y-102690581D01*
X131855000Y-102309419D01*
X131780639Y-101935581D01*
X131634775Y-101583434D01*
X131423013Y-101266509D01*
X131356504Y-101200000D01*
X133061928Y-101200000D01*
X133065000Y-102214250D01*
X133223750Y-102373000D01*
X134873000Y-102373000D01*
X134873000Y-100723750D01*
X135127000Y-100723750D01*
X135127000Y-102373000D01*
X136776250Y-102373000D01*
X136935000Y-102214250D01*
X136938072Y-101200000D01*
X136925812Y-101075518D01*
X136889502Y-100955820D01*
X136830537Y-100845506D01*
X136751185Y-100748815D01*
X136654494Y-100669463D01*
X136544180Y-100610498D01*
X136424482Y-100574188D01*
X136300000Y-100561928D01*
X135285750Y-100565000D01*
X135127000Y-100723750D01*
X134873000Y-100723750D01*
X134714250Y-100565000D01*
X133700000Y-100561928D01*
X133575518Y-100574188D01*
X133455820Y-100610498D01*
X133345506Y-100669463D01*
X133248815Y-100748815D01*
X133169463Y-100845506D01*
X133110498Y-100955820D01*
X133074188Y-101075518D01*
X133061928Y-101200000D01*
X131356504Y-101200000D01*
X131153491Y-100996987D01*
X130836566Y-100785225D01*
X130484419Y-100639361D01*
X130110581Y-100565000D01*
X129729419Y-100565000D01*
X129355581Y-100639361D01*
X129003434Y-100785225D01*
X128686509Y-100996987D01*
X128416987Y-101266509D01*
X128205225Y-101583434D01*
X128059361Y-101935581D01*
X127985000Y-102309419D01*
X121385422Y-102309419D01*
X121379853Y-102281426D01*
X121271680Y-102020273D01*
X121114637Y-101785241D01*
X120914759Y-101585363D01*
X120679727Y-101428320D01*
X120418574Y-101320147D01*
X120141335Y-101265000D01*
X119858665Y-101265000D01*
X119581426Y-101320147D01*
X119320273Y-101428320D01*
X119085241Y-101585363D01*
X118918661Y-101751943D01*
X118889502Y-101655820D01*
X118830537Y-101545506D01*
X118751185Y-101448815D01*
X118654494Y-101369463D01*
X118544180Y-101310498D01*
X118424482Y-101274188D01*
X118300000Y-101261928D01*
X117785750Y-101265000D01*
X117627000Y-101423750D01*
X117373000Y-101423750D01*
X117214250Y-101265000D01*
X116700000Y-101261928D01*
X116575518Y-101274188D01*
X116455820Y-101310498D01*
X116345506Y-101369463D01*
X116248815Y-101448815D01*
X116169463Y-101545506D01*
X116110498Y-101655820D01*
X116074188Y-101775518D01*
X116061928Y-101900000D01*
X111385000Y-101900000D01*
X111385000Y-101568115D01*
X111216487Y-100720943D01*
X110885936Y-99922924D01*
X110406052Y-99204726D01*
X109795274Y-98593948D01*
X109077076Y-98114064D01*
X108279057Y-97783513D01*
X107431885Y-97615000D01*
X106568115Y-97615000D01*
X105720943Y-97783513D01*
X104922924Y-98114064D01*
X104204726Y-98593948D01*
X103593948Y-99204726D01*
X103114064Y-99922924D01*
X102783513Y-100720943D01*
X102615000Y-101568115D01*
X100660000Y-101568115D01*
X100660000Y-100029392D01*
X100731173Y-99231917D01*
X100934656Y-98488109D01*
X101266638Y-97792095D01*
X101716626Y-97165870D01*
X102270403Y-96629223D01*
X102910451Y-96199129D01*
X103616553Y-95889171D01*
X104371457Y-95707935D01*
X105024207Y-95660000D01*
X174970608Y-95660000D01*
X175768083Y-95731173D01*
G37*
%TD.AperFunction*%
%TD*%
D29*
%TO.N,+5V*%
X103615000Y-134456531D02*
X103610719Y-134500000D01*
X103615000Y-134543469D01*
X103615000Y-134543476D01*
X103618072Y-134574662D01*
X103627805Y-134673490D01*
X103643157Y-134724096D01*
X103678411Y-134840312D01*
X103760589Y-134994058D01*
X103871183Y-135128817D01*
X103904956Y-135156534D01*
X109138470Y-140390049D01*
X109166183Y-140423817D01*
X109199951Y-140451530D01*
X109199953Y-140451532D01*
X109300941Y-140534411D01*
X109454687Y-140616589D01*
X109621510Y-140667195D01*
X109751523Y-140680000D01*
X109751531Y-140680000D01*
X109795000Y-140684281D01*
X109838469Y-140680000D01*
X111224261Y-140680000D01*
X111265826Y-140742206D01*
X111472794Y-140949174D01*
X111716162Y-141111788D01*
X111986579Y-141223798D01*
X112273652Y-141280900D01*
X112566348Y-141280900D01*
X112853421Y-141223798D01*
X113123838Y-141111788D01*
X113367206Y-140949174D01*
X113574174Y-140742206D01*
X113736788Y-140498838D01*
X113848798Y-140228421D01*
X113905900Y-139941348D01*
X113905900Y-139648652D01*
X113848798Y-139361579D01*
X113736788Y-139091162D01*
X113574174Y-138847794D01*
X113367206Y-138640826D01*
X113123838Y-138478212D01*
X112853421Y-138366202D01*
X112566348Y-138309100D01*
X112273652Y-138309100D01*
X111986579Y-138366202D01*
X111716162Y-138478212D01*
X111472794Y-138640826D01*
X111265826Y-138847794D01*
X111224261Y-138910000D01*
X110161579Y-138910000D01*
X107090231Y-135838652D01*
X110934100Y-135838652D01*
X110934100Y-136131348D01*
X110991202Y-136418421D01*
X111103212Y-136688838D01*
X111265826Y-136932206D01*
X111472794Y-137139174D01*
X111716162Y-137301788D01*
X111986579Y-137413798D01*
X112273652Y-137470900D01*
X112566348Y-137470900D01*
X112853421Y-137413798D01*
X113123838Y-137301788D01*
X113367206Y-137139174D01*
X113574174Y-136932206D01*
X113736788Y-136688838D01*
X113848798Y-136418421D01*
X113905900Y-136131348D01*
X113905900Y-135838652D01*
X116014100Y-135838652D01*
X116014100Y-136131348D01*
X116071202Y-136418421D01*
X116183212Y-136688838D01*
X116345826Y-136932206D01*
X116552794Y-137139174D01*
X116796162Y-137301788D01*
X117066579Y-137413798D01*
X117353652Y-137470900D01*
X117646348Y-137470900D01*
X117933421Y-137413798D01*
X118203838Y-137301788D01*
X118447206Y-137139174D01*
X118654174Y-136932206D01*
X118662330Y-136920000D01*
X122161928Y-136920000D01*
X122161928Y-137200000D01*
X122174188Y-137324482D01*
X122210498Y-137444180D01*
X122269463Y-137554494D01*
X122348815Y-137651185D01*
X122445506Y-137730537D01*
X122555820Y-137789502D01*
X122675518Y-137825812D01*
X122800000Y-137838072D01*
X125200000Y-137838072D01*
X125324482Y-137825812D01*
X125444180Y-137789502D01*
X125554494Y-137730537D01*
X125651185Y-137651185D01*
X125730537Y-137554494D01*
X125789502Y-137444180D01*
X125825812Y-137324482D01*
X125838072Y-137200000D01*
X125838072Y-134800000D01*
X125825812Y-134675518D01*
X125789502Y-134555820D01*
X125730537Y-134445506D01*
X125651185Y-134348815D01*
X125554494Y-134269463D01*
X125444180Y-134210498D01*
X125324482Y-134174188D01*
X125200000Y-134161928D01*
X122800000Y-134161928D01*
X122675518Y-134174188D01*
X122555820Y-134210498D01*
X122445506Y-134269463D01*
X122348815Y-134348815D01*
X122269463Y-134445506D01*
X122210498Y-134555820D01*
X122174188Y-134675518D01*
X122161928Y-134800000D01*
X122161928Y-135150000D01*
X118729148Y-135150000D01*
X118654174Y-135037794D01*
X118447206Y-134830826D01*
X118203838Y-134668212D01*
X117933421Y-134556202D01*
X117646348Y-134499100D01*
X117353652Y-134499100D01*
X117066579Y-134556202D01*
X116796162Y-134668212D01*
X116552794Y-134830826D01*
X116345826Y-135037794D01*
X116183212Y-135281162D01*
X116071202Y-135551579D01*
X116014100Y-135838652D01*
X113905900Y-135838652D01*
X113848798Y-135551579D01*
X113736788Y-135281162D01*
X113574174Y-135037794D01*
X113367206Y-134830826D01*
X113123838Y-134668212D01*
X112853421Y-134556202D01*
X112566348Y-134499100D01*
X112273652Y-134499100D01*
X111986579Y-134556202D01*
X111716162Y-134668212D01*
X111472794Y-134830826D01*
X111265826Y-135037794D01*
X111103212Y-135281162D01*
X110991202Y-135551579D01*
X110934100Y-135838652D01*
X107090231Y-135838652D01*
X105385000Y-134133422D01*
X105385000Y-132127000D01*
X106920900Y-132127000D01*
X106920900Y-132341362D01*
X106985811Y-132667692D01*
X107113139Y-132975089D01*
X107297990Y-133251739D01*
X107533261Y-133487010D01*
X107809911Y-133671861D01*
X108117308Y-133799189D01*
X108443638Y-133864100D01*
X108776362Y-133864100D01*
X109102692Y-133799189D01*
X109410089Y-133671861D01*
X109686739Y-133487010D01*
X109922010Y-133251739D01*
X109953881Y-133204040D01*
X111570565Y-133204040D01*
X111648310Y-133453207D01*
X111912503Y-133579196D01*
X112196199Y-133651223D01*
X112488496Y-133666519D01*
X112778161Y-133624497D01*
X113054062Y-133526771D01*
X113191690Y-133453207D01*
X113269435Y-133204040D01*
X112420000Y-132354605D01*
X111570565Y-133204040D01*
X109953881Y-133204040D01*
X110106861Y-132975089D01*
X110234189Y-132667692D01*
X110299100Y-132341362D01*
X110299100Y-132127000D01*
X110934577Y-132127000D01*
X110928481Y-132243496D01*
X110970503Y-132533161D01*
X111068229Y-132809062D01*
X111141793Y-132946690D01*
X111390960Y-133024435D01*
X112240395Y-132175000D01*
X112226253Y-132160858D01*
X112260110Y-132127000D01*
X112579890Y-132127000D01*
X112613748Y-132160858D01*
X112599605Y-132175000D01*
X113449040Y-133024435D01*
X113698207Y-132946690D01*
X113824196Y-132682497D01*
X113896223Y-132398801D01*
X113910446Y-132127000D01*
X125603744Y-132127000D01*
X125820273Y-132271680D01*
X126081426Y-132379853D01*
X126358665Y-132435000D01*
X126641335Y-132435000D01*
X126918574Y-132379853D01*
X127179727Y-132271680D01*
X127396256Y-132127000D01*
X130603744Y-132127000D01*
X130820273Y-132271680D01*
X131081426Y-132379853D01*
X131358665Y-132435000D01*
X131641335Y-132435000D01*
X131918574Y-132379853D01*
X132179727Y-132271680D01*
X132396256Y-132127000D01*
X136615001Y-132127000D01*
X136615001Y-133461544D01*
X136582795Y-133509744D01*
X136504774Y-133698102D01*
X136465000Y-133898061D01*
X136465000Y-134101939D01*
X136504774Y-134301898D01*
X136582795Y-134490256D01*
X136615001Y-134538456D01*
X136615000Y-147516531D01*
X136610719Y-147560000D01*
X136615000Y-147603469D01*
X136615000Y-147603476D01*
X136627805Y-147733489D01*
X136678411Y-147900312D01*
X136760589Y-148054058D01*
X136871183Y-148188817D01*
X136904956Y-148216534D01*
X138397895Y-149709474D01*
X138381400Y-149792401D01*
X138381400Y-150087599D01*
X138438990Y-150377125D01*
X138551958Y-150649853D01*
X138715961Y-150895302D01*
X138924698Y-151104039D01*
X139083281Y-151210000D01*
X138924698Y-151315961D01*
X138715961Y-151524698D01*
X138551958Y-151770147D01*
X138438990Y-152042875D01*
X138381400Y-152332401D01*
X138381400Y-152627599D01*
X138438990Y-152917125D01*
X138551958Y-153189853D01*
X138715961Y-153435302D01*
X138924698Y-153644039D01*
X139083281Y-153750000D01*
X138924698Y-153855961D01*
X138715961Y-154064698D01*
X138551958Y-154310147D01*
X138438990Y-154582875D01*
X138381400Y-154872401D01*
X138381400Y-155167599D01*
X138438990Y-155457125D01*
X138551958Y-155729853D01*
X138715961Y-155975302D01*
X138924698Y-156184039D01*
X139083281Y-156290000D01*
X138924698Y-156395961D01*
X138715961Y-156604698D01*
X138551958Y-156850147D01*
X138438990Y-157122875D01*
X138381400Y-157412401D01*
X138381400Y-157707599D01*
X138438990Y-157997125D01*
X138551958Y-158269853D01*
X138715961Y-158515302D01*
X138924698Y-158724039D01*
X139170147Y-158888042D01*
X139442875Y-159001010D01*
X139512810Y-159014921D01*
X139338587Y-159087087D01*
X139151380Y-159212174D01*
X138992174Y-159371380D01*
X138867087Y-159558587D01*
X138780925Y-159766599D01*
X138737000Y-159987424D01*
X138737000Y-160212576D01*
X138780925Y-160433401D01*
X138867087Y-160641413D01*
X138992174Y-160828620D01*
X139151380Y-160987826D01*
X139338587Y-161112913D01*
X139546599Y-161199075D01*
X139767424Y-161243000D01*
X139992576Y-161243000D01*
X140213401Y-161199075D01*
X140421413Y-161112913D01*
X140608620Y-160987826D01*
X140767826Y-160828620D01*
X140892913Y-160641413D01*
X140979075Y-160433401D01*
X141023000Y-160212576D01*
X141023000Y-159987424D01*
X140979075Y-159766599D01*
X140892913Y-159558587D01*
X140767826Y-159371380D01*
X140608620Y-159212174D01*
X140421413Y-159087087D01*
X140247190Y-159014921D01*
X140317125Y-159001010D01*
X140589853Y-158888042D01*
X140835302Y-158724039D01*
X141044039Y-158515302D01*
X141208042Y-158269853D01*
X141321010Y-157997125D01*
X141378600Y-157707599D01*
X141378600Y-157412401D01*
X141321010Y-157122875D01*
X141208042Y-156850147D01*
X141044039Y-156604698D01*
X140835302Y-156395961D01*
X140676719Y-156290000D01*
X140835302Y-156184039D01*
X141044039Y-155975302D01*
X141208042Y-155729853D01*
X141321010Y-155457125D01*
X141378600Y-155167599D01*
X141378600Y-154872401D01*
X141321010Y-154582875D01*
X141208042Y-154310147D01*
X141044039Y-154064698D01*
X140835302Y-153855961D01*
X140676719Y-153750000D01*
X140835302Y-153644039D01*
X141044039Y-153435302D01*
X141208042Y-153189853D01*
X141321010Y-152917125D01*
X141378600Y-152627599D01*
X141378600Y-152332401D01*
X141321010Y-152042875D01*
X141208042Y-151770147D01*
X141044039Y-151524698D01*
X140835302Y-151315961D01*
X140676719Y-151210000D01*
X140835302Y-151104039D01*
X141044039Y-150895302D01*
X141208042Y-150649853D01*
X141321010Y-150377125D01*
X141378600Y-150087599D01*
X141378600Y-149800873D01*
X142584774Y-148664962D01*
X142628817Y-148628817D01*
X142675690Y-148571702D01*
X142724263Y-148516009D01*
X142730920Y-148504405D01*
X142739411Y-148494059D01*
X142774252Y-148428875D01*
X142811014Y-148364797D01*
X142815280Y-148352117D01*
X142821589Y-148340313D01*
X142843043Y-148269591D01*
X142866600Y-148199566D01*
X142868310Y-148186297D01*
X142872195Y-148173490D01*
X142879440Y-148099926D01*
X142888881Y-148026667D01*
X142885000Y-147969829D01*
X142885000Y-138921269D01*
X150258336Y-138921269D01*
X150317797Y-139155037D01*
X150556242Y-139265934D01*
X150811740Y-139328183D01*
X151074473Y-139339390D01*
X151334344Y-139299125D01*
X151581366Y-139208935D01*
X151682203Y-139155037D01*
X151741664Y-138921269D01*
X151000000Y-138179605D01*
X150258336Y-138921269D01*
X142885000Y-138921269D01*
X142885000Y-138074473D01*
X149660610Y-138074473D01*
X149700875Y-138334344D01*
X149791065Y-138581366D01*
X149844963Y-138682203D01*
X150078731Y-138741664D01*
X150820395Y-138000000D01*
X151179605Y-138000000D01*
X151921269Y-138741664D01*
X152155037Y-138682203D01*
X152265934Y-138443758D01*
X152328183Y-138188260D01*
X152339390Y-137925527D01*
X152299125Y-137665656D01*
X152208935Y-137418634D01*
X152155037Y-137317797D01*
X151921269Y-137258336D01*
X151179605Y-138000000D01*
X150820395Y-138000000D01*
X150078731Y-137258336D01*
X149844963Y-137317797D01*
X149734066Y-137556242D01*
X149671817Y-137811740D01*
X149660610Y-138074473D01*
X142885000Y-138074473D01*
X142885000Y-138038454D01*
X142917205Y-137990256D01*
X142995226Y-137801898D01*
X143035000Y-137601939D01*
X143035000Y-137398061D01*
X142995226Y-137198102D01*
X142945781Y-137078731D01*
X150258336Y-137078731D01*
X151000000Y-137820395D01*
X151741664Y-137078731D01*
X151682203Y-136844963D01*
X151443758Y-136734066D01*
X151188260Y-136671817D01*
X150925527Y-136660610D01*
X150665656Y-136700875D01*
X150418634Y-136791065D01*
X150317797Y-136844963D01*
X150258336Y-137078731D01*
X142945781Y-137078731D01*
X142917205Y-137009744D01*
X142803937Y-136840226D01*
X142659774Y-136696063D01*
X142490256Y-136582795D01*
X142301898Y-136504774D01*
X142101939Y-136465000D01*
X141898061Y-136465000D01*
X141698102Y-136504774D01*
X141509744Y-136582795D01*
X141340226Y-136696063D01*
X141295354Y-136740935D01*
X141208042Y-136530147D01*
X141044039Y-136284698D01*
X140835302Y-136075961D01*
X140676719Y-135970000D01*
X140835302Y-135864039D01*
X141044039Y-135655302D01*
X141208042Y-135409853D01*
X141321010Y-135137125D01*
X141378600Y-134847599D01*
X141378600Y-134552401D01*
X141321010Y-134262875D01*
X141208042Y-133990147D01*
X141044039Y-133744698D01*
X140835302Y-133535961D01*
X140676719Y-133430000D01*
X140835302Y-133324039D01*
X141044039Y-133115302D01*
X141208042Y-132869853D01*
X141321010Y-132597125D01*
X141378600Y-132307599D01*
X141378600Y-132127000D01*
X149924275Y-132127000D01*
X149816939Y-132287641D01*
X149716304Y-132530595D01*
X149665000Y-132788514D01*
X149665000Y-133051486D01*
X149716304Y-133309405D01*
X149816939Y-133552359D01*
X149963038Y-133771013D01*
X150148987Y-133956962D01*
X150367641Y-134103061D01*
X150610595Y-134203696D01*
X150868514Y-134255000D01*
X151131486Y-134255000D01*
X151389405Y-134203696D01*
X151632359Y-134103061D01*
X151851013Y-133956962D01*
X152036962Y-133771013D01*
X152183061Y-133552359D01*
X152283696Y-133309405D01*
X152335000Y-133051486D01*
X152335000Y-132788514D01*
X152283696Y-132530595D01*
X152183061Y-132287641D01*
X152075725Y-132127000D01*
X153621400Y-132127000D01*
X153621400Y-132307599D01*
X153678990Y-132597125D01*
X153791958Y-132869853D01*
X153955961Y-133115302D01*
X154164698Y-133324039D01*
X154323281Y-133430000D01*
X154164698Y-133535961D01*
X153955961Y-133744698D01*
X153791958Y-133990147D01*
X153678990Y-134262875D01*
X153621400Y-134552401D01*
X153621400Y-134847599D01*
X153678990Y-135137125D01*
X153791958Y-135409853D01*
X153955961Y-135655302D01*
X154164698Y-135864039D01*
X154323281Y-135970000D01*
X154164698Y-136075961D01*
X153955961Y-136284698D01*
X153791958Y-136530147D01*
X153678990Y-136802875D01*
X153621400Y-137092401D01*
X153621400Y-137387599D01*
X153678990Y-137677125D01*
X153791958Y-137949853D01*
X153955961Y-138195302D01*
X154164698Y-138404039D01*
X154323281Y-138510000D01*
X154164698Y-138615961D01*
X153955961Y-138824698D01*
X153791958Y-139070147D01*
X153678990Y-139342875D01*
X153621400Y-139632401D01*
X153621400Y-139927599D01*
X153678990Y-140217125D01*
X153791958Y-140489853D01*
X153955961Y-140735302D01*
X154164698Y-140944039D01*
X154323281Y-141050000D01*
X154164698Y-141155961D01*
X153955961Y-141364698D01*
X153791958Y-141610147D01*
X153678990Y-141882875D01*
X153621400Y-142172401D01*
X153621400Y-142467599D01*
X153678990Y-142757125D01*
X153791958Y-143029853D01*
X153955961Y-143275302D01*
X154164698Y-143484039D01*
X154323281Y-143590000D01*
X154164698Y-143695961D01*
X153955961Y-143904698D01*
X153791958Y-144150147D01*
X153678990Y-144422875D01*
X153621400Y-144712401D01*
X153621400Y-145007599D01*
X153678990Y-145297125D01*
X153791958Y-145569853D01*
X153955961Y-145815302D01*
X154164698Y-146024039D01*
X154323281Y-146130000D01*
X154164698Y-146235961D01*
X153955961Y-146444698D01*
X153791958Y-146690147D01*
X153678990Y-146962875D01*
X153621400Y-147252401D01*
X153621400Y-147547599D01*
X153678990Y-147837125D01*
X153791958Y-148109853D01*
X153955961Y-148355302D01*
X154164698Y-148564039D01*
X154323281Y-148670000D01*
X154164698Y-148775961D01*
X153955961Y-148984698D01*
X153791958Y-149230147D01*
X153678990Y-149502875D01*
X153621400Y-149792401D01*
X153621400Y-150087599D01*
X153678990Y-150377125D01*
X153791958Y-150649853D01*
X153955961Y-150895302D01*
X154164698Y-151104039D01*
X154323281Y-151210000D01*
X154164698Y-151315961D01*
X153955961Y-151524698D01*
X153791958Y-151770147D01*
X153678990Y-152042875D01*
X153621400Y-152332401D01*
X153621400Y-152627599D01*
X153678990Y-152917125D01*
X153791958Y-153189853D01*
X153955961Y-153435302D01*
X154164698Y-153644039D01*
X154323281Y-153750000D01*
X154164698Y-153855961D01*
X153955961Y-154064698D01*
X153791958Y-154310147D01*
X153678990Y-154582875D01*
X153621400Y-154872401D01*
X153621400Y-155167599D01*
X153678990Y-155457125D01*
X153791958Y-155729853D01*
X153955961Y-155975302D01*
X154070023Y-156089364D01*
X154012220Y-156106898D01*
X153901906Y-156165863D01*
X153805215Y-156245215D01*
X153725863Y-156341906D01*
X153666898Y-156452220D01*
X153630588Y-156571918D01*
X153618328Y-156696400D01*
X153618328Y-158423600D01*
X153630588Y-158548082D01*
X153666898Y-158667780D01*
X153725863Y-158778094D01*
X153805215Y-158874785D01*
X153901906Y-158954137D01*
X154012220Y-159013102D01*
X154131918Y-159049412D01*
X154256400Y-159061672D01*
X154639944Y-159061672D01*
X154578587Y-159087087D01*
X154391380Y-159212174D01*
X154232174Y-159371380D01*
X154107087Y-159558587D01*
X154020925Y-159766599D01*
X153977000Y-159987424D01*
X153977000Y-160212576D01*
X154020925Y-160433401D01*
X154107087Y-160641413D01*
X154232174Y-160828620D01*
X154391380Y-160987826D01*
X154578587Y-161112913D01*
X154786599Y-161199075D01*
X155007424Y-161243000D01*
X155232576Y-161243000D01*
X155453401Y-161199075D01*
X155661413Y-161112913D01*
X155848620Y-160987826D01*
X156007826Y-160828620D01*
X156132913Y-160641413D01*
X156219075Y-160433401D01*
X156263000Y-160212576D01*
X156263000Y-159987424D01*
X156261378Y-159979268D01*
X160665000Y-159979268D01*
X160665000Y-160340732D01*
X160735518Y-160695250D01*
X160873844Y-161029199D01*
X161074662Y-161329744D01*
X161330256Y-161585338D01*
X161630801Y-161786156D01*
X161964750Y-161924482D01*
X162319268Y-161995000D01*
X162680732Y-161995000D01*
X163035250Y-161924482D01*
X163369199Y-161786156D01*
X163669744Y-161585338D01*
X163925338Y-161329744D01*
X164126156Y-161029199D01*
X164264482Y-160695250D01*
X164335000Y-160340732D01*
X164335000Y-159979268D01*
X164264482Y-159624750D01*
X164126156Y-159290801D01*
X163925338Y-158990256D01*
X163669744Y-158734662D01*
X163369199Y-158533844D01*
X163035250Y-158395518D01*
X162680732Y-158325000D01*
X162319268Y-158325000D01*
X161964750Y-158395518D01*
X161630801Y-158533844D01*
X161330256Y-158734662D01*
X161074662Y-158990256D01*
X160873844Y-159290801D01*
X160735518Y-159624750D01*
X160665000Y-159979268D01*
X156261378Y-159979268D01*
X156219075Y-159766599D01*
X156132913Y-159558587D01*
X156007826Y-159371380D01*
X155848620Y-159212174D01*
X155661413Y-159087087D01*
X155600056Y-159061672D01*
X155983600Y-159061672D01*
X156108082Y-159049412D01*
X156227780Y-159013102D01*
X156338094Y-158954137D01*
X156434785Y-158874785D01*
X156514137Y-158778094D01*
X156573102Y-158667780D01*
X156609412Y-158548082D01*
X156621672Y-158423600D01*
X156621672Y-156700000D01*
X170561928Y-156700000D01*
X170561928Y-159300000D01*
X170574188Y-159424482D01*
X170610498Y-159544180D01*
X170669463Y-159654494D01*
X170748815Y-159751185D01*
X170845506Y-159830537D01*
X170955820Y-159889502D01*
X171075518Y-159925812D01*
X171200000Y-159938072D01*
X173800000Y-159938072D01*
X173924482Y-159925812D01*
X174044180Y-159889502D01*
X174154494Y-159830537D01*
X174251185Y-159751185D01*
X174330537Y-159654494D01*
X174389502Y-159544180D01*
X174425812Y-159424482D01*
X174438072Y-159300000D01*
X174438072Y-156700000D01*
X174425812Y-156575518D01*
X174389502Y-156455820D01*
X174330537Y-156345506D01*
X174251185Y-156248815D01*
X174154494Y-156169463D01*
X174044180Y-156110498D01*
X173924482Y-156074188D01*
X173800000Y-156061928D01*
X171200000Y-156061928D01*
X171075518Y-156074188D01*
X170955820Y-156110498D01*
X170845506Y-156169463D01*
X170748815Y-156248815D01*
X170669463Y-156345506D01*
X170610498Y-156455820D01*
X170574188Y-156575518D01*
X170561928Y-156700000D01*
X156621672Y-156700000D01*
X156621672Y-156696400D01*
X156609412Y-156571918D01*
X156573102Y-156452220D01*
X156514137Y-156341906D01*
X156434785Y-156245215D01*
X156338094Y-156165863D01*
X156227780Y-156106898D01*
X156169977Y-156089364D01*
X156284039Y-155975302D01*
X156448042Y-155729853D01*
X156561010Y-155457125D01*
X156618600Y-155167599D01*
X156618600Y-154872401D01*
X156561010Y-154582875D01*
X156448042Y-154310147D01*
X156284039Y-154064698D01*
X156075302Y-153855961D01*
X155916719Y-153750000D01*
X156075302Y-153644039D01*
X156284039Y-153435302D01*
X156448042Y-153189853D01*
X156561010Y-152917125D01*
X156598346Y-152729419D01*
X170565000Y-152729419D01*
X170565000Y-153110581D01*
X170639361Y-153484419D01*
X170785225Y-153836566D01*
X170996987Y-154153491D01*
X171266509Y-154423013D01*
X171583434Y-154634775D01*
X171935581Y-154780639D01*
X172309419Y-154855000D01*
X172690581Y-154855000D01*
X173064419Y-154780639D01*
X173416566Y-154634775D01*
X173733491Y-154423013D01*
X174003013Y-154153491D01*
X174214775Y-153836566D01*
X174360639Y-153484419D01*
X174435000Y-153110581D01*
X174435000Y-152729419D01*
X174360639Y-152355581D01*
X174214775Y-152003434D01*
X174003013Y-151686509D01*
X173733491Y-151416987D01*
X173416566Y-151205225D01*
X173064419Y-151059361D01*
X172690581Y-150985000D01*
X172309419Y-150985000D01*
X171935581Y-151059361D01*
X171583434Y-151205225D01*
X171266509Y-151416987D01*
X170996987Y-151686509D01*
X170785225Y-152003434D01*
X170639361Y-152355581D01*
X170565000Y-152729419D01*
X156598346Y-152729419D01*
X156618600Y-152627599D01*
X156618600Y-152332401D01*
X156561010Y-152042875D01*
X156448042Y-151770147D01*
X156284039Y-151524698D01*
X156075302Y-151315961D01*
X155916719Y-151210000D01*
X156075302Y-151104039D01*
X156284039Y-150895302D01*
X156448042Y-150649853D01*
X156561010Y-150377125D01*
X156618600Y-150087599D01*
X156618600Y-149792401D01*
X156561010Y-149502875D01*
X156448042Y-149230147D01*
X156284039Y-148984698D01*
X156099341Y-148800000D01*
X160661928Y-148800000D01*
X160661928Y-151200000D01*
X160674188Y-151324482D01*
X160710498Y-151444180D01*
X160769463Y-151554494D01*
X160848815Y-151651185D01*
X160945506Y-151730537D01*
X161055820Y-151789502D01*
X161175518Y-151825812D01*
X161300000Y-151838072D01*
X163700000Y-151838072D01*
X163824482Y-151825812D01*
X163944180Y-151789502D01*
X164054494Y-151730537D01*
X164151185Y-151651185D01*
X164230537Y-151554494D01*
X164289502Y-151444180D01*
X164325812Y-151324482D01*
X164338072Y-151200000D01*
X164338072Y-148800000D01*
X164325812Y-148675518D01*
X164289502Y-148555820D01*
X164230537Y-148445506D01*
X164151185Y-148348815D01*
X164054494Y-148269463D01*
X163944180Y-148210498D01*
X163824482Y-148174188D01*
X163700000Y-148161928D01*
X161300000Y-148161928D01*
X161175518Y-148174188D01*
X161055820Y-148210498D01*
X160945506Y-148269463D01*
X160848815Y-148348815D01*
X160769463Y-148445506D01*
X160710498Y-148555820D01*
X160674188Y-148675518D01*
X160661928Y-148800000D01*
X156099341Y-148800000D01*
X156075302Y-148775961D01*
X155916719Y-148670000D01*
X156075302Y-148564039D01*
X156284039Y-148355302D01*
X156448042Y-148109853D01*
X156561010Y-147837125D01*
X156618600Y-147547599D01*
X156618600Y-147252401D01*
X156561010Y-146962875D01*
X156448042Y-146690147D01*
X156284039Y-146444698D01*
X156075302Y-146235961D01*
X155916719Y-146130000D01*
X156075302Y-146024039D01*
X156120073Y-145979268D01*
X160665000Y-145979268D01*
X160665000Y-146340732D01*
X160735518Y-146695250D01*
X160873844Y-147029199D01*
X161074662Y-147329744D01*
X161330256Y-147585338D01*
X161630801Y-147786156D01*
X161964750Y-147924482D01*
X162319268Y-147995000D01*
X162680732Y-147995000D01*
X163035250Y-147924482D01*
X163369199Y-147786156D01*
X163669744Y-147585338D01*
X163925338Y-147329744D01*
X164126156Y-147029199D01*
X164264482Y-146695250D01*
X164335000Y-146340732D01*
X164335000Y-145979268D01*
X164264482Y-145624750D01*
X164126156Y-145290801D01*
X163925338Y-144990256D01*
X163669744Y-144734662D01*
X163369199Y-144533844D01*
X163035250Y-144395518D01*
X162680732Y-144325000D01*
X162319268Y-144325000D01*
X161964750Y-144395518D01*
X161630801Y-144533844D01*
X161330256Y-144734662D01*
X161074662Y-144990256D01*
X160873844Y-145290801D01*
X160735518Y-145624750D01*
X160665000Y-145979268D01*
X156120073Y-145979268D01*
X156284039Y-145815302D01*
X156448042Y-145569853D01*
X156561010Y-145297125D01*
X156618600Y-145007599D01*
X156618600Y-144712401D01*
X156561010Y-144422875D01*
X156448042Y-144150147D01*
X156284039Y-143904698D01*
X156075302Y-143695961D01*
X155916719Y-143590000D01*
X156075302Y-143484039D01*
X156284039Y-143275302D01*
X156448042Y-143029853D01*
X156561010Y-142757125D01*
X156572372Y-142700000D01*
X170561928Y-142700000D01*
X170561928Y-145300000D01*
X170574188Y-145424482D01*
X170610498Y-145544180D01*
X170669463Y-145654494D01*
X170748815Y-145751185D01*
X170845506Y-145830537D01*
X170955820Y-145889502D01*
X171075518Y-145925812D01*
X171200000Y-145938072D01*
X173800000Y-145938072D01*
X173924482Y-145925812D01*
X174044180Y-145889502D01*
X174154494Y-145830537D01*
X174251185Y-145751185D01*
X174330537Y-145654494D01*
X174389502Y-145544180D01*
X174425812Y-145424482D01*
X174438072Y-145300000D01*
X174438072Y-142700000D01*
X174425812Y-142575518D01*
X174389502Y-142455820D01*
X174330537Y-142345506D01*
X174251185Y-142248815D01*
X174154494Y-142169463D01*
X174044180Y-142110498D01*
X173924482Y-142074188D01*
X173800000Y-142061928D01*
X171200000Y-142061928D01*
X171075518Y-142074188D01*
X170955820Y-142110498D01*
X170845506Y-142169463D01*
X170748815Y-142248815D01*
X170669463Y-142345506D01*
X170610498Y-142455820D01*
X170574188Y-142575518D01*
X170561928Y-142700000D01*
X156572372Y-142700000D01*
X156618600Y-142467599D01*
X156618600Y-142172401D01*
X156561010Y-141882875D01*
X156448042Y-141610147D01*
X156284039Y-141364698D01*
X156075302Y-141155961D01*
X155916719Y-141050000D01*
X156075302Y-140944039D01*
X156284039Y-140735302D01*
X156448042Y-140489853D01*
X156561010Y-140217125D01*
X156618600Y-139927599D01*
X156618600Y-139632401D01*
X156561010Y-139342875D01*
X156448042Y-139070147D01*
X156284039Y-138824698D01*
X156188760Y-138729419D01*
X170565000Y-138729419D01*
X170565000Y-139110581D01*
X170639361Y-139484419D01*
X170785225Y-139836566D01*
X170996987Y-140153491D01*
X171266509Y-140423013D01*
X171583434Y-140634775D01*
X171935581Y-140780639D01*
X172309419Y-140855000D01*
X172690581Y-140855000D01*
X173064419Y-140780639D01*
X173416566Y-140634775D01*
X173733491Y-140423013D01*
X174003013Y-140153491D01*
X174214775Y-139836566D01*
X174360639Y-139484419D01*
X174435000Y-139110581D01*
X174435000Y-138729419D01*
X174360639Y-138355581D01*
X174214775Y-138003434D01*
X174003013Y-137686509D01*
X173733491Y-137416987D01*
X173416566Y-137205225D01*
X173064419Y-137059361D01*
X172690581Y-136985000D01*
X172309419Y-136985000D01*
X171935581Y-137059361D01*
X171583434Y-137205225D01*
X171266509Y-137416987D01*
X170996987Y-137686509D01*
X170785225Y-138003434D01*
X170639361Y-138355581D01*
X170565000Y-138729419D01*
X156188760Y-138729419D01*
X156075302Y-138615961D01*
X155916719Y-138510000D01*
X156075302Y-138404039D01*
X156284039Y-138195302D01*
X156448042Y-137949853D01*
X156561010Y-137677125D01*
X156618600Y-137387599D01*
X156618600Y-137092401D01*
X156561010Y-136802875D01*
X156448042Y-136530147D01*
X156284039Y-136284698D01*
X156075302Y-136075961D01*
X155916719Y-135970000D01*
X156075302Y-135864039D01*
X156284039Y-135655302D01*
X156448042Y-135409853D01*
X156561010Y-135137125D01*
X156618600Y-134847599D01*
X156618600Y-134800000D01*
X160661928Y-134800000D01*
X160661928Y-137200000D01*
X160674188Y-137324482D01*
X160710498Y-137444180D01*
X160769463Y-137554494D01*
X160848815Y-137651185D01*
X160945506Y-137730537D01*
X161055820Y-137789502D01*
X161175518Y-137825812D01*
X161300000Y-137838072D01*
X163700000Y-137838072D01*
X163824482Y-137825812D01*
X163944180Y-137789502D01*
X164054494Y-137730537D01*
X164151185Y-137651185D01*
X164230537Y-137554494D01*
X164289502Y-137444180D01*
X164325812Y-137324482D01*
X164338072Y-137200000D01*
X164338072Y-134800000D01*
X164325812Y-134675518D01*
X164289502Y-134555820D01*
X164230537Y-134445506D01*
X164151185Y-134348815D01*
X164054494Y-134269463D01*
X163944180Y-134210498D01*
X163824482Y-134174188D01*
X163700000Y-134161928D01*
X161300000Y-134161928D01*
X161175518Y-134174188D01*
X161055820Y-134210498D01*
X160945506Y-134269463D01*
X160848815Y-134348815D01*
X160769463Y-134445506D01*
X160710498Y-134555820D01*
X160674188Y-134675518D01*
X160661928Y-134800000D01*
X156618600Y-134800000D01*
X156618600Y-134552401D01*
X156561010Y-134262875D01*
X156448042Y-133990147D01*
X156284039Y-133744698D01*
X156075302Y-133535961D01*
X155916719Y-133430000D01*
X156075302Y-133324039D01*
X156284039Y-133115302D01*
X156448042Y-132869853D01*
X156561010Y-132597125D01*
X156618600Y-132307599D01*
X156618600Y-132127000D01*
X160665000Y-132127000D01*
X160665000Y-132340732D01*
X160735518Y-132695250D01*
X160873844Y-133029199D01*
X161074662Y-133329744D01*
X161330256Y-133585338D01*
X161630801Y-133786156D01*
X161964750Y-133924482D01*
X162319268Y-133995000D01*
X162680732Y-133995000D01*
X163035250Y-133924482D01*
X163369199Y-133786156D01*
X163669744Y-133585338D01*
X163925338Y-133329744D01*
X164115598Y-133045000D01*
X170561928Y-133045000D01*
X170561928Y-133300000D01*
X170574188Y-133424482D01*
X170610498Y-133544180D01*
X170669463Y-133654494D01*
X170748815Y-133751185D01*
X170845506Y-133830537D01*
X170955820Y-133889502D01*
X171075518Y-133925812D01*
X171200000Y-133938072D01*
X173800000Y-133938072D01*
X173924482Y-133925812D01*
X174044180Y-133889502D01*
X174154494Y-133830537D01*
X174251185Y-133751185D01*
X174330537Y-133654494D01*
X174389502Y-133544180D01*
X174425812Y-133424482D01*
X174438072Y-133300000D01*
X174438072Y-132127000D01*
X178115000Y-132127000D01*
X178115000Y-134543476D01*
X178115001Y-134543486D01*
X178115000Y-169133421D01*
X174633422Y-172615000D01*
X164466579Y-172615000D01*
X163038072Y-171186494D01*
X163038072Y-169847500D01*
X163025812Y-169723018D01*
X162989502Y-169603320D01*
X162930537Y-169493006D01*
X162851185Y-169396315D01*
X162754494Y-169316963D01*
X162670554Y-169272095D01*
X162773845Y-169146235D01*
X162921255Y-168870449D01*
X163012030Y-168571204D01*
X163042681Y-168260000D01*
X163012030Y-167948796D01*
X162921255Y-167649551D01*
X162877727Y-167568115D01*
X168615000Y-167568115D01*
X168615000Y-168431885D01*
X168783513Y-169279057D01*
X169114064Y-170077076D01*
X169593948Y-170795274D01*
X170204726Y-171406052D01*
X170922924Y-171885936D01*
X171720943Y-172216487D01*
X172568115Y-172385000D01*
X173431885Y-172385000D01*
X174279057Y-172216487D01*
X175077076Y-171885936D01*
X175795274Y-171406052D01*
X176406052Y-170795274D01*
X176885936Y-170077076D01*
X177216487Y-169279057D01*
X177385000Y-168431885D01*
X177385000Y-167568115D01*
X177216487Y-166720943D01*
X176885936Y-165922924D01*
X176406052Y-165204726D01*
X175795274Y-164593948D01*
X175077076Y-164114064D01*
X174279057Y-163783513D01*
X173431885Y-163615000D01*
X172568115Y-163615000D01*
X171720943Y-163783513D01*
X170922924Y-164114064D01*
X170204726Y-164593948D01*
X169593948Y-165204726D01*
X169114064Y-165922924D01*
X168783513Y-166720943D01*
X168615000Y-167568115D01*
X162877727Y-167568115D01*
X162773845Y-167373765D01*
X162575463Y-167132037D01*
X162402391Y-166990000D01*
X162575463Y-166847963D01*
X162773845Y-166606235D01*
X162921255Y-166330449D01*
X163012030Y-166031204D01*
X163042681Y-165720000D01*
X163012030Y-165408796D01*
X162921255Y-165109551D01*
X162773845Y-164833765D01*
X162575463Y-164592037D01*
X162333735Y-164393655D01*
X162057949Y-164246245D01*
X161758704Y-164155470D01*
X161525486Y-164132500D01*
X161274514Y-164132500D01*
X161041296Y-164155470D01*
X160742051Y-164246245D01*
X160466265Y-164393655D01*
X160224537Y-164592037D01*
X160026155Y-164833765D01*
X159878745Y-165109551D01*
X159787970Y-165408796D01*
X159757319Y-165720000D01*
X159787970Y-166031204D01*
X159878745Y-166330449D01*
X160026155Y-166606235D01*
X160224537Y-166847963D01*
X160397609Y-166990000D01*
X160224537Y-167132037D01*
X160026155Y-167373765D01*
X159878745Y-167649551D01*
X159787970Y-167948796D01*
X159757319Y-168260000D01*
X159787970Y-168571204D01*
X159878745Y-168870449D01*
X160026155Y-169146235D01*
X160129446Y-169272095D01*
X160045506Y-169316963D01*
X159948815Y-169396315D01*
X159869463Y-169493006D01*
X159810498Y-169603320D01*
X159774188Y-169723018D01*
X159761928Y-169847500D01*
X159761928Y-171752500D01*
X159774188Y-171876982D01*
X159810498Y-171996680D01*
X159869463Y-172106994D01*
X159948815Y-172203685D01*
X160045506Y-172283037D01*
X160155820Y-172342002D01*
X160275518Y-172378312D01*
X160400000Y-172390572D01*
X161738994Y-172390572D01*
X163443470Y-174095049D01*
X163471183Y-174128817D01*
X163504951Y-174156530D01*
X163504953Y-174156532D01*
X163605941Y-174239411D01*
X163759686Y-174321589D01*
X163820378Y-174340000D01*
X105029392Y-174340000D01*
X104231917Y-174268827D01*
X103488110Y-174065344D01*
X102792096Y-173733363D01*
X102165870Y-173283374D01*
X101629223Y-172729597D01*
X101199129Y-172089549D01*
X100889171Y-171383447D01*
X100707935Y-170628543D01*
X100660000Y-169975793D01*
X100660000Y-167568115D01*
X102615000Y-167568115D01*
X102615000Y-168431885D01*
X102783513Y-169279057D01*
X103114064Y-170077076D01*
X103593948Y-170795274D01*
X104204726Y-171406052D01*
X104922924Y-171885936D01*
X105720943Y-172216487D01*
X106568115Y-172385000D01*
X107431885Y-172385000D01*
X108279057Y-172216487D01*
X109077076Y-171885936D01*
X109795274Y-171406052D01*
X110406052Y-170795274D01*
X110885936Y-170077076D01*
X111000704Y-169800000D01*
X116061928Y-169800000D01*
X116074188Y-169924482D01*
X116110498Y-170044180D01*
X116169463Y-170154494D01*
X116248815Y-170251185D01*
X116345506Y-170330537D01*
X116455820Y-170389502D01*
X116575518Y-170425812D01*
X116700000Y-170438072D01*
X117214250Y-170435000D01*
X117373000Y-170276250D01*
X117373000Y-169127000D01*
X116223750Y-169127000D01*
X116065000Y-169285750D01*
X116061928Y-169800000D01*
X111000704Y-169800000D01*
X111216487Y-169279057D01*
X111385000Y-168431885D01*
X111385000Y-168200000D01*
X116061928Y-168200000D01*
X116065000Y-168714250D01*
X116223750Y-168873000D01*
X117373000Y-168873000D01*
X117373000Y-167723750D01*
X117627000Y-167723750D01*
X117627000Y-168873000D01*
X117647000Y-168873000D01*
X117647000Y-169127000D01*
X117627000Y-169127000D01*
X117627000Y-170276250D01*
X117785750Y-170435000D01*
X118300000Y-170438072D01*
X118424482Y-170425812D01*
X118544180Y-170389502D01*
X118654494Y-170330537D01*
X118751185Y-170251185D01*
X118830537Y-170154494D01*
X118889502Y-170044180D01*
X118918661Y-169948057D01*
X119085241Y-170114637D01*
X119320273Y-170271680D01*
X119581426Y-170379853D01*
X119858665Y-170435000D01*
X120141335Y-170435000D01*
X120418574Y-170379853D01*
X120679727Y-170271680D01*
X120914759Y-170114637D01*
X121114637Y-169914759D01*
X121271680Y-169679727D01*
X121379853Y-169418574D01*
X121403439Y-169300000D01*
X128061928Y-169300000D01*
X128074188Y-169424482D01*
X128110498Y-169544180D01*
X128169463Y-169654494D01*
X128248815Y-169751185D01*
X128345506Y-169830537D01*
X128455820Y-169889502D01*
X128575518Y-169925812D01*
X128700000Y-169938072D01*
X129714250Y-169935000D01*
X129873000Y-169776250D01*
X129873000Y-168127000D01*
X130127000Y-168127000D01*
X130127000Y-169776250D01*
X130285750Y-169935000D01*
X131300000Y-169938072D01*
X131424482Y-169925812D01*
X131544180Y-169889502D01*
X131654494Y-169830537D01*
X131751185Y-169751185D01*
X131830537Y-169654494D01*
X131889502Y-169544180D01*
X131925812Y-169424482D01*
X131938072Y-169300000D01*
X131935000Y-168285750D01*
X131776250Y-168127000D01*
X130127000Y-168127000D01*
X129873000Y-168127000D01*
X128223750Y-168127000D01*
X128065000Y-168285750D01*
X128061928Y-169300000D01*
X121403439Y-169300000D01*
X121435000Y-169141335D01*
X121435000Y-168858665D01*
X121379853Y-168581426D01*
X121271680Y-168320273D01*
X121114637Y-168085241D01*
X120914759Y-167885363D01*
X120679727Y-167728320D01*
X120418574Y-167620147D01*
X120141335Y-167565000D01*
X119858665Y-167565000D01*
X119581426Y-167620147D01*
X119320273Y-167728320D01*
X119085241Y-167885363D01*
X118918661Y-168051943D01*
X118889502Y-167955820D01*
X118830537Y-167845506D01*
X118751185Y-167748815D01*
X118654494Y-167669463D01*
X118544180Y-167610498D01*
X118424482Y-167574188D01*
X118300000Y-167561928D01*
X117785750Y-167565000D01*
X117627000Y-167723750D01*
X117373000Y-167723750D01*
X117214250Y-167565000D01*
X116700000Y-167561928D01*
X116575518Y-167574188D01*
X116455820Y-167610498D01*
X116345506Y-167669463D01*
X116248815Y-167748815D01*
X116169463Y-167845506D01*
X116110498Y-167955820D01*
X116074188Y-168075518D01*
X116061928Y-168200000D01*
X111385000Y-168200000D01*
X111385000Y-167568115D01*
X111216487Y-166720943D01*
X111207813Y-166700000D01*
X128061928Y-166700000D01*
X128065000Y-167714250D01*
X128223750Y-167873000D01*
X129873000Y-167873000D01*
X129873000Y-166223750D01*
X130127000Y-166223750D01*
X130127000Y-167873000D01*
X131776250Y-167873000D01*
X131839831Y-167809419D01*
X133145000Y-167809419D01*
X133145000Y-168190581D01*
X133219361Y-168564419D01*
X133365225Y-168916566D01*
X133576987Y-169233491D01*
X133846509Y-169503013D01*
X134163434Y-169714775D01*
X134515581Y-169860639D01*
X134889419Y-169935000D01*
X135270581Y-169935000D01*
X135644419Y-169860639D01*
X135996566Y-169714775D01*
X136313491Y-169503013D01*
X136583013Y-169233491D01*
X136794775Y-168916566D01*
X136940639Y-168564419D01*
X137015000Y-168190581D01*
X137015000Y-167809419D01*
X136940639Y-167435581D01*
X136794775Y-167083434D01*
X136583013Y-166766509D01*
X136313491Y-166496987D01*
X135996566Y-166285225D01*
X135644419Y-166139361D01*
X135270581Y-166065000D01*
X134889419Y-166065000D01*
X134515581Y-166139361D01*
X134163434Y-166285225D01*
X133846509Y-166496987D01*
X133576987Y-166766509D01*
X133365225Y-167083434D01*
X133219361Y-167435581D01*
X133145000Y-167809419D01*
X131839831Y-167809419D01*
X131935000Y-167714250D01*
X131938072Y-166700000D01*
X131925812Y-166575518D01*
X131889502Y-166455820D01*
X131830537Y-166345506D01*
X131751185Y-166248815D01*
X131654494Y-166169463D01*
X131544180Y-166110498D01*
X131424482Y-166074188D01*
X131300000Y-166061928D01*
X130285750Y-166065000D01*
X130127000Y-166223750D01*
X129873000Y-166223750D01*
X129714250Y-166065000D01*
X128700000Y-166061928D01*
X128575518Y-166074188D01*
X128455820Y-166110498D01*
X128345506Y-166169463D01*
X128248815Y-166248815D01*
X128169463Y-166345506D01*
X128110498Y-166455820D01*
X128074188Y-166575518D01*
X128061928Y-166700000D01*
X111207813Y-166700000D01*
X110885936Y-165922924D01*
X110406052Y-165204726D01*
X109795274Y-164593948D01*
X109077076Y-164114064D01*
X108279057Y-163783513D01*
X107431885Y-163615000D01*
X106568115Y-163615000D01*
X105720943Y-163783513D01*
X104922924Y-164114064D01*
X104204726Y-164593948D01*
X103593948Y-165204726D01*
X103114064Y-165922924D01*
X102783513Y-166720943D01*
X102615000Y-167568115D01*
X100660000Y-167568115D01*
X100660000Y-159992702D01*
X129186903Y-159992702D01*
X129258486Y-160236671D01*
X129513996Y-160357571D01*
X129788184Y-160426300D01*
X130070512Y-160440217D01*
X130350130Y-160398787D01*
X130616292Y-160303603D01*
X130741514Y-160236671D01*
X130813097Y-159992702D01*
X130000000Y-159179605D01*
X129186903Y-159992702D01*
X100660000Y-159992702D01*
X100660000Y-159070512D01*
X128559783Y-159070512D01*
X128601213Y-159350130D01*
X128696397Y-159616292D01*
X128763329Y-159741514D01*
X129007298Y-159813097D01*
X129820395Y-159000000D01*
X130179605Y-159000000D01*
X130992702Y-159813097D01*
X131236671Y-159741514D01*
X131357571Y-159486004D01*
X131426300Y-159211816D01*
X131440217Y-158929488D01*
X131429724Y-158858665D01*
X133565000Y-158858665D01*
X133565000Y-159141335D01*
X133620147Y-159418574D01*
X133728320Y-159679727D01*
X133885363Y-159914759D01*
X134085241Y-160114637D01*
X134320273Y-160271680D01*
X134581426Y-160379853D01*
X134858665Y-160435000D01*
X135141335Y-160435000D01*
X135418574Y-160379853D01*
X135679727Y-160271680D01*
X135914759Y-160114637D01*
X136114637Y-159914759D01*
X136271680Y-159679727D01*
X136379853Y-159418574D01*
X136435000Y-159141335D01*
X136435000Y-158858665D01*
X136379853Y-158581426D01*
X136271680Y-158320273D01*
X136114637Y-158085241D01*
X135914759Y-157885363D01*
X135679727Y-157728320D01*
X135418574Y-157620147D01*
X135141335Y-157565000D01*
X134858665Y-157565000D01*
X134581426Y-157620147D01*
X134320273Y-157728320D01*
X134085241Y-157885363D01*
X133885363Y-158085241D01*
X133728320Y-158320273D01*
X133620147Y-158581426D01*
X133565000Y-158858665D01*
X131429724Y-158858665D01*
X131398787Y-158649870D01*
X131303603Y-158383708D01*
X131236671Y-158258486D01*
X130992702Y-158186903D01*
X130179605Y-159000000D01*
X129820395Y-159000000D01*
X129007298Y-158186903D01*
X128763329Y-158258486D01*
X128642429Y-158513996D01*
X128573700Y-158788184D01*
X128559783Y-159070512D01*
X100660000Y-159070512D01*
X100660000Y-158007298D01*
X129186903Y-158007298D01*
X130000000Y-158820395D01*
X130813097Y-158007298D01*
X130741514Y-157763329D01*
X130486004Y-157642429D01*
X130211816Y-157573700D01*
X129929488Y-157559783D01*
X129649870Y-157601213D01*
X129383708Y-157696397D01*
X129258486Y-157763329D01*
X129186903Y-158007298D01*
X100660000Y-158007298D01*
X100660000Y-157300000D01*
X104561928Y-157300000D01*
X104574188Y-157424482D01*
X104610498Y-157544180D01*
X104669463Y-157654494D01*
X104748815Y-157751185D01*
X104845506Y-157830537D01*
X104955820Y-157889502D01*
X105075518Y-157925812D01*
X105200000Y-157938072D01*
X105714250Y-157935000D01*
X105873000Y-157776250D01*
X105873000Y-156627000D01*
X104723750Y-156627000D01*
X104565000Y-156785750D01*
X104561928Y-157300000D01*
X100660000Y-157300000D01*
X100660000Y-155700000D01*
X104561928Y-155700000D01*
X104565000Y-156214250D01*
X104723750Y-156373000D01*
X105873000Y-156373000D01*
X105873000Y-155223750D01*
X106127000Y-155223750D01*
X106127000Y-156373000D01*
X106147000Y-156373000D01*
X106147000Y-156627000D01*
X106127000Y-156627000D01*
X106127000Y-157776250D01*
X106285750Y-157935000D01*
X106800000Y-157938072D01*
X106924482Y-157925812D01*
X107044180Y-157889502D01*
X107154494Y-157830537D01*
X107251185Y-157751185D01*
X107330537Y-157654494D01*
X107389502Y-157544180D01*
X107418661Y-157448057D01*
X107585241Y-157614637D01*
X107820273Y-157771680D01*
X108081426Y-157879853D01*
X108358665Y-157935000D01*
X108641335Y-157935000D01*
X108918574Y-157879853D01*
X109179727Y-157771680D01*
X109414759Y-157614637D01*
X109614637Y-157414759D01*
X109691316Y-157300000D01*
X116061928Y-157300000D01*
X116074188Y-157424482D01*
X116110498Y-157544180D01*
X116169463Y-157654494D01*
X116248815Y-157751185D01*
X116345506Y-157830537D01*
X116455820Y-157889502D01*
X116575518Y-157925812D01*
X116700000Y-157938072D01*
X117214250Y-157935000D01*
X117373000Y-157776250D01*
X117373000Y-156627000D01*
X116223750Y-156627000D01*
X116065000Y-156785750D01*
X116061928Y-157300000D01*
X109691316Y-157300000D01*
X109771680Y-157179727D01*
X109879853Y-156918574D01*
X109935000Y-156641335D01*
X109935000Y-156358665D01*
X109879853Y-156081426D01*
X109771680Y-155820273D01*
X109691317Y-155700000D01*
X116061928Y-155700000D01*
X116065000Y-156214250D01*
X116223750Y-156373000D01*
X117373000Y-156373000D01*
X117373000Y-155223750D01*
X117627000Y-155223750D01*
X117627000Y-156373000D01*
X117647000Y-156373000D01*
X117647000Y-156627000D01*
X117627000Y-156627000D01*
X117627000Y-157776250D01*
X117785750Y-157935000D01*
X118300000Y-157938072D01*
X118424482Y-157925812D01*
X118544180Y-157889502D01*
X118654494Y-157830537D01*
X118751185Y-157751185D01*
X118830537Y-157654494D01*
X118889502Y-157544180D01*
X118918661Y-157448057D01*
X119085241Y-157614637D01*
X119320273Y-157771680D01*
X119581426Y-157879853D01*
X119858665Y-157935000D01*
X120141335Y-157935000D01*
X120418574Y-157879853D01*
X120679727Y-157771680D01*
X120914759Y-157614637D01*
X121114637Y-157414759D01*
X121271680Y-157179727D01*
X121379853Y-156918574D01*
X121435000Y-156641335D01*
X121435000Y-156358665D01*
X121379853Y-156081426D01*
X121271680Y-155820273D01*
X121114637Y-155585241D01*
X120914759Y-155385363D01*
X120679727Y-155228320D01*
X120418574Y-155120147D01*
X120141335Y-155065000D01*
X119858665Y-155065000D01*
X119581426Y-155120147D01*
X119320273Y-155228320D01*
X119085241Y-155385363D01*
X118918661Y-155551943D01*
X118889502Y-155455820D01*
X118830537Y-155345506D01*
X118751185Y-155248815D01*
X118654494Y-155169463D01*
X118544180Y-155110498D01*
X118424482Y-155074188D01*
X118300000Y-155061928D01*
X117785750Y-155065000D01*
X117627000Y-155223750D01*
X117373000Y-155223750D01*
X117214250Y-155065000D01*
X116700000Y-155061928D01*
X116575518Y-155074188D01*
X116455820Y-155110498D01*
X116345506Y-155169463D01*
X116248815Y-155248815D01*
X116169463Y-155345506D01*
X116110498Y-155455820D01*
X116074188Y-155575518D01*
X116061928Y-155700000D01*
X109691317Y-155700000D01*
X109614637Y-155585241D01*
X109414759Y-155385363D01*
X109179727Y-155228320D01*
X108918574Y-155120147D01*
X108641335Y-155065000D01*
X108358665Y-155065000D01*
X108081426Y-155120147D01*
X107820273Y-155228320D01*
X107585241Y-155385363D01*
X107418661Y-155551943D01*
X107389502Y-155455820D01*
X107330537Y-155345506D01*
X107251185Y-155248815D01*
X107154494Y-155169463D01*
X107044180Y-155110498D01*
X106924482Y-155074188D01*
X106800000Y-155061928D01*
X106285750Y-155065000D01*
X106127000Y-155223750D01*
X105873000Y-155223750D01*
X105714250Y-155065000D01*
X105200000Y-155061928D01*
X105075518Y-155074188D01*
X104955820Y-155110498D01*
X104845506Y-155169463D01*
X104748815Y-155248815D01*
X104669463Y-155345506D01*
X104610498Y-155455820D01*
X104574188Y-155575518D01*
X104561928Y-155700000D01*
X100660000Y-155700000D01*
X100660000Y-151300000D01*
X126061928Y-151300000D01*
X126074188Y-151424482D01*
X126110498Y-151544180D01*
X126169463Y-151654494D01*
X126248815Y-151751185D01*
X126345506Y-151830537D01*
X126455820Y-151889502D01*
X126575518Y-151925812D01*
X126700000Y-151938072D01*
X127214250Y-151935000D01*
X127373000Y-151776250D01*
X127373000Y-150627000D01*
X126223750Y-150627000D01*
X126065000Y-150785750D01*
X126061928Y-151300000D01*
X100660000Y-151300000D01*
X100660000Y-149700000D01*
X126061928Y-149700000D01*
X126065000Y-150214250D01*
X126223750Y-150373000D01*
X127373000Y-150373000D01*
X127373000Y-149223750D01*
X127627000Y-149223750D01*
X127627000Y-150373000D01*
X127647000Y-150373000D01*
X127647000Y-150627000D01*
X127627000Y-150627000D01*
X127627000Y-151776250D01*
X127785750Y-151935000D01*
X128300000Y-151938072D01*
X128424482Y-151925812D01*
X128544180Y-151889502D01*
X128654494Y-151830537D01*
X128751185Y-151751185D01*
X128830537Y-151654494D01*
X128889502Y-151544180D01*
X128918661Y-151448057D01*
X129085241Y-151614637D01*
X129320273Y-151771680D01*
X129581426Y-151879853D01*
X129858665Y-151935000D01*
X130141335Y-151935000D01*
X130418574Y-151879853D01*
X130679727Y-151771680D01*
X130914759Y-151614637D01*
X131114637Y-151414759D01*
X131271680Y-151179727D01*
X131379853Y-150918574D01*
X131435000Y-150641335D01*
X131435000Y-150358665D01*
X131379853Y-150081426D01*
X131271680Y-149820273D01*
X131114637Y-149585241D01*
X130914759Y-149385363D01*
X130679727Y-149228320D01*
X130418574Y-149120147D01*
X130141335Y-149065000D01*
X129858665Y-149065000D01*
X129581426Y-149120147D01*
X129320273Y-149228320D01*
X129085241Y-149385363D01*
X128918661Y-149551943D01*
X128889502Y-149455820D01*
X128830537Y-149345506D01*
X128751185Y-149248815D01*
X128654494Y-149169463D01*
X128544180Y-149110498D01*
X128424482Y-149074188D01*
X128300000Y-149061928D01*
X127785750Y-149065000D01*
X127627000Y-149223750D01*
X127373000Y-149223750D01*
X127214250Y-149065000D01*
X126700000Y-149061928D01*
X126575518Y-149074188D01*
X126455820Y-149110498D01*
X126345506Y-149169463D01*
X126248815Y-149248815D01*
X126169463Y-149345506D01*
X126110498Y-149455820D01*
X126074188Y-149575518D01*
X126061928Y-149700000D01*
X100660000Y-149700000D01*
X100660000Y-142803638D01*
X115810900Y-142803638D01*
X115810900Y-143136362D01*
X115875811Y-143462692D01*
X116003139Y-143770089D01*
X116187990Y-144046739D01*
X116423261Y-144282010D01*
X116699911Y-144466861D01*
X117007308Y-144594189D01*
X117333638Y-144659100D01*
X117666362Y-144659100D01*
X117992692Y-144594189D01*
X118300089Y-144466861D01*
X118576739Y-144282010D01*
X118812010Y-144046739D01*
X118996861Y-143770089D01*
X119124189Y-143462692D01*
X119189100Y-143136362D01*
X119189100Y-142803638D01*
X119124189Y-142477308D01*
X118996861Y-142169911D01*
X118812010Y-141893261D01*
X118787263Y-141868514D01*
X124665000Y-141868514D01*
X124665000Y-142131486D01*
X124716304Y-142389405D01*
X124816939Y-142632359D01*
X124963038Y-142851013D01*
X125148987Y-143036962D01*
X125367641Y-143183061D01*
X125610595Y-143283696D01*
X125868514Y-143335000D01*
X126131486Y-143335000D01*
X126389405Y-143283696D01*
X126632359Y-143183061D01*
X126851013Y-143036962D01*
X127036962Y-142851013D01*
X127183061Y-142632359D01*
X127283696Y-142389405D01*
X127335000Y-142131486D01*
X127335000Y-141868514D01*
X129745000Y-141868514D01*
X129745000Y-142131486D01*
X129796304Y-142389405D01*
X129896939Y-142632359D01*
X130043038Y-142851013D01*
X130228987Y-143036962D01*
X130447641Y-143183061D01*
X130690595Y-143283696D01*
X130948514Y-143335000D01*
X131211486Y-143335000D01*
X131469405Y-143283696D01*
X131712359Y-143183061D01*
X131931013Y-143036962D01*
X132116962Y-142851013D01*
X132263061Y-142632359D01*
X132363696Y-142389405D01*
X132415000Y-142131486D01*
X132415000Y-141916578D01*
X134595050Y-139736529D01*
X134628817Y-139708817D01*
X134739411Y-139574059D01*
X134803216Y-139454687D01*
X134821589Y-139420314D01*
X134872195Y-139253490D01*
X134877468Y-139199953D01*
X134885000Y-139123477D01*
X134885000Y-139123469D01*
X134889281Y-139080000D01*
X134885000Y-139036531D01*
X134885000Y-137685885D01*
X135029199Y-137626156D01*
X135329744Y-137425338D01*
X135585338Y-137169744D01*
X135786156Y-136869199D01*
X135924482Y-136535250D01*
X135995000Y-136180732D01*
X135995000Y-135819268D01*
X135924482Y-135464750D01*
X135786156Y-135130801D01*
X135585338Y-134830256D01*
X135329744Y-134574662D01*
X135029199Y-134373844D01*
X134695250Y-134235518D01*
X134340732Y-134165000D01*
X133979268Y-134165000D01*
X133624750Y-134235518D01*
X133290801Y-134373844D01*
X132990256Y-134574662D01*
X132734662Y-134830256D01*
X132533844Y-135130801D01*
X132395518Y-135464750D01*
X132325000Y-135819268D01*
X132325000Y-136180732D01*
X132395518Y-136535250D01*
X132533844Y-136869199D01*
X132734662Y-137169744D01*
X132990256Y-137425338D01*
X133115001Y-137508690D01*
X133115000Y-138713421D01*
X131163422Y-140665000D01*
X130948514Y-140665000D01*
X130690595Y-140716304D01*
X130447641Y-140816939D01*
X130228987Y-140963038D01*
X130043038Y-141148987D01*
X129896939Y-141367641D01*
X129796304Y-141610595D01*
X129745000Y-141868514D01*
X127335000Y-141868514D01*
X127283696Y-141610595D01*
X127183061Y-141367641D01*
X127036962Y-141148987D01*
X126851013Y-140963038D01*
X126632359Y-140816939D01*
X126389405Y-140716304D01*
X126131486Y-140665000D01*
X125868514Y-140665000D01*
X125610595Y-140716304D01*
X125367641Y-140816939D01*
X125148987Y-140963038D01*
X124963038Y-141148987D01*
X124816939Y-141367641D01*
X124716304Y-141610595D01*
X124665000Y-141868514D01*
X118787263Y-141868514D01*
X118576739Y-141657990D01*
X118300089Y-141473139D01*
X117992692Y-141345811D01*
X117666362Y-141280900D01*
X117333638Y-141280900D01*
X117007308Y-141345811D01*
X116699911Y-141473139D01*
X116423261Y-141657990D01*
X116187990Y-141893261D01*
X116003139Y-142169911D01*
X115875811Y-142477308D01*
X115810900Y-142803638D01*
X100660000Y-142803638D01*
X100660000Y-139628638D01*
X101840900Y-139628638D01*
X101840900Y-139961362D01*
X101905811Y-140287692D01*
X102033139Y-140595089D01*
X102217990Y-140871739D01*
X102453261Y-141107010D01*
X102729911Y-141291861D01*
X103037308Y-141419189D01*
X103363638Y-141484100D01*
X103696362Y-141484100D01*
X104022692Y-141419189D01*
X104330089Y-141291861D01*
X104606739Y-141107010D01*
X104842010Y-140871739D01*
X105026861Y-140595089D01*
X105154189Y-140287692D01*
X105219100Y-139961362D01*
X105219100Y-139628638D01*
X105154189Y-139302308D01*
X105026861Y-138994911D01*
X104842010Y-138718261D01*
X104606739Y-138482990D01*
X104330089Y-138298139D01*
X104022692Y-138170811D01*
X103696362Y-138105900D01*
X103363638Y-138105900D01*
X103037308Y-138170811D01*
X102729911Y-138298139D01*
X102453261Y-138482990D01*
X102217990Y-138718261D01*
X102033139Y-138994911D01*
X101905811Y-139302308D01*
X101840900Y-139628638D01*
X100660000Y-139628638D01*
X100660000Y-132127000D01*
X103615000Y-132127000D01*
X103615000Y-134456531D01*
%TA.AperFunction,Conductor*%
D30*
G36*
X103615000Y-134456531D02*
G01*
X103610719Y-134500000D01*
X103615000Y-134543469D01*
X103615000Y-134543476D01*
X103618072Y-134574662D01*
X103627805Y-134673490D01*
X103643157Y-134724096D01*
X103678411Y-134840312D01*
X103760589Y-134994058D01*
X103871183Y-135128817D01*
X103904956Y-135156534D01*
X109138470Y-140390049D01*
X109166183Y-140423817D01*
X109199951Y-140451530D01*
X109199953Y-140451532D01*
X109300941Y-140534411D01*
X109454687Y-140616589D01*
X109621510Y-140667195D01*
X109751523Y-140680000D01*
X109751531Y-140680000D01*
X109795000Y-140684281D01*
X109838469Y-140680000D01*
X111224261Y-140680000D01*
X111265826Y-140742206D01*
X111472794Y-140949174D01*
X111716162Y-141111788D01*
X111986579Y-141223798D01*
X112273652Y-141280900D01*
X112566348Y-141280900D01*
X112853421Y-141223798D01*
X113123838Y-141111788D01*
X113367206Y-140949174D01*
X113574174Y-140742206D01*
X113736788Y-140498838D01*
X113848798Y-140228421D01*
X113905900Y-139941348D01*
X113905900Y-139648652D01*
X113848798Y-139361579D01*
X113736788Y-139091162D01*
X113574174Y-138847794D01*
X113367206Y-138640826D01*
X113123838Y-138478212D01*
X112853421Y-138366202D01*
X112566348Y-138309100D01*
X112273652Y-138309100D01*
X111986579Y-138366202D01*
X111716162Y-138478212D01*
X111472794Y-138640826D01*
X111265826Y-138847794D01*
X111224261Y-138910000D01*
X110161579Y-138910000D01*
X107090231Y-135838652D01*
X110934100Y-135838652D01*
X110934100Y-136131348D01*
X110991202Y-136418421D01*
X111103212Y-136688838D01*
X111265826Y-136932206D01*
X111472794Y-137139174D01*
X111716162Y-137301788D01*
X111986579Y-137413798D01*
X112273652Y-137470900D01*
X112566348Y-137470900D01*
X112853421Y-137413798D01*
X113123838Y-137301788D01*
X113367206Y-137139174D01*
X113574174Y-136932206D01*
X113736788Y-136688838D01*
X113848798Y-136418421D01*
X113905900Y-136131348D01*
X113905900Y-135838652D01*
X116014100Y-135838652D01*
X116014100Y-136131348D01*
X116071202Y-136418421D01*
X116183212Y-136688838D01*
X116345826Y-136932206D01*
X116552794Y-137139174D01*
X116796162Y-137301788D01*
X117066579Y-137413798D01*
X117353652Y-137470900D01*
X117646348Y-137470900D01*
X117933421Y-137413798D01*
X118203838Y-137301788D01*
X118447206Y-137139174D01*
X118654174Y-136932206D01*
X118662330Y-136920000D01*
X122161928Y-136920000D01*
X122161928Y-137200000D01*
X122174188Y-137324482D01*
X122210498Y-137444180D01*
X122269463Y-137554494D01*
X122348815Y-137651185D01*
X122445506Y-137730537D01*
X122555820Y-137789502D01*
X122675518Y-137825812D01*
X122800000Y-137838072D01*
X125200000Y-137838072D01*
X125324482Y-137825812D01*
X125444180Y-137789502D01*
X125554494Y-137730537D01*
X125651185Y-137651185D01*
X125730537Y-137554494D01*
X125789502Y-137444180D01*
X125825812Y-137324482D01*
X125838072Y-137200000D01*
X125838072Y-134800000D01*
X125825812Y-134675518D01*
X125789502Y-134555820D01*
X125730537Y-134445506D01*
X125651185Y-134348815D01*
X125554494Y-134269463D01*
X125444180Y-134210498D01*
X125324482Y-134174188D01*
X125200000Y-134161928D01*
X122800000Y-134161928D01*
X122675518Y-134174188D01*
X122555820Y-134210498D01*
X122445506Y-134269463D01*
X122348815Y-134348815D01*
X122269463Y-134445506D01*
X122210498Y-134555820D01*
X122174188Y-134675518D01*
X122161928Y-134800000D01*
X122161928Y-135150000D01*
X118729148Y-135150000D01*
X118654174Y-135037794D01*
X118447206Y-134830826D01*
X118203838Y-134668212D01*
X117933421Y-134556202D01*
X117646348Y-134499100D01*
X117353652Y-134499100D01*
X117066579Y-134556202D01*
X116796162Y-134668212D01*
X116552794Y-134830826D01*
X116345826Y-135037794D01*
X116183212Y-135281162D01*
X116071202Y-135551579D01*
X116014100Y-135838652D01*
X113905900Y-135838652D01*
X113848798Y-135551579D01*
X113736788Y-135281162D01*
X113574174Y-135037794D01*
X113367206Y-134830826D01*
X113123838Y-134668212D01*
X112853421Y-134556202D01*
X112566348Y-134499100D01*
X112273652Y-134499100D01*
X111986579Y-134556202D01*
X111716162Y-134668212D01*
X111472794Y-134830826D01*
X111265826Y-135037794D01*
X111103212Y-135281162D01*
X110991202Y-135551579D01*
X110934100Y-135838652D01*
X107090231Y-135838652D01*
X105385000Y-134133422D01*
X105385000Y-132127000D01*
X106920900Y-132127000D01*
X106920900Y-132341362D01*
X106985811Y-132667692D01*
X107113139Y-132975089D01*
X107297990Y-133251739D01*
X107533261Y-133487010D01*
X107809911Y-133671861D01*
X108117308Y-133799189D01*
X108443638Y-133864100D01*
X108776362Y-133864100D01*
X109102692Y-133799189D01*
X109410089Y-133671861D01*
X109686739Y-133487010D01*
X109922010Y-133251739D01*
X109953881Y-133204040D01*
X111570565Y-133204040D01*
X111648310Y-133453207D01*
X111912503Y-133579196D01*
X112196199Y-133651223D01*
X112488496Y-133666519D01*
X112778161Y-133624497D01*
X113054062Y-133526771D01*
X113191690Y-133453207D01*
X113269435Y-133204040D01*
X112420000Y-132354605D01*
X111570565Y-133204040D01*
X109953881Y-133204040D01*
X110106861Y-132975089D01*
X110234189Y-132667692D01*
X110299100Y-132341362D01*
X110299100Y-132127000D01*
X110934577Y-132127000D01*
X110928481Y-132243496D01*
X110970503Y-132533161D01*
X111068229Y-132809062D01*
X111141793Y-132946690D01*
X111390960Y-133024435D01*
X112240395Y-132175000D01*
X112226253Y-132160858D01*
X112260110Y-132127000D01*
X112579890Y-132127000D01*
X112613748Y-132160858D01*
X112599605Y-132175000D01*
X113449040Y-133024435D01*
X113698207Y-132946690D01*
X113824196Y-132682497D01*
X113896223Y-132398801D01*
X113910446Y-132127000D01*
X125603744Y-132127000D01*
X125820273Y-132271680D01*
X126081426Y-132379853D01*
X126358665Y-132435000D01*
X126641335Y-132435000D01*
X126918574Y-132379853D01*
X127179727Y-132271680D01*
X127396256Y-132127000D01*
X130603744Y-132127000D01*
X130820273Y-132271680D01*
X131081426Y-132379853D01*
X131358665Y-132435000D01*
X131641335Y-132435000D01*
X131918574Y-132379853D01*
X132179727Y-132271680D01*
X132396256Y-132127000D01*
X136615001Y-132127000D01*
X136615001Y-133461544D01*
X136582795Y-133509744D01*
X136504774Y-133698102D01*
X136465000Y-133898061D01*
X136465000Y-134101939D01*
X136504774Y-134301898D01*
X136582795Y-134490256D01*
X136615001Y-134538456D01*
X136615000Y-147516531D01*
X136610719Y-147560000D01*
X136615000Y-147603469D01*
X136615000Y-147603476D01*
X136627805Y-147733489D01*
X136678411Y-147900312D01*
X136760589Y-148054058D01*
X136871183Y-148188817D01*
X136904956Y-148216534D01*
X138397895Y-149709474D01*
X138381400Y-149792401D01*
X138381400Y-150087599D01*
X138438990Y-150377125D01*
X138551958Y-150649853D01*
X138715961Y-150895302D01*
X138924698Y-151104039D01*
X139083281Y-151210000D01*
X138924698Y-151315961D01*
X138715961Y-151524698D01*
X138551958Y-151770147D01*
X138438990Y-152042875D01*
X138381400Y-152332401D01*
X138381400Y-152627599D01*
X138438990Y-152917125D01*
X138551958Y-153189853D01*
X138715961Y-153435302D01*
X138924698Y-153644039D01*
X139083281Y-153750000D01*
X138924698Y-153855961D01*
X138715961Y-154064698D01*
X138551958Y-154310147D01*
X138438990Y-154582875D01*
X138381400Y-154872401D01*
X138381400Y-155167599D01*
X138438990Y-155457125D01*
X138551958Y-155729853D01*
X138715961Y-155975302D01*
X138924698Y-156184039D01*
X139083281Y-156290000D01*
X138924698Y-156395961D01*
X138715961Y-156604698D01*
X138551958Y-156850147D01*
X138438990Y-157122875D01*
X138381400Y-157412401D01*
X138381400Y-157707599D01*
X138438990Y-157997125D01*
X138551958Y-158269853D01*
X138715961Y-158515302D01*
X138924698Y-158724039D01*
X139170147Y-158888042D01*
X139442875Y-159001010D01*
X139512810Y-159014921D01*
X139338587Y-159087087D01*
X139151380Y-159212174D01*
X138992174Y-159371380D01*
X138867087Y-159558587D01*
X138780925Y-159766599D01*
X138737000Y-159987424D01*
X138737000Y-160212576D01*
X138780925Y-160433401D01*
X138867087Y-160641413D01*
X138992174Y-160828620D01*
X139151380Y-160987826D01*
X139338587Y-161112913D01*
X139546599Y-161199075D01*
X139767424Y-161243000D01*
X139992576Y-161243000D01*
X140213401Y-161199075D01*
X140421413Y-161112913D01*
X140608620Y-160987826D01*
X140767826Y-160828620D01*
X140892913Y-160641413D01*
X140979075Y-160433401D01*
X141023000Y-160212576D01*
X141023000Y-159987424D01*
X140979075Y-159766599D01*
X140892913Y-159558587D01*
X140767826Y-159371380D01*
X140608620Y-159212174D01*
X140421413Y-159087087D01*
X140247190Y-159014921D01*
X140317125Y-159001010D01*
X140589853Y-158888042D01*
X140835302Y-158724039D01*
X141044039Y-158515302D01*
X141208042Y-158269853D01*
X141321010Y-157997125D01*
X141378600Y-157707599D01*
X141378600Y-157412401D01*
X141321010Y-157122875D01*
X141208042Y-156850147D01*
X141044039Y-156604698D01*
X140835302Y-156395961D01*
X140676719Y-156290000D01*
X140835302Y-156184039D01*
X141044039Y-155975302D01*
X141208042Y-155729853D01*
X141321010Y-155457125D01*
X141378600Y-155167599D01*
X141378600Y-154872401D01*
X141321010Y-154582875D01*
X141208042Y-154310147D01*
X141044039Y-154064698D01*
X140835302Y-153855961D01*
X140676719Y-153750000D01*
X140835302Y-153644039D01*
X141044039Y-153435302D01*
X141208042Y-153189853D01*
X141321010Y-152917125D01*
X141378600Y-152627599D01*
X141378600Y-152332401D01*
X141321010Y-152042875D01*
X141208042Y-151770147D01*
X141044039Y-151524698D01*
X140835302Y-151315961D01*
X140676719Y-151210000D01*
X140835302Y-151104039D01*
X141044039Y-150895302D01*
X141208042Y-150649853D01*
X141321010Y-150377125D01*
X141378600Y-150087599D01*
X141378600Y-149800873D01*
X142584774Y-148664962D01*
X142628817Y-148628817D01*
X142675690Y-148571702D01*
X142724263Y-148516009D01*
X142730920Y-148504405D01*
X142739411Y-148494059D01*
X142774252Y-148428875D01*
X142811014Y-148364797D01*
X142815280Y-148352117D01*
X142821589Y-148340313D01*
X142843043Y-148269591D01*
X142866600Y-148199566D01*
X142868310Y-148186297D01*
X142872195Y-148173490D01*
X142879440Y-148099926D01*
X142888881Y-148026667D01*
X142885000Y-147969829D01*
X142885000Y-138921269D01*
X150258336Y-138921269D01*
X150317797Y-139155037D01*
X150556242Y-139265934D01*
X150811740Y-139328183D01*
X151074473Y-139339390D01*
X151334344Y-139299125D01*
X151581366Y-139208935D01*
X151682203Y-139155037D01*
X151741664Y-138921269D01*
X151000000Y-138179605D01*
X150258336Y-138921269D01*
X142885000Y-138921269D01*
X142885000Y-138074473D01*
X149660610Y-138074473D01*
X149700875Y-138334344D01*
X149791065Y-138581366D01*
X149844963Y-138682203D01*
X150078731Y-138741664D01*
X150820395Y-138000000D01*
X151179605Y-138000000D01*
X151921269Y-138741664D01*
X152155037Y-138682203D01*
X152265934Y-138443758D01*
X152328183Y-138188260D01*
X152339390Y-137925527D01*
X152299125Y-137665656D01*
X152208935Y-137418634D01*
X152155037Y-137317797D01*
X151921269Y-137258336D01*
X151179605Y-138000000D01*
X150820395Y-138000000D01*
X150078731Y-137258336D01*
X149844963Y-137317797D01*
X149734066Y-137556242D01*
X149671817Y-137811740D01*
X149660610Y-138074473D01*
X142885000Y-138074473D01*
X142885000Y-138038454D01*
X142917205Y-137990256D01*
X142995226Y-137801898D01*
X143035000Y-137601939D01*
X143035000Y-137398061D01*
X142995226Y-137198102D01*
X142945781Y-137078731D01*
X150258336Y-137078731D01*
X151000000Y-137820395D01*
X151741664Y-137078731D01*
X151682203Y-136844963D01*
X151443758Y-136734066D01*
X151188260Y-136671817D01*
X150925527Y-136660610D01*
X150665656Y-136700875D01*
X150418634Y-136791065D01*
X150317797Y-136844963D01*
X150258336Y-137078731D01*
X142945781Y-137078731D01*
X142917205Y-137009744D01*
X142803937Y-136840226D01*
X142659774Y-136696063D01*
X142490256Y-136582795D01*
X142301898Y-136504774D01*
X142101939Y-136465000D01*
X141898061Y-136465000D01*
X141698102Y-136504774D01*
X141509744Y-136582795D01*
X141340226Y-136696063D01*
X141295354Y-136740935D01*
X141208042Y-136530147D01*
X141044039Y-136284698D01*
X140835302Y-136075961D01*
X140676719Y-135970000D01*
X140835302Y-135864039D01*
X141044039Y-135655302D01*
X141208042Y-135409853D01*
X141321010Y-135137125D01*
X141378600Y-134847599D01*
X141378600Y-134552401D01*
X141321010Y-134262875D01*
X141208042Y-133990147D01*
X141044039Y-133744698D01*
X140835302Y-133535961D01*
X140676719Y-133430000D01*
X140835302Y-133324039D01*
X141044039Y-133115302D01*
X141208042Y-132869853D01*
X141321010Y-132597125D01*
X141378600Y-132307599D01*
X141378600Y-132127000D01*
X149924275Y-132127000D01*
X149816939Y-132287641D01*
X149716304Y-132530595D01*
X149665000Y-132788514D01*
X149665000Y-133051486D01*
X149716304Y-133309405D01*
X149816939Y-133552359D01*
X149963038Y-133771013D01*
X150148987Y-133956962D01*
X150367641Y-134103061D01*
X150610595Y-134203696D01*
X150868514Y-134255000D01*
X151131486Y-134255000D01*
X151389405Y-134203696D01*
X151632359Y-134103061D01*
X151851013Y-133956962D01*
X152036962Y-133771013D01*
X152183061Y-133552359D01*
X152283696Y-133309405D01*
X152335000Y-133051486D01*
X152335000Y-132788514D01*
X152283696Y-132530595D01*
X152183061Y-132287641D01*
X152075725Y-132127000D01*
X153621400Y-132127000D01*
X153621400Y-132307599D01*
X153678990Y-132597125D01*
X153791958Y-132869853D01*
X153955961Y-133115302D01*
X154164698Y-133324039D01*
X154323281Y-133430000D01*
X154164698Y-133535961D01*
X153955961Y-133744698D01*
X153791958Y-133990147D01*
X153678990Y-134262875D01*
X153621400Y-134552401D01*
X153621400Y-134847599D01*
X153678990Y-135137125D01*
X153791958Y-135409853D01*
X153955961Y-135655302D01*
X154164698Y-135864039D01*
X154323281Y-135970000D01*
X154164698Y-136075961D01*
X153955961Y-136284698D01*
X153791958Y-136530147D01*
X153678990Y-136802875D01*
X153621400Y-137092401D01*
X153621400Y-137387599D01*
X153678990Y-137677125D01*
X153791958Y-137949853D01*
X153955961Y-138195302D01*
X154164698Y-138404039D01*
X154323281Y-138510000D01*
X154164698Y-138615961D01*
X153955961Y-138824698D01*
X153791958Y-139070147D01*
X153678990Y-139342875D01*
X153621400Y-139632401D01*
X153621400Y-139927599D01*
X153678990Y-140217125D01*
X153791958Y-140489853D01*
X153955961Y-140735302D01*
X154164698Y-140944039D01*
X154323281Y-141050000D01*
X154164698Y-141155961D01*
X153955961Y-141364698D01*
X153791958Y-141610147D01*
X153678990Y-141882875D01*
X153621400Y-142172401D01*
X153621400Y-142467599D01*
X153678990Y-142757125D01*
X153791958Y-143029853D01*
X153955961Y-143275302D01*
X154164698Y-143484039D01*
X154323281Y-143590000D01*
X154164698Y-143695961D01*
X153955961Y-143904698D01*
X153791958Y-144150147D01*
X153678990Y-144422875D01*
X153621400Y-144712401D01*
X153621400Y-145007599D01*
X153678990Y-145297125D01*
X153791958Y-145569853D01*
X153955961Y-145815302D01*
X154164698Y-146024039D01*
X154323281Y-146130000D01*
X154164698Y-146235961D01*
X153955961Y-146444698D01*
X153791958Y-146690147D01*
X153678990Y-146962875D01*
X153621400Y-147252401D01*
X153621400Y-147547599D01*
X153678990Y-147837125D01*
X153791958Y-148109853D01*
X153955961Y-148355302D01*
X154164698Y-148564039D01*
X154323281Y-148670000D01*
X154164698Y-148775961D01*
X153955961Y-148984698D01*
X153791958Y-149230147D01*
X153678990Y-149502875D01*
X153621400Y-149792401D01*
X153621400Y-150087599D01*
X153678990Y-150377125D01*
X153791958Y-150649853D01*
X153955961Y-150895302D01*
X154164698Y-151104039D01*
X154323281Y-151210000D01*
X154164698Y-151315961D01*
X153955961Y-151524698D01*
X153791958Y-151770147D01*
X153678990Y-152042875D01*
X153621400Y-152332401D01*
X153621400Y-152627599D01*
X153678990Y-152917125D01*
X153791958Y-153189853D01*
X153955961Y-153435302D01*
X154164698Y-153644039D01*
X154323281Y-153750000D01*
X154164698Y-153855961D01*
X153955961Y-154064698D01*
X153791958Y-154310147D01*
X153678990Y-154582875D01*
X153621400Y-154872401D01*
X153621400Y-155167599D01*
X153678990Y-155457125D01*
X153791958Y-155729853D01*
X153955961Y-155975302D01*
X154070023Y-156089364D01*
X154012220Y-156106898D01*
X153901906Y-156165863D01*
X153805215Y-156245215D01*
X153725863Y-156341906D01*
X153666898Y-156452220D01*
X153630588Y-156571918D01*
X153618328Y-156696400D01*
X153618328Y-158423600D01*
X153630588Y-158548082D01*
X153666898Y-158667780D01*
X153725863Y-158778094D01*
X153805215Y-158874785D01*
X153901906Y-158954137D01*
X154012220Y-159013102D01*
X154131918Y-159049412D01*
X154256400Y-159061672D01*
X154639944Y-159061672D01*
X154578587Y-159087087D01*
X154391380Y-159212174D01*
X154232174Y-159371380D01*
X154107087Y-159558587D01*
X154020925Y-159766599D01*
X153977000Y-159987424D01*
X153977000Y-160212576D01*
X154020925Y-160433401D01*
X154107087Y-160641413D01*
X154232174Y-160828620D01*
X154391380Y-160987826D01*
X154578587Y-161112913D01*
X154786599Y-161199075D01*
X155007424Y-161243000D01*
X155232576Y-161243000D01*
X155453401Y-161199075D01*
X155661413Y-161112913D01*
X155848620Y-160987826D01*
X156007826Y-160828620D01*
X156132913Y-160641413D01*
X156219075Y-160433401D01*
X156263000Y-160212576D01*
X156263000Y-159987424D01*
X156261378Y-159979268D01*
X160665000Y-159979268D01*
X160665000Y-160340732D01*
X160735518Y-160695250D01*
X160873844Y-161029199D01*
X161074662Y-161329744D01*
X161330256Y-161585338D01*
X161630801Y-161786156D01*
X161964750Y-161924482D01*
X162319268Y-161995000D01*
X162680732Y-161995000D01*
X163035250Y-161924482D01*
X163369199Y-161786156D01*
X163669744Y-161585338D01*
X163925338Y-161329744D01*
X164126156Y-161029199D01*
X164264482Y-160695250D01*
X164335000Y-160340732D01*
X164335000Y-159979268D01*
X164264482Y-159624750D01*
X164126156Y-159290801D01*
X163925338Y-158990256D01*
X163669744Y-158734662D01*
X163369199Y-158533844D01*
X163035250Y-158395518D01*
X162680732Y-158325000D01*
X162319268Y-158325000D01*
X161964750Y-158395518D01*
X161630801Y-158533844D01*
X161330256Y-158734662D01*
X161074662Y-158990256D01*
X160873844Y-159290801D01*
X160735518Y-159624750D01*
X160665000Y-159979268D01*
X156261378Y-159979268D01*
X156219075Y-159766599D01*
X156132913Y-159558587D01*
X156007826Y-159371380D01*
X155848620Y-159212174D01*
X155661413Y-159087087D01*
X155600056Y-159061672D01*
X155983600Y-159061672D01*
X156108082Y-159049412D01*
X156227780Y-159013102D01*
X156338094Y-158954137D01*
X156434785Y-158874785D01*
X156514137Y-158778094D01*
X156573102Y-158667780D01*
X156609412Y-158548082D01*
X156621672Y-158423600D01*
X156621672Y-156700000D01*
X170561928Y-156700000D01*
X170561928Y-159300000D01*
X170574188Y-159424482D01*
X170610498Y-159544180D01*
X170669463Y-159654494D01*
X170748815Y-159751185D01*
X170845506Y-159830537D01*
X170955820Y-159889502D01*
X171075518Y-159925812D01*
X171200000Y-159938072D01*
X173800000Y-159938072D01*
X173924482Y-159925812D01*
X174044180Y-159889502D01*
X174154494Y-159830537D01*
X174251185Y-159751185D01*
X174330537Y-159654494D01*
X174389502Y-159544180D01*
X174425812Y-159424482D01*
X174438072Y-159300000D01*
X174438072Y-156700000D01*
X174425812Y-156575518D01*
X174389502Y-156455820D01*
X174330537Y-156345506D01*
X174251185Y-156248815D01*
X174154494Y-156169463D01*
X174044180Y-156110498D01*
X173924482Y-156074188D01*
X173800000Y-156061928D01*
X171200000Y-156061928D01*
X171075518Y-156074188D01*
X170955820Y-156110498D01*
X170845506Y-156169463D01*
X170748815Y-156248815D01*
X170669463Y-156345506D01*
X170610498Y-156455820D01*
X170574188Y-156575518D01*
X170561928Y-156700000D01*
X156621672Y-156700000D01*
X156621672Y-156696400D01*
X156609412Y-156571918D01*
X156573102Y-156452220D01*
X156514137Y-156341906D01*
X156434785Y-156245215D01*
X156338094Y-156165863D01*
X156227780Y-156106898D01*
X156169977Y-156089364D01*
X156284039Y-155975302D01*
X156448042Y-155729853D01*
X156561010Y-155457125D01*
X156618600Y-155167599D01*
X156618600Y-154872401D01*
X156561010Y-154582875D01*
X156448042Y-154310147D01*
X156284039Y-154064698D01*
X156075302Y-153855961D01*
X155916719Y-153750000D01*
X156075302Y-153644039D01*
X156284039Y-153435302D01*
X156448042Y-153189853D01*
X156561010Y-152917125D01*
X156598346Y-152729419D01*
X170565000Y-152729419D01*
X170565000Y-153110581D01*
X170639361Y-153484419D01*
X170785225Y-153836566D01*
X170996987Y-154153491D01*
X171266509Y-154423013D01*
X171583434Y-154634775D01*
X171935581Y-154780639D01*
X172309419Y-154855000D01*
X172690581Y-154855000D01*
X173064419Y-154780639D01*
X173416566Y-154634775D01*
X173733491Y-154423013D01*
X174003013Y-154153491D01*
X174214775Y-153836566D01*
X174360639Y-153484419D01*
X174435000Y-153110581D01*
X174435000Y-152729419D01*
X174360639Y-152355581D01*
X174214775Y-152003434D01*
X174003013Y-151686509D01*
X173733491Y-151416987D01*
X173416566Y-151205225D01*
X173064419Y-151059361D01*
X172690581Y-150985000D01*
X172309419Y-150985000D01*
X171935581Y-151059361D01*
X171583434Y-151205225D01*
X171266509Y-151416987D01*
X170996987Y-151686509D01*
X170785225Y-152003434D01*
X170639361Y-152355581D01*
X170565000Y-152729419D01*
X156598346Y-152729419D01*
X156618600Y-152627599D01*
X156618600Y-152332401D01*
X156561010Y-152042875D01*
X156448042Y-151770147D01*
X156284039Y-151524698D01*
X156075302Y-151315961D01*
X155916719Y-151210000D01*
X156075302Y-151104039D01*
X156284039Y-150895302D01*
X156448042Y-150649853D01*
X156561010Y-150377125D01*
X156618600Y-150087599D01*
X156618600Y-149792401D01*
X156561010Y-149502875D01*
X156448042Y-149230147D01*
X156284039Y-148984698D01*
X156099341Y-148800000D01*
X160661928Y-148800000D01*
X160661928Y-151200000D01*
X160674188Y-151324482D01*
X160710498Y-151444180D01*
X160769463Y-151554494D01*
X160848815Y-151651185D01*
X160945506Y-151730537D01*
X161055820Y-151789502D01*
X161175518Y-151825812D01*
X161300000Y-151838072D01*
X163700000Y-151838072D01*
X163824482Y-151825812D01*
X163944180Y-151789502D01*
X164054494Y-151730537D01*
X164151185Y-151651185D01*
X164230537Y-151554494D01*
X164289502Y-151444180D01*
X164325812Y-151324482D01*
X164338072Y-151200000D01*
X164338072Y-148800000D01*
X164325812Y-148675518D01*
X164289502Y-148555820D01*
X164230537Y-148445506D01*
X164151185Y-148348815D01*
X164054494Y-148269463D01*
X163944180Y-148210498D01*
X163824482Y-148174188D01*
X163700000Y-148161928D01*
X161300000Y-148161928D01*
X161175518Y-148174188D01*
X161055820Y-148210498D01*
X160945506Y-148269463D01*
X160848815Y-148348815D01*
X160769463Y-148445506D01*
X160710498Y-148555820D01*
X160674188Y-148675518D01*
X160661928Y-148800000D01*
X156099341Y-148800000D01*
X156075302Y-148775961D01*
X155916719Y-148670000D01*
X156075302Y-148564039D01*
X156284039Y-148355302D01*
X156448042Y-148109853D01*
X156561010Y-147837125D01*
X156618600Y-147547599D01*
X156618600Y-147252401D01*
X156561010Y-146962875D01*
X156448042Y-146690147D01*
X156284039Y-146444698D01*
X156075302Y-146235961D01*
X155916719Y-146130000D01*
X156075302Y-146024039D01*
X156120073Y-145979268D01*
X160665000Y-145979268D01*
X160665000Y-146340732D01*
X160735518Y-146695250D01*
X160873844Y-147029199D01*
X161074662Y-147329744D01*
X161330256Y-147585338D01*
X161630801Y-147786156D01*
X161964750Y-147924482D01*
X162319268Y-147995000D01*
X162680732Y-147995000D01*
X163035250Y-147924482D01*
X163369199Y-147786156D01*
X163669744Y-147585338D01*
X163925338Y-147329744D01*
X164126156Y-147029199D01*
X164264482Y-146695250D01*
X164335000Y-146340732D01*
X164335000Y-145979268D01*
X164264482Y-145624750D01*
X164126156Y-145290801D01*
X163925338Y-144990256D01*
X163669744Y-144734662D01*
X163369199Y-144533844D01*
X163035250Y-144395518D01*
X162680732Y-144325000D01*
X162319268Y-144325000D01*
X161964750Y-144395518D01*
X161630801Y-144533844D01*
X161330256Y-144734662D01*
X161074662Y-144990256D01*
X160873844Y-145290801D01*
X160735518Y-145624750D01*
X160665000Y-145979268D01*
X156120073Y-145979268D01*
X156284039Y-145815302D01*
X156448042Y-145569853D01*
X156561010Y-145297125D01*
X156618600Y-145007599D01*
X156618600Y-144712401D01*
X156561010Y-144422875D01*
X156448042Y-144150147D01*
X156284039Y-143904698D01*
X156075302Y-143695961D01*
X155916719Y-143590000D01*
X156075302Y-143484039D01*
X156284039Y-143275302D01*
X156448042Y-143029853D01*
X156561010Y-142757125D01*
X156572372Y-142700000D01*
X170561928Y-142700000D01*
X170561928Y-145300000D01*
X170574188Y-145424482D01*
X170610498Y-145544180D01*
X170669463Y-145654494D01*
X170748815Y-145751185D01*
X170845506Y-145830537D01*
X170955820Y-145889502D01*
X171075518Y-145925812D01*
X171200000Y-145938072D01*
X173800000Y-145938072D01*
X173924482Y-145925812D01*
X174044180Y-145889502D01*
X174154494Y-145830537D01*
X174251185Y-145751185D01*
X174330537Y-145654494D01*
X174389502Y-145544180D01*
X174425812Y-145424482D01*
X174438072Y-145300000D01*
X174438072Y-142700000D01*
X174425812Y-142575518D01*
X174389502Y-142455820D01*
X174330537Y-142345506D01*
X174251185Y-142248815D01*
X174154494Y-142169463D01*
X174044180Y-142110498D01*
X173924482Y-142074188D01*
X173800000Y-142061928D01*
X171200000Y-142061928D01*
X171075518Y-142074188D01*
X170955820Y-142110498D01*
X170845506Y-142169463D01*
X170748815Y-142248815D01*
X170669463Y-142345506D01*
X170610498Y-142455820D01*
X170574188Y-142575518D01*
X170561928Y-142700000D01*
X156572372Y-142700000D01*
X156618600Y-142467599D01*
X156618600Y-142172401D01*
X156561010Y-141882875D01*
X156448042Y-141610147D01*
X156284039Y-141364698D01*
X156075302Y-141155961D01*
X155916719Y-141050000D01*
X156075302Y-140944039D01*
X156284039Y-140735302D01*
X156448042Y-140489853D01*
X156561010Y-140217125D01*
X156618600Y-139927599D01*
X156618600Y-139632401D01*
X156561010Y-139342875D01*
X156448042Y-139070147D01*
X156284039Y-138824698D01*
X156188760Y-138729419D01*
X170565000Y-138729419D01*
X170565000Y-139110581D01*
X170639361Y-139484419D01*
X170785225Y-139836566D01*
X170996987Y-140153491D01*
X171266509Y-140423013D01*
X171583434Y-140634775D01*
X171935581Y-140780639D01*
X172309419Y-140855000D01*
X172690581Y-140855000D01*
X173064419Y-140780639D01*
X173416566Y-140634775D01*
X173733491Y-140423013D01*
X174003013Y-140153491D01*
X174214775Y-139836566D01*
X174360639Y-139484419D01*
X174435000Y-139110581D01*
X174435000Y-138729419D01*
X174360639Y-138355581D01*
X174214775Y-138003434D01*
X174003013Y-137686509D01*
X173733491Y-137416987D01*
X173416566Y-137205225D01*
X173064419Y-137059361D01*
X172690581Y-136985000D01*
X172309419Y-136985000D01*
X171935581Y-137059361D01*
X171583434Y-137205225D01*
X171266509Y-137416987D01*
X170996987Y-137686509D01*
X170785225Y-138003434D01*
X170639361Y-138355581D01*
X170565000Y-138729419D01*
X156188760Y-138729419D01*
X156075302Y-138615961D01*
X155916719Y-138510000D01*
X156075302Y-138404039D01*
X156284039Y-138195302D01*
X156448042Y-137949853D01*
X156561010Y-137677125D01*
X156618600Y-137387599D01*
X156618600Y-137092401D01*
X156561010Y-136802875D01*
X156448042Y-136530147D01*
X156284039Y-136284698D01*
X156075302Y-136075961D01*
X155916719Y-135970000D01*
X156075302Y-135864039D01*
X156284039Y-135655302D01*
X156448042Y-135409853D01*
X156561010Y-135137125D01*
X156618600Y-134847599D01*
X156618600Y-134800000D01*
X160661928Y-134800000D01*
X160661928Y-137200000D01*
X160674188Y-137324482D01*
X160710498Y-137444180D01*
X160769463Y-137554494D01*
X160848815Y-137651185D01*
X160945506Y-137730537D01*
X161055820Y-137789502D01*
X161175518Y-137825812D01*
X161300000Y-137838072D01*
X163700000Y-137838072D01*
X163824482Y-137825812D01*
X163944180Y-137789502D01*
X164054494Y-137730537D01*
X164151185Y-137651185D01*
X164230537Y-137554494D01*
X164289502Y-137444180D01*
X164325812Y-137324482D01*
X164338072Y-137200000D01*
X164338072Y-134800000D01*
X164325812Y-134675518D01*
X164289502Y-134555820D01*
X164230537Y-134445506D01*
X164151185Y-134348815D01*
X164054494Y-134269463D01*
X163944180Y-134210498D01*
X163824482Y-134174188D01*
X163700000Y-134161928D01*
X161300000Y-134161928D01*
X161175518Y-134174188D01*
X161055820Y-134210498D01*
X160945506Y-134269463D01*
X160848815Y-134348815D01*
X160769463Y-134445506D01*
X160710498Y-134555820D01*
X160674188Y-134675518D01*
X160661928Y-134800000D01*
X156618600Y-134800000D01*
X156618600Y-134552401D01*
X156561010Y-134262875D01*
X156448042Y-133990147D01*
X156284039Y-133744698D01*
X156075302Y-133535961D01*
X155916719Y-133430000D01*
X156075302Y-133324039D01*
X156284039Y-133115302D01*
X156448042Y-132869853D01*
X156561010Y-132597125D01*
X156618600Y-132307599D01*
X156618600Y-132127000D01*
X160665000Y-132127000D01*
X160665000Y-132340732D01*
X160735518Y-132695250D01*
X160873844Y-133029199D01*
X161074662Y-133329744D01*
X161330256Y-133585338D01*
X161630801Y-133786156D01*
X161964750Y-133924482D01*
X162319268Y-133995000D01*
X162680732Y-133995000D01*
X163035250Y-133924482D01*
X163369199Y-133786156D01*
X163669744Y-133585338D01*
X163925338Y-133329744D01*
X164115598Y-133045000D01*
X170561928Y-133045000D01*
X170561928Y-133300000D01*
X170574188Y-133424482D01*
X170610498Y-133544180D01*
X170669463Y-133654494D01*
X170748815Y-133751185D01*
X170845506Y-133830537D01*
X170955820Y-133889502D01*
X171075518Y-133925812D01*
X171200000Y-133938072D01*
X173800000Y-133938072D01*
X173924482Y-133925812D01*
X174044180Y-133889502D01*
X174154494Y-133830537D01*
X174251185Y-133751185D01*
X174330537Y-133654494D01*
X174389502Y-133544180D01*
X174425812Y-133424482D01*
X174438072Y-133300000D01*
X174438072Y-132127000D01*
X178115000Y-132127000D01*
X178115000Y-134543476D01*
X178115001Y-134543486D01*
X178115000Y-169133421D01*
X174633422Y-172615000D01*
X164466579Y-172615000D01*
X163038072Y-171186494D01*
X163038072Y-169847500D01*
X163025812Y-169723018D01*
X162989502Y-169603320D01*
X162930537Y-169493006D01*
X162851185Y-169396315D01*
X162754494Y-169316963D01*
X162670554Y-169272095D01*
X162773845Y-169146235D01*
X162921255Y-168870449D01*
X163012030Y-168571204D01*
X163042681Y-168260000D01*
X163012030Y-167948796D01*
X162921255Y-167649551D01*
X162877727Y-167568115D01*
X168615000Y-167568115D01*
X168615000Y-168431885D01*
X168783513Y-169279057D01*
X169114064Y-170077076D01*
X169593948Y-170795274D01*
X170204726Y-171406052D01*
X170922924Y-171885936D01*
X171720943Y-172216487D01*
X172568115Y-172385000D01*
X173431885Y-172385000D01*
X174279057Y-172216487D01*
X175077076Y-171885936D01*
X175795274Y-171406052D01*
X176406052Y-170795274D01*
X176885936Y-170077076D01*
X177216487Y-169279057D01*
X177385000Y-168431885D01*
X177385000Y-167568115D01*
X177216487Y-166720943D01*
X176885936Y-165922924D01*
X176406052Y-165204726D01*
X175795274Y-164593948D01*
X175077076Y-164114064D01*
X174279057Y-163783513D01*
X173431885Y-163615000D01*
X172568115Y-163615000D01*
X171720943Y-163783513D01*
X170922924Y-164114064D01*
X170204726Y-164593948D01*
X169593948Y-165204726D01*
X169114064Y-165922924D01*
X168783513Y-166720943D01*
X168615000Y-167568115D01*
X162877727Y-167568115D01*
X162773845Y-167373765D01*
X162575463Y-167132037D01*
X162402391Y-166990000D01*
X162575463Y-166847963D01*
X162773845Y-166606235D01*
X162921255Y-166330449D01*
X163012030Y-166031204D01*
X163042681Y-165720000D01*
X163012030Y-165408796D01*
X162921255Y-165109551D01*
X162773845Y-164833765D01*
X162575463Y-164592037D01*
X162333735Y-164393655D01*
X162057949Y-164246245D01*
X161758704Y-164155470D01*
X161525486Y-164132500D01*
X161274514Y-164132500D01*
X161041296Y-164155470D01*
X160742051Y-164246245D01*
X160466265Y-164393655D01*
X160224537Y-164592037D01*
X160026155Y-164833765D01*
X159878745Y-165109551D01*
X159787970Y-165408796D01*
X159757319Y-165720000D01*
X159787970Y-166031204D01*
X159878745Y-166330449D01*
X160026155Y-166606235D01*
X160224537Y-166847963D01*
X160397609Y-166990000D01*
X160224537Y-167132037D01*
X160026155Y-167373765D01*
X159878745Y-167649551D01*
X159787970Y-167948796D01*
X159757319Y-168260000D01*
X159787970Y-168571204D01*
X159878745Y-168870449D01*
X160026155Y-169146235D01*
X160129446Y-169272095D01*
X160045506Y-169316963D01*
X159948815Y-169396315D01*
X159869463Y-169493006D01*
X159810498Y-169603320D01*
X159774188Y-169723018D01*
X159761928Y-169847500D01*
X159761928Y-171752500D01*
X159774188Y-171876982D01*
X159810498Y-171996680D01*
X159869463Y-172106994D01*
X159948815Y-172203685D01*
X160045506Y-172283037D01*
X160155820Y-172342002D01*
X160275518Y-172378312D01*
X160400000Y-172390572D01*
X161738994Y-172390572D01*
X163443470Y-174095049D01*
X163471183Y-174128817D01*
X163504951Y-174156530D01*
X163504953Y-174156532D01*
X163605941Y-174239411D01*
X163759686Y-174321589D01*
X163820378Y-174340000D01*
X105029392Y-174340000D01*
X104231917Y-174268827D01*
X103488110Y-174065344D01*
X102792096Y-173733363D01*
X102165870Y-173283374D01*
X101629223Y-172729597D01*
X101199129Y-172089549D01*
X100889171Y-171383447D01*
X100707935Y-170628543D01*
X100660000Y-169975793D01*
X100660000Y-167568115D01*
X102615000Y-167568115D01*
X102615000Y-168431885D01*
X102783513Y-169279057D01*
X103114064Y-170077076D01*
X103593948Y-170795274D01*
X104204726Y-171406052D01*
X104922924Y-171885936D01*
X105720943Y-172216487D01*
X106568115Y-172385000D01*
X107431885Y-172385000D01*
X108279057Y-172216487D01*
X109077076Y-171885936D01*
X109795274Y-171406052D01*
X110406052Y-170795274D01*
X110885936Y-170077076D01*
X111000704Y-169800000D01*
X116061928Y-169800000D01*
X116074188Y-169924482D01*
X116110498Y-170044180D01*
X116169463Y-170154494D01*
X116248815Y-170251185D01*
X116345506Y-170330537D01*
X116455820Y-170389502D01*
X116575518Y-170425812D01*
X116700000Y-170438072D01*
X117214250Y-170435000D01*
X117373000Y-170276250D01*
X117373000Y-169127000D01*
X116223750Y-169127000D01*
X116065000Y-169285750D01*
X116061928Y-169800000D01*
X111000704Y-169800000D01*
X111216487Y-169279057D01*
X111385000Y-168431885D01*
X111385000Y-168200000D01*
X116061928Y-168200000D01*
X116065000Y-168714250D01*
X116223750Y-168873000D01*
X117373000Y-168873000D01*
X117373000Y-167723750D01*
X117627000Y-167723750D01*
X117627000Y-168873000D01*
X117647000Y-168873000D01*
X117647000Y-169127000D01*
X117627000Y-169127000D01*
X117627000Y-170276250D01*
X117785750Y-170435000D01*
X118300000Y-170438072D01*
X118424482Y-170425812D01*
X118544180Y-170389502D01*
X118654494Y-170330537D01*
X118751185Y-170251185D01*
X118830537Y-170154494D01*
X118889502Y-170044180D01*
X118918661Y-169948057D01*
X119085241Y-170114637D01*
X119320273Y-170271680D01*
X119581426Y-170379853D01*
X119858665Y-170435000D01*
X120141335Y-170435000D01*
X120418574Y-170379853D01*
X120679727Y-170271680D01*
X120914759Y-170114637D01*
X121114637Y-169914759D01*
X121271680Y-169679727D01*
X121379853Y-169418574D01*
X121403439Y-169300000D01*
X128061928Y-169300000D01*
X128074188Y-169424482D01*
X128110498Y-169544180D01*
X128169463Y-169654494D01*
X128248815Y-169751185D01*
X128345506Y-169830537D01*
X128455820Y-169889502D01*
X128575518Y-169925812D01*
X128700000Y-169938072D01*
X129714250Y-169935000D01*
X129873000Y-169776250D01*
X129873000Y-168127000D01*
X130127000Y-168127000D01*
X130127000Y-169776250D01*
X130285750Y-169935000D01*
X131300000Y-169938072D01*
X131424482Y-169925812D01*
X131544180Y-169889502D01*
X131654494Y-169830537D01*
X131751185Y-169751185D01*
X131830537Y-169654494D01*
X131889502Y-169544180D01*
X131925812Y-169424482D01*
X131938072Y-169300000D01*
X131935000Y-168285750D01*
X131776250Y-168127000D01*
X130127000Y-168127000D01*
X129873000Y-168127000D01*
X128223750Y-168127000D01*
X128065000Y-168285750D01*
X128061928Y-169300000D01*
X121403439Y-169300000D01*
X121435000Y-169141335D01*
X121435000Y-168858665D01*
X121379853Y-168581426D01*
X121271680Y-168320273D01*
X121114637Y-168085241D01*
X120914759Y-167885363D01*
X120679727Y-167728320D01*
X120418574Y-167620147D01*
X120141335Y-167565000D01*
X119858665Y-167565000D01*
X119581426Y-167620147D01*
X119320273Y-167728320D01*
X119085241Y-167885363D01*
X118918661Y-168051943D01*
X118889502Y-167955820D01*
X118830537Y-167845506D01*
X118751185Y-167748815D01*
X118654494Y-167669463D01*
X118544180Y-167610498D01*
X118424482Y-167574188D01*
X118300000Y-167561928D01*
X117785750Y-167565000D01*
X117627000Y-167723750D01*
X117373000Y-167723750D01*
X117214250Y-167565000D01*
X116700000Y-167561928D01*
X116575518Y-167574188D01*
X116455820Y-167610498D01*
X116345506Y-167669463D01*
X116248815Y-167748815D01*
X116169463Y-167845506D01*
X116110498Y-167955820D01*
X116074188Y-168075518D01*
X116061928Y-168200000D01*
X111385000Y-168200000D01*
X111385000Y-167568115D01*
X111216487Y-166720943D01*
X111207813Y-166700000D01*
X128061928Y-166700000D01*
X128065000Y-167714250D01*
X128223750Y-167873000D01*
X129873000Y-167873000D01*
X129873000Y-166223750D01*
X130127000Y-166223750D01*
X130127000Y-167873000D01*
X131776250Y-167873000D01*
X131839831Y-167809419D01*
X133145000Y-167809419D01*
X133145000Y-168190581D01*
X133219361Y-168564419D01*
X133365225Y-168916566D01*
X133576987Y-169233491D01*
X133846509Y-169503013D01*
X134163434Y-169714775D01*
X134515581Y-169860639D01*
X134889419Y-169935000D01*
X135270581Y-169935000D01*
X135644419Y-169860639D01*
X135996566Y-169714775D01*
X136313491Y-169503013D01*
X136583013Y-169233491D01*
X136794775Y-168916566D01*
X136940639Y-168564419D01*
X137015000Y-168190581D01*
X137015000Y-167809419D01*
X136940639Y-167435581D01*
X136794775Y-167083434D01*
X136583013Y-166766509D01*
X136313491Y-166496987D01*
X135996566Y-166285225D01*
X135644419Y-166139361D01*
X135270581Y-166065000D01*
X134889419Y-166065000D01*
X134515581Y-166139361D01*
X134163434Y-166285225D01*
X133846509Y-166496987D01*
X133576987Y-166766509D01*
X133365225Y-167083434D01*
X133219361Y-167435581D01*
X133145000Y-167809419D01*
X131839831Y-167809419D01*
X131935000Y-167714250D01*
X131938072Y-166700000D01*
X131925812Y-166575518D01*
X131889502Y-166455820D01*
X131830537Y-166345506D01*
X131751185Y-166248815D01*
X131654494Y-166169463D01*
X131544180Y-166110498D01*
X131424482Y-166074188D01*
X131300000Y-166061928D01*
X130285750Y-166065000D01*
X130127000Y-166223750D01*
X129873000Y-166223750D01*
X129714250Y-166065000D01*
X128700000Y-166061928D01*
X128575518Y-166074188D01*
X128455820Y-166110498D01*
X128345506Y-166169463D01*
X128248815Y-166248815D01*
X128169463Y-166345506D01*
X128110498Y-166455820D01*
X128074188Y-166575518D01*
X128061928Y-166700000D01*
X111207813Y-166700000D01*
X110885936Y-165922924D01*
X110406052Y-165204726D01*
X109795274Y-164593948D01*
X109077076Y-164114064D01*
X108279057Y-163783513D01*
X107431885Y-163615000D01*
X106568115Y-163615000D01*
X105720943Y-163783513D01*
X104922924Y-164114064D01*
X104204726Y-164593948D01*
X103593948Y-165204726D01*
X103114064Y-165922924D01*
X102783513Y-166720943D01*
X102615000Y-167568115D01*
X100660000Y-167568115D01*
X100660000Y-159992702D01*
X129186903Y-159992702D01*
X129258486Y-160236671D01*
X129513996Y-160357571D01*
X129788184Y-160426300D01*
X130070512Y-160440217D01*
X130350130Y-160398787D01*
X130616292Y-160303603D01*
X130741514Y-160236671D01*
X130813097Y-159992702D01*
X130000000Y-159179605D01*
X129186903Y-159992702D01*
X100660000Y-159992702D01*
X100660000Y-159070512D01*
X128559783Y-159070512D01*
X128601213Y-159350130D01*
X128696397Y-159616292D01*
X128763329Y-159741514D01*
X129007298Y-159813097D01*
X129820395Y-159000000D01*
X130179605Y-159000000D01*
X130992702Y-159813097D01*
X131236671Y-159741514D01*
X131357571Y-159486004D01*
X131426300Y-159211816D01*
X131440217Y-158929488D01*
X131429724Y-158858665D01*
X133565000Y-158858665D01*
X133565000Y-159141335D01*
X133620147Y-159418574D01*
X133728320Y-159679727D01*
X133885363Y-159914759D01*
X134085241Y-160114637D01*
X134320273Y-160271680D01*
X134581426Y-160379853D01*
X134858665Y-160435000D01*
X135141335Y-160435000D01*
X135418574Y-160379853D01*
X135679727Y-160271680D01*
X135914759Y-160114637D01*
X136114637Y-159914759D01*
X136271680Y-159679727D01*
X136379853Y-159418574D01*
X136435000Y-159141335D01*
X136435000Y-158858665D01*
X136379853Y-158581426D01*
X136271680Y-158320273D01*
X136114637Y-158085241D01*
X135914759Y-157885363D01*
X135679727Y-157728320D01*
X135418574Y-157620147D01*
X135141335Y-157565000D01*
X134858665Y-157565000D01*
X134581426Y-157620147D01*
X134320273Y-157728320D01*
X134085241Y-157885363D01*
X133885363Y-158085241D01*
X133728320Y-158320273D01*
X133620147Y-158581426D01*
X133565000Y-158858665D01*
X131429724Y-158858665D01*
X131398787Y-158649870D01*
X131303603Y-158383708D01*
X131236671Y-158258486D01*
X130992702Y-158186903D01*
X130179605Y-159000000D01*
X129820395Y-159000000D01*
X129007298Y-158186903D01*
X128763329Y-158258486D01*
X128642429Y-158513996D01*
X128573700Y-158788184D01*
X128559783Y-159070512D01*
X100660000Y-159070512D01*
X100660000Y-158007298D01*
X129186903Y-158007298D01*
X130000000Y-158820395D01*
X130813097Y-158007298D01*
X130741514Y-157763329D01*
X130486004Y-157642429D01*
X130211816Y-157573700D01*
X129929488Y-157559783D01*
X129649870Y-157601213D01*
X129383708Y-157696397D01*
X129258486Y-157763329D01*
X129186903Y-158007298D01*
X100660000Y-158007298D01*
X100660000Y-157300000D01*
X104561928Y-157300000D01*
X104574188Y-157424482D01*
X104610498Y-157544180D01*
X104669463Y-157654494D01*
X104748815Y-157751185D01*
X104845506Y-157830537D01*
X104955820Y-157889502D01*
X105075518Y-157925812D01*
X105200000Y-157938072D01*
X105714250Y-157935000D01*
X105873000Y-157776250D01*
X105873000Y-156627000D01*
X104723750Y-156627000D01*
X104565000Y-156785750D01*
X104561928Y-157300000D01*
X100660000Y-157300000D01*
X100660000Y-155700000D01*
X104561928Y-155700000D01*
X104565000Y-156214250D01*
X104723750Y-156373000D01*
X105873000Y-156373000D01*
X105873000Y-155223750D01*
X106127000Y-155223750D01*
X106127000Y-156373000D01*
X106147000Y-156373000D01*
X106147000Y-156627000D01*
X106127000Y-156627000D01*
X106127000Y-157776250D01*
X106285750Y-157935000D01*
X106800000Y-157938072D01*
X106924482Y-157925812D01*
X107044180Y-157889502D01*
X107154494Y-157830537D01*
X107251185Y-157751185D01*
X107330537Y-157654494D01*
X107389502Y-157544180D01*
X107418661Y-157448057D01*
X107585241Y-157614637D01*
X107820273Y-157771680D01*
X108081426Y-157879853D01*
X108358665Y-157935000D01*
X108641335Y-157935000D01*
X108918574Y-157879853D01*
X109179727Y-157771680D01*
X109414759Y-157614637D01*
X109614637Y-157414759D01*
X109691316Y-157300000D01*
X116061928Y-157300000D01*
X116074188Y-157424482D01*
X116110498Y-157544180D01*
X116169463Y-157654494D01*
X116248815Y-157751185D01*
X116345506Y-157830537D01*
X116455820Y-157889502D01*
X116575518Y-157925812D01*
X116700000Y-157938072D01*
X117214250Y-157935000D01*
X117373000Y-157776250D01*
X117373000Y-156627000D01*
X116223750Y-156627000D01*
X116065000Y-156785750D01*
X116061928Y-157300000D01*
X109691316Y-157300000D01*
X109771680Y-157179727D01*
X109879853Y-156918574D01*
X109935000Y-156641335D01*
X109935000Y-156358665D01*
X109879853Y-156081426D01*
X109771680Y-155820273D01*
X109691317Y-155700000D01*
X116061928Y-155700000D01*
X116065000Y-156214250D01*
X116223750Y-156373000D01*
X117373000Y-156373000D01*
X117373000Y-155223750D01*
X117627000Y-155223750D01*
X117627000Y-156373000D01*
X117647000Y-156373000D01*
X117647000Y-156627000D01*
X117627000Y-156627000D01*
X117627000Y-157776250D01*
X117785750Y-157935000D01*
X118300000Y-157938072D01*
X118424482Y-157925812D01*
X118544180Y-157889502D01*
X118654494Y-157830537D01*
X118751185Y-157751185D01*
X118830537Y-157654494D01*
X118889502Y-157544180D01*
X118918661Y-157448057D01*
X119085241Y-157614637D01*
X119320273Y-157771680D01*
X119581426Y-157879853D01*
X119858665Y-157935000D01*
X120141335Y-157935000D01*
X120418574Y-157879853D01*
X120679727Y-157771680D01*
X120914759Y-157614637D01*
X121114637Y-157414759D01*
X121271680Y-157179727D01*
X121379853Y-156918574D01*
X121435000Y-156641335D01*
X121435000Y-156358665D01*
X121379853Y-156081426D01*
X121271680Y-155820273D01*
X121114637Y-155585241D01*
X120914759Y-155385363D01*
X120679727Y-155228320D01*
X120418574Y-155120147D01*
X120141335Y-155065000D01*
X119858665Y-155065000D01*
X119581426Y-155120147D01*
X119320273Y-155228320D01*
X119085241Y-155385363D01*
X118918661Y-155551943D01*
X118889502Y-155455820D01*
X118830537Y-155345506D01*
X118751185Y-155248815D01*
X118654494Y-155169463D01*
X118544180Y-155110498D01*
X118424482Y-155074188D01*
X118300000Y-155061928D01*
X117785750Y-155065000D01*
X117627000Y-155223750D01*
X117373000Y-155223750D01*
X117214250Y-155065000D01*
X116700000Y-155061928D01*
X116575518Y-155074188D01*
X116455820Y-155110498D01*
X116345506Y-155169463D01*
X116248815Y-155248815D01*
X116169463Y-155345506D01*
X116110498Y-155455820D01*
X116074188Y-155575518D01*
X116061928Y-155700000D01*
X109691317Y-155700000D01*
X109614637Y-155585241D01*
X109414759Y-155385363D01*
X109179727Y-155228320D01*
X108918574Y-155120147D01*
X108641335Y-155065000D01*
X108358665Y-155065000D01*
X108081426Y-155120147D01*
X107820273Y-155228320D01*
X107585241Y-155385363D01*
X107418661Y-155551943D01*
X107389502Y-155455820D01*
X107330537Y-155345506D01*
X107251185Y-155248815D01*
X107154494Y-155169463D01*
X107044180Y-155110498D01*
X106924482Y-155074188D01*
X106800000Y-155061928D01*
X106285750Y-155065000D01*
X106127000Y-155223750D01*
X105873000Y-155223750D01*
X105714250Y-155065000D01*
X105200000Y-155061928D01*
X105075518Y-155074188D01*
X104955820Y-155110498D01*
X104845506Y-155169463D01*
X104748815Y-155248815D01*
X104669463Y-155345506D01*
X104610498Y-155455820D01*
X104574188Y-155575518D01*
X104561928Y-155700000D01*
X100660000Y-155700000D01*
X100660000Y-151300000D01*
X126061928Y-151300000D01*
X126074188Y-151424482D01*
X126110498Y-151544180D01*
X126169463Y-151654494D01*
X126248815Y-151751185D01*
X126345506Y-151830537D01*
X126455820Y-151889502D01*
X126575518Y-151925812D01*
X126700000Y-151938072D01*
X127214250Y-151935000D01*
X127373000Y-151776250D01*
X127373000Y-150627000D01*
X126223750Y-150627000D01*
X126065000Y-150785750D01*
X126061928Y-151300000D01*
X100660000Y-151300000D01*
X100660000Y-149700000D01*
X126061928Y-149700000D01*
X126065000Y-150214250D01*
X126223750Y-150373000D01*
X127373000Y-150373000D01*
X127373000Y-149223750D01*
X127627000Y-149223750D01*
X127627000Y-150373000D01*
X127647000Y-150373000D01*
X127647000Y-150627000D01*
X127627000Y-150627000D01*
X127627000Y-151776250D01*
X127785750Y-151935000D01*
X128300000Y-151938072D01*
X128424482Y-151925812D01*
X128544180Y-151889502D01*
X128654494Y-151830537D01*
X128751185Y-151751185D01*
X128830537Y-151654494D01*
X128889502Y-151544180D01*
X128918661Y-151448057D01*
X129085241Y-151614637D01*
X129320273Y-151771680D01*
X129581426Y-151879853D01*
X129858665Y-151935000D01*
X130141335Y-151935000D01*
X130418574Y-151879853D01*
X130679727Y-151771680D01*
X130914759Y-151614637D01*
X131114637Y-151414759D01*
X131271680Y-151179727D01*
X131379853Y-150918574D01*
X131435000Y-150641335D01*
X131435000Y-150358665D01*
X131379853Y-150081426D01*
X131271680Y-149820273D01*
X131114637Y-149585241D01*
X130914759Y-149385363D01*
X130679727Y-149228320D01*
X130418574Y-149120147D01*
X130141335Y-149065000D01*
X129858665Y-149065000D01*
X129581426Y-149120147D01*
X129320273Y-149228320D01*
X129085241Y-149385363D01*
X128918661Y-149551943D01*
X128889502Y-149455820D01*
X128830537Y-149345506D01*
X128751185Y-149248815D01*
X128654494Y-149169463D01*
X128544180Y-149110498D01*
X128424482Y-149074188D01*
X128300000Y-149061928D01*
X127785750Y-149065000D01*
X127627000Y-149223750D01*
X127373000Y-149223750D01*
X127214250Y-149065000D01*
X126700000Y-149061928D01*
X126575518Y-149074188D01*
X126455820Y-149110498D01*
X126345506Y-149169463D01*
X126248815Y-149248815D01*
X126169463Y-149345506D01*
X126110498Y-149455820D01*
X126074188Y-149575518D01*
X126061928Y-149700000D01*
X100660000Y-149700000D01*
X100660000Y-142803638D01*
X115810900Y-142803638D01*
X115810900Y-143136362D01*
X115875811Y-143462692D01*
X116003139Y-143770089D01*
X116187990Y-144046739D01*
X116423261Y-144282010D01*
X116699911Y-144466861D01*
X117007308Y-144594189D01*
X117333638Y-144659100D01*
X117666362Y-144659100D01*
X117992692Y-144594189D01*
X118300089Y-144466861D01*
X118576739Y-144282010D01*
X118812010Y-144046739D01*
X118996861Y-143770089D01*
X119124189Y-143462692D01*
X119189100Y-143136362D01*
X119189100Y-142803638D01*
X119124189Y-142477308D01*
X118996861Y-142169911D01*
X118812010Y-141893261D01*
X118787263Y-141868514D01*
X124665000Y-141868514D01*
X124665000Y-142131486D01*
X124716304Y-142389405D01*
X124816939Y-142632359D01*
X124963038Y-142851013D01*
X125148987Y-143036962D01*
X125367641Y-143183061D01*
X125610595Y-143283696D01*
X125868514Y-143335000D01*
X126131486Y-143335000D01*
X126389405Y-143283696D01*
X126632359Y-143183061D01*
X126851013Y-143036962D01*
X127036962Y-142851013D01*
X127183061Y-142632359D01*
X127283696Y-142389405D01*
X127335000Y-142131486D01*
X127335000Y-141868514D01*
X129745000Y-141868514D01*
X129745000Y-142131486D01*
X129796304Y-142389405D01*
X129896939Y-142632359D01*
X130043038Y-142851013D01*
X130228987Y-143036962D01*
X130447641Y-143183061D01*
X130690595Y-143283696D01*
X130948514Y-143335000D01*
X131211486Y-143335000D01*
X131469405Y-143283696D01*
X131712359Y-143183061D01*
X131931013Y-143036962D01*
X132116962Y-142851013D01*
X132263061Y-142632359D01*
X132363696Y-142389405D01*
X132415000Y-142131486D01*
X132415000Y-141916578D01*
X134595050Y-139736529D01*
X134628817Y-139708817D01*
X134739411Y-139574059D01*
X134803216Y-139454687D01*
X134821589Y-139420314D01*
X134872195Y-139253490D01*
X134877468Y-139199953D01*
X134885000Y-139123477D01*
X134885000Y-139123469D01*
X134889281Y-139080000D01*
X134885000Y-139036531D01*
X134885000Y-137685885D01*
X135029199Y-137626156D01*
X135329744Y-137425338D01*
X135585338Y-137169744D01*
X135786156Y-136869199D01*
X135924482Y-136535250D01*
X135995000Y-136180732D01*
X135995000Y-135819268D01*
X135924482Y-135464750D01*
X135786156Y-135130801D01*
X135585338Y-134830256D01*
X135329744Y-134574662D01*
X135029199Y-134373844D01*
X134695250Y-134235518D01*
X134340732Y-134165000D01*
X133979268Y-134165000D01*
X133624750Y-134235518D01*
X133290801Y-134373844D01*
X132990256Y-134574662D01*
X132734662Y-134830256D01*
X132533844Y-135130801D01*
X132395518Y-135464750D01*
X132325000Y-135819268D01*
X132325000Y-136180732D01*
X132395518Y-136535250D01*
X132533844Y-136869199D01*
X132734662Y-137169744D01*
X132990256Y-137425338D01*
X133115001Y-137508690D01*
X133115000Y-138713421D01*
X131163422Y-140665000D01*
X130948514Y-140665000D01*
X130690595Y-140716304D01*
X130447641Y-140816939D01*
X130228987Y-140963038D01*
X130043038Y-141148987D01*
X129896939Y-141367641D01*
X129796304Y-141610595D01*
X129745000Y-141868514D01*
X127335000Y-141868514D01*
X127283696Y-141610595D01*
X127183061Y-141367641D01*
X127036962Y-141148987D01*
X126851013Y-140963038D01*
X126632359Y-140816939D01*
X126389405Y-140716304D01*
X126131486Y-140665000D01*
X125868514Y-140665000D01*
X125610595Y-140716304D01*
X125367641Y-140816939D01*
X125148987Y-140963038D01*
X124963038Y-141148987D01*
X124816939Y-141367641D01*
X124716304Y-141610595D01*
X124665000Y-141868514D01*
X118787263Y-141868514D01*
X118576739Y-141657990D01*
X118300089Y-141473139D01*
X117992692Y-141345811D01*
X117666362Y-141280900D01*
X117333638Y-141280900D01*
X117007308Y-141345811D01*
X116699911Y-141473139D01*
X116423261Y-141657990D01*
X116187990Y-141893261D01*
X116003139Y-142169911D01*
X115875811Y-142477308D01*
X115810900Y-142803638D01*
X100660000Y-142803638D01*
X100660000Y-139628638D01*
X101840900Y-139628638D01*
X101840900Y-139961362D01*
X101905811Y-140287692D01*
X102033139Y-140595089D01*
X102217990Y-140871739D01*
X102453261Y-141107010D01*
X102729911Y-141291861D01*
X103037308Y-141419189D01*
X103363638Y-141484100D01*
X103696362Y-141484100D01*
X104022692Y-141419189D01*
X104330089Y-141291861D01*
X104606739Y-141107010D01*
X104842010Y-140871739D01*
X105026861Y-140595089D01*
X105154189Y-140287692D01*
X105219100Y-139961362D01*
X105219100Y-139628638D01*
X105154189Y-139302308D01*
X105026861Y-138994911D01*
X104842010Y-138718261D01*
X104606739Y-138482990D01*
X104330089Y-138298139D01*
X104022692Y-138170811D01*
X103696362Y-138105900D01*
X103363638Y-138105900D01*
X103037308Y-138170811D01*
X102729911Y-138298139D01*
X102453261Y-138482990D01*
X102217990Y-138718261D01*
X102033139Y-138994911D01*
X101905811Y-139302308D01*
X101840900Y-139628638D01*
X100660000Y-139628638D01*
X100660000Y-132127000D01*
X103615000Y-132127000D01*
X103615000Y-134456531D01*
G37*
%TD.AperFunction*%
%TD*%
M02*
