M48
; DRILL file {KiCad (5.1.9-0-10_14)} date Wednesday, June 30, 2021 at 11:09:02 PM
; FORMAT={-:-/ absolute / metric / decimal}
; #@! TF.CreationDate,2021-06-30T23:09:02+02:00
; #@! TF.GenerationSoftware,Kicad,Pcbnew,(5.1.9-0-10_14)
; #@! TF.FileFunction,Plated,1,2,PTH
FMAT,2
METRIC
T1C0.400
T2C0.700
T3C0.800
T4C1.016
T5C1.194
T6C1.200
T7C1.300
T8C1.600
T9C4.300
%
G90
G05
T1
X137.5Y-134.0
X142.0Y-137.5
X157.5Y-117.0
T2
X126.0Y-142.0
X131.08Y-142.0
X147.5Y-111.42
X147.5Y-116.5
X151.0Y-132.92
X151.0Y-138.0
T3
X106.0Y-115.5
X106.0Y-156.5
X108.5Y-115.5
X108.5Y-156.5
X117.5Y-102.7
X117.5Y-115.5
X117.5Y-156.5
X117.5Y-169.0
X120.0Y-102.7
X120.0Y-115.5
X120.0Y-156.5
X120.0Y-169.0
X126.5Y-131.0
X127.0Y-122.0
X127.5Y-150.5
X129.5Y-122.0
X130.0Y-113.0
X130.0Y-150.5
X130.0Y-159.0
X131.5Y-131.0
X135.0Y-113.0
X135.0Y-159.0
X144.92Y-120.0
X144.92Y-127.62
X147.46Y-120.0
X147.46Y-127.62
X150.0Y-120.0
X150.0Y-127.62
T4
X139.88Y-116.92
X139.88Y-119.46
X139.88Y-122.0
X139.88Y-124.54
X139.88Y-127.08
X139.88Y-129.62
X139.88Y-132.16
X139.88Y-134.7
X139.88Y-137.24
X139.88Y-139.78
X139.88Y-142.32
X139.88Y-144.86
X139.88Y-147.4
X139.88Y-149.94
X139.88Y-152.48
X139.88Y-155.02
X139.88Y-157.56
X155.12Y-116.92
X155.12Y-119.46
X155.12Y-122.0
X155.12Y-124.54
X155.12Y-127.08
X155.12Y-129.62
X155.12Y-132.16
X155.12Y-134.7
X155.12Y-137.24
X155.12Y-139.78
X155.12Y-142.32
X155.12Y-144.86
X155.12Y-147.4
X155.12Y-149.94
X155.12Y-152.48
X155.12Y-155.02
X155.12Y-157.56
T5
X112.42Y-132.175
X112.42Y-135.985
X112.42Y-139.795
X117.5Y-135.985
T6
X124.0Y-136.0
X134.16Y-136.0
X161.4Y-165.72
X161.4Y-168.26
X161.4Y-170.8
X162.5Y-122.0
X162.5Y-132.16
X162.5Y-136.0
X162.5Y-146.16
X162.5Y-150.0
X162.5Y-160.16
T7
X129.92Y-102.5
X130.0Y-168.0
X135.0Y-102.5
X135.08Y-168.0
X141.68Y-102.5
X146.76Y-102.5
X151.84Y-102.5
X156.92Y-102.5
X162.0Y-102.5
X172.5Y-109.84
X172.5Y-114.92
X172.5Y-120.0
X172.5Y-126.92
X172.5Y-132.0
X172.5Y-138.92
X172.5Y-144.0
X172.5Y-152.92
X172.5Y-158.0
T8
X117.5Y-129.0
X117.5Y-142.97
T9
X107.0Y-102.0
X107.0Y-168.0
X173.0Y-102.0
X173.0Y-168.0
T0
M30
